<?xml version="1.0" encoding="UTF-8"?>
<svg id="Layer_1" data-name="Layer 1" xmlns="http://www.w3.org/2000/svg" viewBox="0 0 428.96 423.96">
  <defs>
    <style>
      .cls-1 {
        fill: #fff;
      }
    </style>
  </defs>
  <g>
    <path class="cls-1" d="M185.74,388.07c-.02.7.05,1.34-.32,1.99s-6.55,3.7-7.52,3.89c-6.69,1.34-4.07-6.6,1.16-6.56l-2.37-2.68c-1.4-4.8,7.95-5.62,8.3-6.07.81-1.03-1.11-3.88,3.95-5.73,4.67-1.71,8.18.2,12.54,1.76,1.17,1.49-1.32,4.67-2.98,4.8l-.1.88c.46,2.38,2.24,3,3.73,4.35,1.14,1.03.94,1.04,2.3,2.04-.33-1.89-5.1-6.63.48-7.86,9.34-2.06,15.54,7.62,7.99,13.11-2.97-1.76-5.71-3.24-8.47-5.25.96,5.5-6.48,2.7-10.02,3.34l.68,6.68c1.15-.31.6-2.47,1.17-3.83,1.71-4.1,11.96-2.09,13.8,1.21.48.87.9,3.81,1.08,3.95.1.07,1.11-.74,2.44-.19,3.76,1.56,5.29,7.2,5.56,10.88,2.15-2.03,1.91-3.46,5.33-2,.9-4.54,3-11.73,7.67-5.33l1.01,5.99c-.03-1.91,2.49-2.85,3.01-4.01s.1-2.65.45-3.21c.43-.7,4.63-.68,3.22-4.78-2.45,1.06-3.41.02-5.33-1.34,2.66,12.25-6.56,4.06-3.02,0,.88-1.01,2.68-.01,2.34-1.65-1.15-.89-2.47-1.86-3.33-3.01-.7,3.29-.17,7.47-4.67,4.01.32,2.28-.86,10.73-4.65,9.04-.36-.16-4.44-5.12-4.56-5.5-.33-1.1-.37-6.83.16-7.58,2.38-3.42,7.57,2.9,9.05,4.04-.9-6.43-11.11-5.83-7.91-12.59,8.11-1.56,9.09,3.92,12.58,8.58,1.83-8.55,3.75-3.52,9.34-1.34.86-1.9-2.8-7.41-.28-7.98,3.28.45,5.36,2.93,6.31,5.97l1.96-5.71c3.03-2.05,6.29,3.96,4.1,6.77-1.27,1.63-4.86,1.1-4.75-1.06-1.04-.64-2.32,4.64,2.02,2.94,2.45,2.32,3.27,9.57-1.7,7.76l-.99-5.36c-2.1,2.04-3.65,1.11-5.99,0v2.66s2.56.09,2.56.09l.77,3.92,3.31-.66c1.26,2.83.48,7.6-3.31,7.34l-.68-4c-1.17.04-.79,1.72-1.99,2.34-.78.4-1.81.32-2.68.33,1.91,4.7-.98,9.16-6,9.34v-4.67s-3.3,3.05-3.3,3.05l-3.05-1.7c-1.49,1.02-.16,2.23-.45,4.14-.43,2.83-3.7,7.5-6.88,7.23-4.01-.34.69-6.94-.35-9.38l-3.12,3.27-2.25-.91-2.63-13.04c-.15,1.54-1.15,2.56-2.67,2.68,1.76,3.72,3.41,6.12,1.17,10.18-1.45,2.63-4.01,5.53-7.19,4.49v-11.02c0-.5,2.63-1.3,2.67-2.33l-6-.67c.76,4.8-2.94,8.88-7.35,10.02l2.31,2c1.69-2.2,3.1-4.89,6.36-4.68.45,2.45,1.35,6.28-.2,8.48s-7.38,4.83-7.82.21h-.98c-4.97,8.06-9.05-5.31-2.34-6.02-4.75-8.04-.68-12.21,8.01-11.34l-.99-2.65c-1.99,2.93-5.38.43-6.35.93-1.29.67-3.97,6.09-7.34,5.74l.46,1.32c3.2.39,5.39,3.1,3.18,5.98-1.89,2.45-4.13-.28-2.34,6.68-2.13.42-3.97,1.37-5.35-.93-1.82-3.05.17-3.86.67-6.08.27-1.18-.19-2.61.15-3.85.53-1.88,2.99-1.04,2.55-3.12l-2.59.07-2.05,5.63c-2.34,1.45-3.42-1.64-2.37-3.71.52-1.04,2.76-1.47,2.97-2.39.15-.65-1.08-2.16-1.26-3.31-.45-2.83.53-4.36,1.41-6.86,4.73-1.82,3.5,4.94,7.91,4.55.48-2.67-2.42-2.43-3.49-4.85-.47-1.05-.62-2.02-.51-3.16,3.66.54,6.62-1.16,10.02-2.02.28-1.84-.22-1.02-.99-1.33-1.12-.45-3.1-1-4.35-1.33.04-1.63-1.32-2.2.65-4.35,2.34-2.54,6.78-.67,7.35-4.32l-5.99-.37-6.02,8.05c.95,1.13,2.93.71,4,1Z"/>
    <path class="cls-1" d="M228.8,344c.23-.06,1.02-.91,1-1.33-2.21-.03-8.52-.28-5.61-3.3l14.96,1.95c-6.93-10.06-18.99-1.5-28.71-2.67-1.41-1.24,4.36-3.49,5.33-3.34-.55-1.29-1.91-.26-1.33-2.66l10.37-.63.32-2.04c-7.42-2.23-15.08,1.86-22.36,2.04-2.29.06-6.65.02-5.69-2.71,5.36,0,11.36-.34,16.47-1.92,1.08-.33,1.89.54,1.55-1.41l-20.02,2c-.14-.77.49-1.71.41-2.36-.16-1.23-2.85-1.6-.73-2.98,4.16,1.04,9.12,4.48,13,.99-5.18-6.83-17.53-2.71-24.7-1l.09-2.58,3.25-.76c1.53-1.93-10.94-.92-12.01-2-.94-.98.06-1.21.99-1.33,1.37-.17,8.42.62,8.34-1-1.3-1.36-4-2.06-3.99-4.34,3.95-.74,5.61,3.99,9.34,4l-3.68-4.66.68-2,7.35,6.65,1.39-2.04,4.28,2.05c.36-.37-2.89-5.72-.34-4.66.93.38,8.13,8.94,9.02,8.01-1.07-3.77-6.25-6.26-4.99-10.69,3.21,1.43,4.81,4.65,6.68,7.35l.33-2.66c3.87-.17,4.47,5.27,6.38,7.97.83,1.17,3.79,4.55,4.96,3.72l-3.34-4.66c1.32-1.45,3.22.52,3.35-2.35l5.99,6.68c-.33-2.2-1.27-4-1.35-6.33-.03-.97-.55-2.68,1.01-2.35,3.48,5.53,3.98,11.89,8.07,17.31,3.28,4.35,8.34,6.78,11.98,10.72,1.51.28.92-.66.99-1.65.28-3.9.01-15.7,1.72-18.32.54-.83,1.13-1.6,2.28-1.38l.68,6.67c1.08,1.23,5.18-5.81,7.34-4.67,1.61,1.68-5.87,8.36-6.97,10.05-.75,1.15-3.16,5.58-2.37,6.64l2.33-1.32c3.46,2.49-3.16,5.95-2.92,7.53,1.23,3.33,5.93,3.79,5.25,7.8-1.56,1.62-6.55-4.45-7.17-4.63-.75-.22-3.51-.47-4.4-.45-2.66.07-8.8,2.8-9.12-.92l2.66-1.34-18.03-.68v-2c2.72-.45,7.27.62,9.68,0Z"/>
    <path class="cls-1" d="M236.48,283.25v14.69c1.09.32,2.5-7.16,4-5.34l-1.32,11.34,2.34-3.33c1.17-.56,1.52,1.58,1.46,2.23-.5,5.35-6.4,12.21-1.47,17.79.19.09,1-1.57,1-1.67v-10.68l1.66-1,2.34,2,.69-5.34h1.98s-.66,9.34-.66,9.34c.19.26,4.58-3.51,6.01-1.66-.07,2.9-8.84,8.43-10.18,12.52s.29,7.86-.16,11.86l-1.92.56c-2.18-1.03-2.13-3.68-3.22-5.47-2.77-4.53-7.39-8.48-7.9-14.14-.09-.99-.41-1.94,1-1.66,3.32,2.76,2.9,9.48,7.68,10.01-.76-4.39-2.64-9.33-5.38-12.83-2.47-3.15-9.05-6.02-8.31-10.54l5.67,4.67c.5-.6-5.42-8.8-.99-7.36.44.14,2.61,5.21,4.33,5.36l-4.66-14.69,2.68,3.33c2.12,1.52.95-9.65,1.33-10.02h2Z"/>
    <path class="cls-1" d="M259.36,365.58c-1.09,4.69-2.53,12.19-8.2,10.81l-1.28-2.62c.21-.87,1.13-.08,2.52-2.17.2-.31,2.1-6.45,2.11-7.27.02-1.38-.88-1.77-3.04-3.01-6.49-1.36-12.37-6.32-18.99-4.64.81-3.74,5.56-4.9,8.82-4.51,2.52.3,6.91,2.52,8.94,3.24,11.52,4.04,19.5,7.33,29.23,7.19,2.68-.04,5.28,0,9.37-.63.53-.08.86.54.5.93-1.95,2.09-4.06,5.84-7.8,6.15-3.31.28-6.75-.57-7.42-.66-5.51-.7-8.03-2.11-13.22-3.73-.68-.21-1.39.21-1.55.9Z"/>
    <path class="cls-1" d="M197.09,364.7c-1.95-2.14-5.43-3.88-4.56-7.54,1.14-3.88,9.06-.53,9.9-1.15-.44-1.17-1.87-1.57-2.03-3.02-.61-5.59,7.03,1.28,8.03.36.42-8.74,19.07-4.11,15.71,2.67-2.19,4.41-6.24-.28-7.43-.51-.23-.04-4.25-.13-4.65-.11-1.12.06-4.12,3.11-6.29,2.63l3.01,4c1.5.45.99-2.27,2-3.34,4.19-4.42,16.03,3.57,14.92,8.21-.6,2.51-7.99,2.14-10.11,1.66s-3.3-2.93-4.24-3.1c-.86-.16-2.12,1.22-3.81,1.2-2.91-.04-7.24-1.58-10.44-1.96,1.59,1.75,3.28,3.37.64,5.65-3.95,3.41-8.34-4.18-13.32-2.31-.38-5.03,9.26-3.74,12.68-3.34Z"/>
    <path class="cls-1" d="M228.47,355.37l5.69,3.97c2.59,3.35,4.89,8.39-1.02,9.37-.22.29,2.81,3.66,3.18,4.49,1.38,3.03,2.15,12.14-3.01,9.71-3.31-1.56-1.4-8.02-4.85-8.19.93,2.04,1.99,4.45.99,6.66-1.26,2.79-3.3-.44-4.76-1.22-2.61-1.39-6.67-2.19-7.46-5.93-1.4-6.59,6.8-4.06,9.89-1.52-1.9-4.98,1.45-4.02,5.34-4.01l-8.59-7.78c-.78-2.3.94-4.53,3.25-4.91-2.13-2.21-2.71-4.33-2-7.33,4.09-.1,8.88,4.59,3.34,6.69Z"/>
    <path class="cls-1" d="M243.63,362.89c1.71,2.05-.06,4.08.49,5.16.38.75,1.81,1.04,2.4,1.83,4.95,6.62-.94,14.9-3.9,9.72-1.03-1.79-.33-4.42-1.41-5.94-1.71-2.39-8.92-2.58-.07-7.29-1.62-1.59-3.57-3.14-3.32-5.67.77-.75,5.1,1.34,5.8,2.19Z"/>
    <path class="cls-1" d="M216.41,378.67c-2.81,1.48-4.2-1.23-6.24-2.01-2.43-.93-7.91-.93-9.41-3.94-2.97-6,10.29-6.96,13.32-2.63.81,1.16,3.08,7.51,2.33,8.59Z"/>
    <path class="cls-1" d="M210.79,413.45c3.09-.68,2.36,11.83-3.03,10.41l-1.9-1.51c-.99-2.96,2.89-7,4.93-8.89Z"/>
  </g>
  <g>
    <path class="cls-1" d="M79.47,93.28c12.26,12.09,75.57,73.37,78.48,76.29.38.38.51.49.8.77.25.23.4.08.5-.01.07-.07.14-.14.21-.21.03-.03.07-.07.1-.1.14-.13.27-.28.41-.41.16-.15.3-.31.45-.45.29-.27.56-.57.85-.85.18-.18.35-.36.53-.53.16-.15.3-.32.47-.46.17-.15.31-.33.48-.48.07-.06.13-.14.2-.2.1-.09.19-.19.29-.28.03-.03.06-.07.1-.1.04-.04.08-.08.12-.12.11-.1.21-.21.32-.32.07-.06.15-.23,0-.39-.26-.26-.36-.36-.84-.83-3.62-3.62-67.33-69.19-76.37-78.2-.73-.77-1.73-.61-2.11-.3-.09.08.08-.09.05-.05-.03.04-.08.07-.12.1-.03.03.06-.05.03-.03-.11.09-.09.07-.84.79-.07.06-.13.13-.2.2-.16.16-.33.33-.5.5-.17.16-.34.33-.51.51-.19.19-.39.38-.58.58-.35.37-.96.97-1.24,1.24-.15.15-.6.57-.75.73-.14.14-.3.34-.45.5-.34.36-.43.88-.42.95.02.11.49-.96.41-.87-.35.4-.83,1.05.13,2.05Z"/>
    <g>
      <path class="cls-1" d="M304.05,315.97c.29.32.57.61.83.9l5.07-4.97c-.3-.27-.6-.54-.91-.82l-4.99,4.89Z"/>
      <path class="cls-1" d="M314.7,316.09c-1.07-.91-2.52-2.18-4.25-3.73l-5.11,5.01c1.9,2.06,3.03,3.26,3.87,4.22.11.13.25.25.33.33.1-.1.2-.2.3-.3.08-.08.15-.15.23-.23.04-.04.07-.07.11-.11.15-.15.3-.3.45-.45.17-.17.33-.33.5-.5.31-.31.62-.62.94-.94.2-.2.39-.39.58-.58.17-.17.34-.34.51-.51.18-.17.35-.36.53-.53.08-.07.15-.15.22-.22.11-.1.21-.21.31-.31.04-.03.07-.07.1-.1.05-.04.09-.09.13-.13.12-.11.23-.23.35-.35.07-.07.14-.14.22-.22-.08-.08-.17-.19-.33-.33Z"/>
      <path class="cls-1" d="M308.55,310.63c-.31-.28-.63-.58-.95-.87-.09-.08-.13-.12-.21-.15-.11-.03-.16.02-.23.09-.09.09-.15.15-.24.24-.04.04-.07.07-.11.11-.04.04-.06.06-.09.09-.09.09-.19.19-.29.29-.07.07-.14.14-.22.22-.18.18-.05.05-.24.24-.18.18-.37.37-.56.56-.21.21-.43.42-.64.64-.4.4-.36.35-.67.66-.16.16-.32.32-.49.49-.15.15-.3.3-.48.48-.04.04-.07.07-.11.11-.09.09-.13.13-.22.21-.1.1-.18.18-.16.28.02.11.12.22.22.33.26.29.51.56.76.83l4.95-4.85Z"/>
    </g>
    <path class="cls-1" d="M374.62,320.72c-.29-1.29-.7-2.62-1.23-3.94-1.11-2.79-2.7-5.28-4.36-7.08-1.28-1.38-2.61-2.35-3.81-2.73-.14-.04-.28-.08-.42-.11-.12-.03-.25-.05-.36-.07-1.43-.23-2.49.04-3.39.38-.02,0-.17.09-.19.09-2.73,1.05-9.76,5.16-12.65,7.32-4.51,3.37-10.41,7.91-14.2,10.82-.09.07-.18.14-.26.2-1.97,1.48-3.32,2.41-4.91,2.55-1.73.15-2.72-1.04-3.19-1.49-3.43-3.32-6.87-6.64-10.3-9.96-.14-.14-.28-.27-.43-.41-.04.05-.09.09-.13.13-.37.38-.73.76-1.1,1.14l-1.43,1.48c-.22.23-.45.46-.67.7-.27.28-.53.55-.8.83-.35.37-.71.73-1.06,1.1-.01.01-.02.02-.04.04-.02.03-.05.05-.08.08-.03.03-.06.06-.09.09.14.14.28.28.43.41,3.43,3.32,6.87,6.64,10.3,9.96.46.45,7.54,6.45,10,7.69,1.8.91,4.76,2.14,8.15,2.03.14,0,.29,0,.42-.01,5.48-.36,10.54-1.22,16.04-2.76,3.52-.98,11.15-3.47,13.77-4.65.05-.02.11-.05.16-.07,2.29-1.17,3.45-2.49,4.43-3.74.08-.11.27-.36.37-.52.09-.14.12-.2.19-.31.05-.07.08-.14.14-.25.02-.04.14-.26.16-.3.66-1.28.96-2.55,1.01-4.31.04-1.33-.13-2.8-.47-4.34ZM352.31,314.01l8.4-2.41c.1-.03.2.03.23.13.03.1-.03.2-.13.23l-8.4,2.41c-.1.03-.21-.03-.23-.13-.03-.1.03-.21.13-.23ZM348.68,317.09l12.61-3.61c.1-.03.2.03.23.13.02.05,0,.11-.02.15-.02.06-.06.11-.12.13l-12.61,3.61c-.1.03-.21-.03-.23-.13-.02-.05,0-.11.02-.15.02-.06.06-.11.12-.13ZM344.99,320.23l16.84-4.82c.1-.03.21.03.23.13.02.05,0,.11-.02.15-.02.06-.06.11-.12.13l-16.84,4.82c-.1.03-.21-.03-.23-.13-.02-.05,0-.11.02-.15.02-.06.06-.11.12-.13ZM339.93,323.76l22.45-6.43c.1-.03.2.03.23.13.02.05,0,.11-.02.15-.02.06-.06.11-.13.13l-22.45,6.43c-.1.03-.2-.03-.23-.13-.02-.05,0-.11.02-.15.02-.06.06-.11.13-.13ZM336.63,327.02c-.02-.05,0-.11.02-.15.02-.06.06-.11.13-.13l26.15-7.49c.1-.03.2.03.23.13.02.05,0,.11-.02.15-.02.06-.06.11-.13.13l-26.15,7.49c-.1.03-.21-.03-.23-.13ZM337.42,329.07c-.1.03-.21-.03-.23-.13-.02-.05,0-.11.02-.15.02-.06.06-.11.13-.13l26.15-7.49c.1-.03.21.03.23.13.02.05,0,.11-.02.15-.02.06-.06.11-.13.13l-26.15,7.48ZM337.97,331c-.1.03-.21-.03-.23-.13-.02-.05,0-.11.02-.15.02-.06.06-.11.13-.13l26.15-7.49c.1-.03.2.03.23.13.02.05,0,.11-.02.15-.02.06-.06.11-.13.13l-26.15,7.48ZM338.29,332.79c-.02-.05,0-.11.02-.15.02-.06.06-.11.13-.13l26.15-7.49c.1-.03.2.03.23.13.02.05,0,.11-.02.15-.02.06-.06.11-.13.13l-26.15,7.49c-.1.03-.21-.03-.23-.13ZM338.84,334.71c-.02-.05,0-.11.02-.15.02-.06.06-.11.13-.13l26.15-7.49c.1-.03.21.03.23.13.02.05,0,.11-.02.15-.02.06-.06.11-.13.13l-26.15,7.48c-.1.03-.21-.03-.23-.13ZM339.39,336.64c-.02-.05,0-.11.02-.15.02-.06.06-.11.13-.13l26.15-7.49c.1-.03.21.03.23.13.02.05,0,.11-.02.15-.02.06-.06.11-.13.13l-26.15,7.48c-.1.03-.21-.03-.23-.13ZM366.32,331.2l-26.15,7.49c-.1.03-.21-.03-.23-.13-.02-.05,0-.11.02-.15.02-.06.06-.11.13-.13l26.15-7.48c.1-.03.21.03.23.13.02.05,0,.11-.02.15-.02.06-.06.11-.13.13Z"/>
    <path class="cls-1" d="M164.26,166.3l-4.64,4.54c47.82,47.86,95.59,95.76,143.34,143.68.08-.08.16-.16.24-.24.06-.06.12-.12.18-.18.03-.03.06-.06.09-.09.13-.13.27-.27.4-.4.14-.14.28-.28.41-.41.27-.3.57-.57.85-.85.18-.18.36-.36.54-.54.16-.16.31-.31.47-.47.15-.15.31-.31.46-.46.06-.06.12-.12.18-.18.08-.08.16-.16.24-.24.03-.03.05-.05.08-.08.03-.03.06-.06.09-.09.08-.08.15-.15.23-.23.04-.04.09-.09.13-.13-47.77-47.87-95.52-95.76-143.3-143.62Z"/>
  </g>
  <g>
    <path class="cls-1" d="M360.18,93.28c-12.26,12.09-75.57,73.37-78.48,76.29-.38.38-.51.49-.8.77-.25.23-.4.08-.5-.01-.07-.07-.14-.14-.21-.21-.03-.03-.07-.07-.1-.1-.14-.13-.27-.28-.41-.41-.16-.15-.3-.31-.45-.45-.29-.27-.56-.57-.85-.85-.18-.18-.35-.36-.53-.53-.16-.15-.3-.32-.47-.46-.17-.15-.31-.33-.48-.48-.07-.06-.13-.14-.2-.2-.1-.09-.19-.19-.29-.28-.03-.03-.06-.07-.1-.1-.04-.04-.08-.08-.12-.12-.11-.1-.21-.21-.32-.32-.07-.06-.15-.23,0-.39.26-.26.36-.36.84-.83,3.62-3.62,67.33-69.19,76.37-78.2.73-.77,1.73-.61,2.11-.3.09.08-.08-.09-.05-.05.03.04.08.07.12.1.03.03-.06-.05-.03-.03.11.09.09.07.84.79.07.06.13.13.2.2.16.16.33.33.5.5.17.16.34.33.51.51.19.19.39.38.58.58.35.37.96.97,1.24,1.24.15.15.6.57.75.73.14.14.3.34.45.5.34.36.43.88.42.95-.02.11-.49-.96-.41-.87.35.4.83,1.05-.13,2.05Z"/>
    <g>
      <path class="cls-1" d="M135.6,315.97c-.29.32-.57.61-.83.9l-5.07-4.97c.3-.27.6-.54.91-.82l4.99,4.89Z"/>
      <path class="cls-1" d="M124.95,316.09c1.07-.91,2.52-2.18,4.25-3.73l5.11,5.01c-1.9,2.06-3.03,3.26-3.87,4.22-.11.13-.25.25-.33.33-.1-.1-.2-.2-.3-.3-.08-.08-.15-.15-.23-.23-.04-.04-.07-.07-.11-.11-.15-.15-.3-.3-.45-.45-.17-.17-.33-.33-.5-.5-.31-.31-.62-.62-.94-.94-.2-.2-.39-.39-.58-.58-.17-.17-.34-.34-.51-.51-.18-.17-.35-.36-.53-.53-.08-.07-.15-.15-.22-.22-.11-.1-.21-.21-.31-.31-.04-.03-.07-.07-.1-.1-.05-.04-.09-.09-.13-.13-.12-.11-.23-.23-.35-.35-.07-.07-.14-.14-.22-.22.08-.08.17-.19.33-.33Z"/>
      <path class="cls-1" d="M131.1,310.63c.31-.28.63-.58.95-.87.09-.08.13-.12.21-.15.11-.03.16.02.23.09.09.09.15.15.24.24.04.04.07.07.11.11.04.04.06.06.09.09.09.09.19.19.29.29.07.07.14.14.22.22.18.18.05.05.24.24.18.18.37.37.56.56.21.21.43.42.64.64.4.4.36.35.67.66.16.16.32.32.49.49.15.15.3.3.48.48.04.04.07.07.11.11.09.09.13.13.22.21.1.1.18.18.16.28-.02.11-.12.22-.22.33-.26.29-.51.56-.76.83l-4.95-4.85Z"/>
    </g>
    <path class="cls-1" d="M64.55,325.06c.05,1.76.35,3.03,1.01,4.31.02.04.13.26.16.3.07.11.1.18.14.25.07.11.1.17.19.31.1.16.29.42.37.52.98,1.25,2.15,2.57,4.43,3.74.05.03.11.05.16.07,2.62,1.18,10.24,3.67,13.77,4.65,5.5,1.53,10.56,2.39,16.04,2.76.14,0,.29,0,.42.01,3.4.11,6.35-1.12,8.15-2.03,2.46-1.24,9.54-7.24,10-7.69,3.43-3.32,6.87-6.64,10.3-9.96.14-.14.28-.28.43-.41-.03-.03-.06-.06-.09-.09-.03-.03-.05-.05-.08-.08-.01-.01-.02-.02-.04-.04-.35-.37-.71-.73-1.06-1.1-.27-.28-.53-.55-.8-.83-.22-.23-.45-.46-.67-.7l-1.43-1.48c-.37-.38-.73-.76-1.1-1.14-.04-.04-.09-.09-.13-.13-.14.14-.28.28-.43.41-3.43,3.32-6.87,6.64-10.3,9.96-.46.45-1.46,1.64-3.19,1.49-1.58-.14-2.93-1.07-4.91-2.55-.09-.07-.18-.13-.26-.2-3.79-2.91-9.69-7.45-14.2-10.82-2.89-2.16-9.92-6.27-12.65-7.32-.02,0-.17-.09-.19-.09-.9-.35-1.96-.61-3.39-.38-.12.02-.24.04-.36.07-.14.03-.28.06-.42.11-1.2.38-2.53,1.35-3.81,2.73-1.66,1.8-3.25,4.29-4.36,7.08-.52,1.31-.94,2.64-1.23,3.94-.34,1.53-.51,3.01-.47,4.34ZM87.47,314.25c-.03.1-.13.16-.23.13l-8.4-2.41c-.1-.03-.16-.13-.13-.23.03-.1.13-.16.23-.13l8.4,2.41c.1.03.16.13.13.23ZM91.1,317.22s.04.1.02.15c-.03.1-.13.16-.23.13l-12.61-3.61c-.06-.02-.11-.07-.12-.13-.03-.04-.04-.1-.02-.15.03-.1.13-.16.23-.13l12.61,3.61c.06.02.11.07.12.13ZM94.78,320.36s.04.1.02.15c-.03.1-.13.16-.23.13l-16.84-4.82c-.06-.02-.11-.07-.12-.13-.03-.04-.04-.1-.02-.15.03-.1.13-.16.23-.13l16.84,4.82c.06.02.11.07.12.13ZM99.84,323.89s.04.1.02.15c-.03.1-.13.16-.23.13l-22.45-6.43c-.06-.02-.11-.07-.13-.13-.03-.04-.04-.1-.02-.15.03-.1.13-.16.23-.13l22.45,6.43c.06.02.11.07.13.13ZM102.78,327.15l-26.15-7.49c-.06-.02-.11-.07-.13-.13-.03-.04-.04-.1-.02-.15.03-.1.13-.16.23-.13l26.15,7.49c.06.02.11.07.13.13.03.04.04.1.02.15-.03.1-.13.16-.23.13ZM76.08,321.59c-.06-.02-.11-.07-.13-.13-.03-.04-.04-.1-.02-.15.03-.1.13-.16.23-.13l26.15,7.49c.06.02.11.07.13.13.03.04.04.1.02.15-.03.1-.13.16-.23.13l-26.15-7.48ZM75.53,323.51c-.06-.02-.11-.07-.13-.13-.03-.04-.04-.1-.02-.15.03-.1.13-.16.23-.13l26.15,7.49c.06.02.11.07.13.13.03.04.04.1.02.15-.03.1-.13.16-.23.13l-26.15-7.48ZM101.13,332.92l-26.15-7.49c-.06-.02-.11-.07-.13-.13-.03-.04-.04-.1-.02-.15.03-.1.13-.16.23-.13l26.15,7.49c.06.02.11.07.13.13.03.04.04.1.02.15-.03.1-.13.16-.23.13ZM100.58,334.84l-26.15-7.48c-.06-.02-.11-.07-.13-.13-.03-.04-.04-.1-.02-.15.03-.1.13-.16.23-.13l26.15,7.49c.06.02.11.07.13.13.03.04.04.1.02.15-.03.1-.13.16-.23.13ZM100.03,336.77l-26.15-7.48c-.06-.02-.11-.07-.13-.13-.03-.04-.04-.1-.02-.15.03-.1.13-.16.23-.13l26.15,7.49c.06.02.11.07.13.13.03.04.04.1.02.15-.03.1-.13.16-.23.13ZM73.2,331.08s-.04-.1-.02-.15c.03-.1.13-.16.23-.13l26.15,7.48c.06.02.11.07.13.13.03.04.04.1.02.15-.03.1-.13.16-.23.13l-26.15-7.49c-.06-.02-.11-.07-.13-.13Z"/>
    <path class="cls-1" d="M275.39,166.3l4.64,4.54c-47.82,47.86-95.59,95.76-143.34,143.68-.08-.08-.16-.16-.24-.24-.06-.06-.12-.12-.18-.18-.03-.03-.06-.06-.09-.09-.13-.13-.27-.27-.4-.4-.14-.14-.28-.28-.41-.41-.27-.3-.57-.57-.85-.85-.18-.18-.36-.36-.54-.54-.16-.16-.31-.31-.47-.47-.15-.15-.31-.31-.46-.46-.06-.06-.12-.12-.18-.18-.08-.08-.16-.16-.24-.24-.03-.03-.05-.05-.08-.08-.03-.03-.06-.06-.09-.09-.08-.08-.15-.15-.23-.23-.04-.04-.09-.09-.13-.13,47.77-47.87,95.52-95.76,143.3-143.62Z"/>
  </g>
  <path class="cls-1" d="M219.82,125.6c-37.51,0-66.2-26.31-66.2-62.63S182.31,0,219.82,0s66.2,26.65,66.2,62.97-28.69,62.63-66.2,62.63ZM264.8,62.97c0-28.35-9.17-59.24-44.98-59.24s-44.98,30.89-44.98,59.24,9.17,58.9,44.98,58.9,44.98-30.55,44.98-58.9Z"/>
  <path class="cls-1" d="M114.06,254.67c-7.98,19.18-25.8,29.02-48.54,29.02-36.32,0-65.52-24.95-65.52-62.12s28.86-63.48,65.52-63.48c17.65,0,25.46,6.11,33.27,6.11,3.56,0,8.15-1.19,10.35-4.58l1.87,1.02c-.51,2.72-.85,7.98-.85,13.75s0,11.54.34,23.93h-3.73c-1.87-10.69-8.83-36.49-40.91-36.49-35.14,0-44.64,30.89-44.64,59.75s9,58.39,45.49,58.39c20.54,0,37.68-9.51,44.13-26.65l3.22,1.36Z"/>
  <path class="cls-1" d="M428.96,254.67c-7.98,19.18-25.8,29.02-48.54,29.02-36.32,0-65.52-24.95-65.52-62.12s28.86-63.48,65.52-63.48c17.65,0,25.46,6.11,33.27,6.11,3.56,0,8.15-1.19,10.35-4.58l1.87,1.02c-.51,2.72-.85,7.98-.85,13.75s0,11.54.34,23.93h-3.73c-1.87-10.69-8.83-36.49-40.91-36.49-35.14,0-44.64,30.89-44.64,59.75s9,58.39,45.49,58.39c20.54,0,37.68-9.51,44.13-26.65l3.22,1.36Z"/>
</svg>