<?xml version="1.0" encoding="UTF-8"?>
<svg id="Layer_1" data-name="Layer 1" xmlns="http://www.w3.org/2000/svg" viewBox="0 0 2708 124.91">
  <path d="M65.83,124.91C28.53,124.91,0,98.74,0,62.62S28.53,0,65.83,0s65.83,26.5,65.83,62.62-28.53,62.28-65.83,62.28ZM110.56,62.62c0-28.19-9.11-58.91-44.73-58.91S21.1,34.43,21.1,62.62s9.12,58.57,44.73,58.57,44.73-30.38,44.73-58.57Z"/>
  <path d="M286.1,96.04c-7.93,19.07-25.66,28.86-48.27,28.86-36.12,0-65.15-24.81-65.15-61.78S201.36,0,237.82,0c17.55,0,25.32,6.08,33.08,6.08,3.54,0,8.1-1.18,10.3-4.56l1.86,1.01c-.51,2.7-.84,7.93-.84,13.67s0,11.48.34,23.8h-3.71c-1.86-10.63-8.78-36.29-40.68-36.29-34.94,0-44.39,30.72-44.39,59.42s8.95,58.06,45.24,58.06c20.42,0,37.47-9.45,43.89-26.5l3.21,1.35Z"/>
  <path d="M390.74,124.91c-37.3,0-65.83-26.16-65.83-62.28S353.44,0,390.74,0s65.83,26.5,65.83,62.62-28.53,62.28-65.83,62.28ZM435.47,62.62c0-28.19-9.11-58.91-44.73-58.91s-44.73,30.72-44.73,58.91,9.12,58.57,44.73,58.57,44.73-30.38,44.73-58.57Z"/>
  <path d="M602.07,124.91c-11.14-16.54-69.21-92.84-86.42-108.03-.34,7.6-.51,20.76-.51,45.57,0,50.3,5.4,55.87,15.7,55.87h2.7v3.71c-9.62-.34-14.52-.51-20.25-.51s-10.97.17-20.59.51v-3.71h2.7c10.3,0,15.7-5.57,15.7-55.87s-.68-55.87-12.32-55.87h-6.08v-3.71c13,.34,17.39.51,26.5.51,3.04,0,11.48-.17,13.67-.34,10.8,17.89,58.4,76.46,73.59,94.02v-34.6c0-50.3-5.4-55.87-15.7-55.87h-2.7v-3.71c9.62.34,14.52.51,20.25.51s10.97-.17,20.59-.51v3.71h-2.7c-10.3,0-15.7,5.57-15.7,55.87v62.45h-8.44Z"/>
  <path d="M690,121.53c-9.12,0-14.18.17-27.18.51v-3.71h6.08c10.3,0,12.32-4.73,12.32-55.87s-2.03-55.87-12.32-55.87h-6.08v-3.71c13,.34,18.06.51,27.18.51h70.05v31.9h-3.71c-1.35-15.7-9.79-28.19-37.64-28.19h-7.43c-11.14,0-12.15,3.38-12.32,50.13h5.57c13.84,0,26.16-3.38,27.01-21.44h3.71c-.84,11.14-1.01,16.88-1.01,22.45,0,6.08.17,11.82,1.01,24.14h-3.71c-.84-18.06-13.17-21.44-27.01-21.44h-5.57v1.52c0,51.99,1.18,55.36,12.32,55.36h10.97c27.68,0,38.48-11.31,40.34-29.37h3.71c-.51,8.61-.84,17.55-.84,22.28,0,4.39.51,8.78.84,10.8h-76.29Z"/>
  <path d="M831.1,121.53c-9.12,0-14.18.17-27.18.51v-3.71h6.08c10.3,0,12.32-4.73,12.32-55.87s-2.03-55.87-12.32-55.87h-6.08v-3.71c13,.34,18.06.51,27.18.51h70.05v31.9h-3.71c-1.35-15.7-9.79-28.19-37.64-28.19h-7.43c-11.14,0-12.15,3.38-12.32,50.13h5.57c13.84,0,26.16-3.38,27.01-21.44h3.71c-.84,11.14-1.01,16.88-1.01,22.45,0,6.08.17,11.82,1.01,24.14h-3.71c-.84-18.06-13.17-21.44-27.01-21.44h-5.57v1.52c0,51.99,1.18,55.36,12.32,55.36h10.97c27.68,0,38.48-11.31,40.34-29.37h3.71c-.51,8.61-.84,17.55-.84,22.28,0,4.39.51,8.78.84,10.8h-76.29Z"/>
  <path d="M1122.09,96.04c-7.93,19.07-25.66,28.86-48.27,28.86-36.12,0-65.15-24.81-65.15-61.78S1037.36,0,1073.82,0c17.55,0,25.32,6.08,33.08,6.08,3.54,0,8.1-1.18,10.3-4.56l1.86,1.01c-.51,2.7-.84,7.93-.84,13.67s0,11.48.34,23.8h-3.71c-1.86-10.63-8.78-36.29-40.68-36.29-34.94,0-44.39,30.72-44.39,59.42s8.95,58.06,45.24,58.06c20.42,0,37.47-9.45,43.89-26.5l3.21,1.35Z"/>
  <path d="M1226.74,124.91c-37.3,0-65.83-26.16-65.83-62.28S1189.44,0,1226.74,0s65.83,26.5,65.83,62.62-28.53,62.28-65.83,62.28ZM1271.47,62.62c0-28.19-9.11-58.91-44.73-58.91s-44.73,30.72-44.73,58.91,9.11,58.57,44.73,58.57,44.73-30.38,44.73-58.57Z"/>
  <path d="M1440.43,40.51c0-24.14-5.4-33.93-15.7-33.93h-2.7v-3.71c9.62.34,14.52.51,20.25.51s10.97-.17,20.59-.51v3.71h-2.7c-10.3,0-15.7,9.79-15.7,33.93v34.43c0,18.06-4.39,31.9-13.84,40-7.6,6.58-19.24,9.96-35.95,9.96-21.94,0-38.15-5.91-45.74-20.42-4.05-7.76-5.57-17.89-5.57-30.89,0-9.79.84-22.96.84-36.96,0-22.79-2.19-30.05-12.32-30.05h-6.08v-3.71c13,.34,18.06.51,27.18.51s14.35-.17,27.34-.51v3.71h-6.08c-10.3,0-12.32,4.9-12.32,55.2,0,20.59.34,35.11,5.74,44.9,4.9,8.78,14.18,14.18,31.06,14.18,11.65,0,23.12-2.53,31.06-10.63,7.76-8.1,10.63-19.75,10.63-36.46v-33.25Z"/>
  <path d="M1604.49,124.91c-11.14-16.54-69.21-92.84-86.42-108.03-.34,7.6-.51,20.76-.51,45.57,0,50.3,5.4,55.87,15.7,55.87h2.7v3.71c-9.62-.34-14.52-.51-20.25-.51s-10.97.17-20.59.51v-3.71h2.7c10.3,0,15.7-5.57,15.7-55.87s-.68-55.87-12.32-55.87h-6.08v-3.71c13,.34,17.39.51,26.5.51,3.04,0,11.48-.17,13.67-.34,10.8,17.89,58.4,76.46,73.59,94.02v-34.6c0-50.3-5.4-55.87-15.7-55.87h-2.7v-3.71c9.62.34,14.52.51,20.25.51s10.97-.17,20.59-.51v3.71h-2.7c-10.3,0-15.7,5.57-15.7,55.87v62.45h-8.44Z"/>
  <path d="M1744.41,122.04c-13-.34-18.23-.51-27.34-.51s-14.18.17-27.18.51v-3.71h6.08c10.3,0,12.32-4.73,12.32-55.87s-1.69-55.03-11.48-55.03c-14.85,0-27.01,13.33-28.86,31.4h-3.71c.51-6.58.84-12.49.84-19.41s-.51-14.52-.84-16.54l2.03-1.52c4.9,2.03,10.63,2.03,50.98,2.03s45.91,0,50.81-2.03l2.03,1.52c-.34,2.03-.84,9.96-.84,16.54,0,6.92.34,12.83.84,19.41h-3.71c-1.86-18.06-14.01-31.4-28.86-31.4-9.62,0-11.48,1.86-11.48,55.03s2.03,55.87,12.32,55.87h6.08v3.71Z"/>
  <path d="M1918.26,113.94c-2.03,6.41-4.73,9.96-13.33,9.96-20.25,0-25.99-19.75-30.21-35.11-5.06-18.4-6.92-24.31-24.98-24.64l-8.95-.17c0,49.62,2.03,54.35,12.32,54.35h6.08v3.71c-13-.34-18.23-.51-27.34-.51s-14.18.17-27.18.51v-3.71h6.08c10.3,0,12.32-4.73,12.32-55.87s-2.03-55.87-12.32-55.87h-6.08v-3.71c13,.34,18.57.51,25.49.51,11.82,0,22.62-.51,28.53-.51,26.84,0,44.56,10.46,44.56,31.06s-17.89,27.68-40,29.54c24.47,5.06,33.42,25.15,36.46,40,1.18,5.57,2.36,16.37,9.45,16.37,4.05,0,5.57-3.71,7.26-6.75l1.86.84ZM1857.32,60.6c17.72,0,26.5-6.75,26.5-27.17,0-18.23-7.09-26.84-27.18-26.84-14.18,0-15.87,4.22-15.87,54.01h16.54Z"/>
  <path d="M2024.76,122.04c-13-.34-18.23-.51-27.34-.51s-14.18.17-27.18.51v-3.71h6.08c8.61,0,12.49-4.05,12.49-35.11,0-5.06,0-8.61-.17-12.49-3.21-7.09-12.66-22.62-22.11-36.63-17.39-25.32-22.45-27.51-32.24-27.51h-2.03v-3.71c11.82.34,19.07.51,28.19.51s18.4-.34,28.36-.51v3.71h-4.39c-7.09,0-9.12,1.69-9.12,4.73s2.36,7.09,4.9,10.97l24.47,38.32,18.4-25.83c4.9-6.92,8.78-13.67,8.78-19.07s-2.87-9.12-11.65-9.12h-2.19v-3.71c4.89.17,18.4.51,23.29.51,6.75,0,17.72-.34,22.45-.51v3.71c-9.45,0-18.74,4.22-36.63,29.71l-19.92,28.19c-.67,4.73-.67,13-.67,18.74,0,31.73,3.54,35.11,12.15,35.11h6.08v3.71Z"/>
  <path d="M2265.78,96.04c-7.93,19.07-25.66,28.86-48.27,28.86-36.12,0-65.15-24.81-65.15-61.78s28.7-63.13,65.15-63.13c17.55,0,25.32,6.08,33.08,6.08,3.54,0,8.1-1.18,10.3-4.56l1.86,1.01c-.51,2.7-.84,7.93-.84,13.67s0,11.48.34,23.8h-3.71c-1.86-10.63-8.78-36.29-40.68-36.29-34.94,0-44.39,30.72-44.39,59.42s8.95,58.06,45.24,58.06c20.42,0,37.47-9.45,43.89-26.5l3.21,1.35Z"/>
  <path d="M2329.92,121.53c-9.12,0-14.18.17-27.18.51v-3.71h6.08c10.3,0,12.32-4.73,12.32-55.87s-2.03-55.87-12.32-55.87h-6.08v-3.71c13,.34,18.06.51,27.18.51s16.88-.17,29.88-.51v3.71h-8.61c-10.3,0-12.32,4.73-12.32,55.87s1.18,55.36,12.32,55.36h10.97c32.58,0,40.85-12.83,42.03-30.21h3.71c0,11.14-2.19,17.55-2.19,24.64,0,4.39.17,7.26.51,9.28h-76.29Z"/>
  <path d="M2549.85,40.51c0-24.14-5.4-33.93-15.7-33.93h-2.7v-3.71c9.62.34,14.52.51,20.25.51s10.97-.17,20.59-.51v3.71h-2.7c-10.3,0-15.7,9.79-15.7,33.93v34.43c0,18.06-4.39,31.9-13.84,40-7.6,6.58-19.24,9.96-35.95,9.96-21.94,0-38.15-5.91-45.74-20.42-4.05-7.76-5.57-17.89-5.57-30.89,0-9.79.84-22.96.84-36.96,0-22.79-2.19-30.05-12.32-30.05h-6.08v-3.71c13,.34,18.06.51,27.18.51s14.35-.17,27.34-.51v3.71h-6.08c-10.3,0-12.32,4.9-12.32,55.2,0,20.59.34,35.11,5.74,44.9,4.9,8.78,14.18,14.18,31.06,14.18,11.65,0,23.12-2.53,31.06-10.63,7.76-8.1,10.63-19.75,10.63-36.46v-33.25Z"/>
  <path d="M2604.36,118.32h6.08c10.3,0,12.32-4.73,12.32-55.87s-2.03-55.87-12.32-55.87h-6.08v-3.71c13,.34,18.74.51,25.49.51,11.82,0,22.62-.51,28.19-.51,27.18,0,42.71,11.65,42.71,29.37,0,16.54-13.5,24.47-31.06,27.18,24.14,2.53,38.32,12.66,38.32,31.56,0,20.42-16.54,31.06-47.09,31.06-6.58,0-19.75-.51-31.23-.51-6.58,0-12.32.17-25.32.51v-3.71ZM2657.02,57.9c13.67,0,24.31-3.71,24.31-24.81,0-14.18-4.9-26.5-24.31-26.5-14.85,0-16.54,7.09-16.54,51.31h16.54ZM2656.69,118.32c21.77,0,31.06-8.44,31.06-28.69,0-22.11-10.8-28.02-30.21-28.02h-17.05c0,53,2.03,56.71,12.32,56.71h3.88Z"/>
</svg>