<?xml version="1.0" encoding="UTF-8"?>
<svg id="Layer_1" data-name="Layer 1" xmlns="http://www.w3.org/2000/svg" viewBox="0 0 785.02 790.9">
  <defs>
    <style>
      .cls-1 {
        fill: #ededed;
      }
    </style>
  </defs>
  <g>
    <g>
      <path class="cls-1" d="M359.29,574.76c-.02.7.05,1.34-.32,1.99s-6.55,3.7-7.52,3.89c-6.69,1.34-4.07-6.6,1.16-6.56l-2.37-2.68c-1.4-4.8,7.95-5.62,8.3-6.07.81-1.03-1.11-3.88,3.95-5.73,4.67-1.71,8.18.2,12.54,1.76,1.17,1.49-1.32,4.67-2.98,4.8l-.1.88c.46,2.38,2.24,3,3.73,4.35,1.14,1.03.94,1.04,2.3,2.04-.33-1.89-5.1-6.63.48-7.86,9.34-2.06,15.54,7.62,7.99,13.11-2.97-1.76-5.71-3.24-8.47-5.25.96,5.5-6.48,2.7-10.02,3.34l.68,6.68c1.15-.31.6-2.47,1.17-3.83,1.71-4.1,11.96-2.09,13.8,1.21.48.87.9,3.81,1.08,3.95.1.07,1.11-.74,2.44-.19,3.76,1.56,5.29,7.2,5.56,10.88,2.15-2.03,1.91-3.46,5.33-2,.9-4.54,3-11.73,7.67-5.33l1.01,5.99c-.03-1.91,2.49-2.85,3.01-4.01s.1-2.65.45-3.21c.43-.7,4.63-.68,3.22-4.78-2.45,1.06-3.41.02-5.33-1.34,2.66,12.25-6.56,4.06-3.02,0,.88-1.01,2.68-.01,2.34-1.65-1.15-.89-2.47-1.86-3.33-3.01-.7,3.29-.17,7.47-4.67,4.01.32,2.28-.86,10.73-4.65,9.04-.36-.16-4.44-5.12-4.56-5.5-.33-1.1-.37-6.83.16-7.58,2.38-3.42,7.57,2.9,9.05,4.04-.9-6.43-11.11-5.83-7.91-12.59,8.11-1.56,9.09,3.92,12.58,8.58,1.83-8.55,3.75-3.52,9.34-1.34.86-1.9-2.8-7.41-.28-7.98,3.28.45,5.36,2.93,6.31,5.97l1.96-5.71c3.03-2.05,6.29,3.96,4.1,6.77-1.27,1.63-4.86,1.1-4.75-1.06-1.04-.64-2.32,4.64,2.02,2.94,2.45,2.32,3.27,9.57-1.7,7.76l-.99-5.36c-2.1,2.04-3.65,1.11-5.99,0v2.66l2.56.09.77,3.92,3.31-.66c1.26,2.83.48,7.6-3.31,7.34l-.68-4c-1.17.04-.79,1.72-1.99,2.34-.78.4-1.81.32-2.68.33,1.91,4.7-.98,9.16-6,9.34v-4.67l-3.3,3.05-3.05-1.7c-1.49,1.02-.16,2.23-.45,4.14-.43,2.83-3.7,7.5-6.88,7.23-4.01-.34.69-6.94-.35-9.38l-3.12,3.27-2.25-.91-2.63-13.04c-.15,1.54-1.15,2.56-2.67,2.68,1.76,3.72,3.41,6.12,1.17,10.18-1.45,2.63-4.01,5.53-7.19,4.49v-11.02c0-.5,2.63-1.3,2.67-2.33l-6-.67c.76,4.8-2.94,8.88-7.35,10.02l2.31,2c1.69-2.2,3.1-4.89,6.36-4.68.45,2.45,1.35,6.28-.2,8.48s-7.38,4.83-7.82.21h-.98c-4.97,8.06-9.05-5.31-2.34-6.02-4.75-8.04-.68-12.21,8.01-11.34l-.99-2.65c-1.99,2.93-5.38.43-6.35.93-1.29.67-3.97,6.09-7.34,5.74l.46,1.32c3.2.39,5.39,3.1,3.18,5.98-1.89,2.45-4.13-.28-2.34,6.68-2.13.42-3.97,1.37-5.35-.93-1.82-3.05.17-3.86.67-6.08.27-1.18-.19-2.61.15-3.85.53-1.88,2.99-1.04,2.55-3.12l-2.59.07-2.05,5.63c-2.34,1.45-3.42-1.64-2.37-3.71.52-1.04,2.76-1.47,2.97-2.39.15-.65-1.08-2.16-1.26-3.31-.45-2.83.53-4.36,1.41-6.86,4.73-1.82,3.5,4.94,7.91,4.55.48-2.67-2.42-2.43-3.49-4.85-.47-1.05-.62-2.02-.51-3.16,3.66.54,6.62-1.16,10.02-2.02.28-1.84-.22-1.02-.99-1.33-1.12-.45-3.1-1-4.35-1.33.04-1.63-1.32-2.2.65-4.35,2.34-2.54,6.78-.67,7.35-4.32l-5.99-.37-6.02,8.05c.95,1.13,2.93.71,4,1l-.02-.03Z"/>
      <path class="cls-1" d="M402.35,530.69c.23-.06,1.02-.91,1-1.33-2.21-.03-8.52-.28-5.61-3.3l14.96,1.95c-6.93-10.06-18.99-1.5-28.71-2.67-1.41-1.24,4.36-3.49,5.33-3.34-.55-1.29-1.91-.26-1.33-2.66l10.37-.63.32-2.04c-7.42-2.23-15.08,1.86-22.36,2.04-2.29.06-6.65.02-5.69-2.71,5.36,0,11.36-.34,16.47-1.92,1.08-.33,1.89.54,1.55-1.41l-20.02,2c-.14-.77.49-1.71.41-2.36-.16-1.23-2.85-1.6-.73-2.98,4.16,1.04,9.12,4.48,13,.99-5.18-6.83-17.53-2.71-24.7-1l.09-2.58,3.25-.76c1.53-1.93-10.94-.92-12.01-2-.94-.98.06-1.21.99-1.33,1.37-.17,8.42.62,8.34-1-1.3-1.36-4-2.06-3.99-4.34,3.95-.74,5.61,3.99,9.34,4l-3.68-4.66.68-2,7.35,6.65,1.39-2.04,4.28,2.05c.36-.37-2.89-5.72-.34-4.66.93.38,8.13,8.94,9.02,8.01-1.07-3.77-6.25-6.26-4.99-10.69,3.21,1.43,4.81,4.65,6.68,7.35l.33-2.66c3.87-.17,4.47,5.27,6.38,7.97.83,1.17,3.79,4.55,4.96,3.72l-3.34-4.66c1.32-1.45,3.22.52,3.35-2.35l5.99,6.68c-.33-2.2-1.27-4-1.35-6.33-.03-.97-.55-2.68,1.01-2.35,3.48,5.53,3.98,11.89,8.07,17.31,3.28,4.35,8.34,6.78,11.98,10.72,1.51.28.92-.66.99-1.65.28-3.9.01-15.7,1.72-18.32.54-.83,1.13-1.6,2.28-1.38l.68,6.67c1.08,1.23,5.18-5.81,7.34-4.67,1.61,1.68-5.87,8.36-6.97,10.05-.75,1.15-3.16,5.58-2.37,6.64l2.33-1.32c3.46,2.49-3.16,5.95-2.92,7.53,1.23,3.33,5.93,3.79,5.25,7.8-1.56,1.62-6.55-4.45-7.17-4.63-.75-.22-3.51-.47-4.4-.45-2.66.07-8.8,2.8-9.12-.92l2.66-1.34-18.03-.68v-2c2.72-.45,7.27.62,9.68,0h.01Z"/>
      <path class="cls-1" d="M410.03,469.94v14.69c1.09.32,2.5-7.16,4-5.34l-1.32,11.34,2.34-3.33c1.17-.56,1.52,1.58,1.46,2.23-.5,5.35-6.4,12.21-1.47,17.79.19.09,1-1.57,1-1.67v-10.68l1.66-1,2.34,2,.69-5.34h1.98l-.66,9.34c.19.26,4.58-3.51,6.01-1.66-.07,2.9-8.84,8.43-10.18,12.52-1.34,4.09.29,7.86-.16,11.86l-1.92.56c-2.18-1.03-2.13-3.68-3.22-5.47-2.77-4.53-7.39-8.48-7.9-14.14-.09-.99-.41-1.94,1-1.66,3.32,2.76,2.9,9.48,7.68,10.01-.76-4.39-2.64-9.33-5.38-12.83-2.47-3.15-9.05-6.02-8.31-10.54l5.67,4.67c.5-.6-5.42-8.8-.99-7.36.44.14,2.61,5.21,4.33,5.36l-4.66-14.69,2.68,3.33c2.12,1.52.95-9.65,1.33-10.02h2v.03Z"/>
      <path class="cls-1" d="M432.91,552.27c-1.09,4.69-2.53,12.19-8.2,10.81l-1.28-2.62c.21-.87,1.13-.08,2.52-2.17.2-.31,2.1-6.45,2.11-7.27.02-1.38-.88-1.77-3.04-3.01-6.49-1.36-12.37-6.32-18.99-4.64.81-3.74,5.56-4.9,8.82-4.51,2.52.3,6.91,2.52,8.94,3.24,11.52,4.04,19.5,7.33,29.23,7.19,2.68-.04,5.28,0,9.37-.63.53-.08.86.54.5.93-1.95,2.09-4.06,5.84-7.8,6.15-3.31.28-6.75-.57-7.42-.66-5.51-.7-8.03-2.11-13.22-3.73-.68-.21-1.39.21-1.55.9v.02Z"/>
      <path class="cls-1" d="M370.64,551.39c-1.95-2.14-5.43-3.88-4.56-7.54,1.14-3.88,9.06-.53,9.9-1.15-.44-1.17-1.87-1.57-2.03-3.02-.61-5.59,7.03,1.28,8.03.36.42-8.74,19.07-4.11,15.71,2.67-2.19,4.41-6.24-.28-7.43-.51-.23-.04-4.25-.13-4.65-.11-1.12.06-4.12,3.11-6.29,2.63l3.01,4c1.5.45.99-2.27,2-3.34,4.19-4.42,16.03,3.57,14.92,8.21-.6,2.51-7.99,2.14-10.11,1.66s-3.3-2.93-4.24-3.1c-.86-.16-2.12,1.22-3.81,1.2-2.91-.04-7.24-1.58-10.44-1.96,1.59,1.75,3.28,3.37.64,5.65-3.95,3.41-8.34-4.18-13.32-2.31-.38-5.03,9.26-3.74,12.68-3.34h-.01Z"/>
      <path class="cls-1" d="M402.02,542.06l5.69,3.97c2.59,3.35,4.89,8.39-1.02,9.37-.22.29,2.81,3.66,3.18,4.49,1.38,3.03,2.15,12.14-3.01,9.71-3.31-1.56-1.4-8.02-4.85-8.19.93,2.04,1.99,4.45.99,6.66-1.26,2.79-3.3-.44-4.76-1.22-2.61-1.39-6.67-2.19-7.46-5.93-1.4-6.59,6.8-4.06,9.89-1.52-1.9-4.98,1.45-4.02,5.34-4.01l-8.59-7.78c-.78-2.3.94-4.53,3.25-4.91-2.13-2.21-2.71-4.33-2-7.33,4.09-.1,8.88,4.59,3.34,6.69h.01Z"/>
      <path class="cls-1" d="M417.17,549.58c1.71,2.05-.06,4.08.49,5.16.38.75,1.81,1.04,2.4,1.83,4.95,6.62-.94,14.9-3.9,9.72-1.03-1.79-.33-4.42-1.41-5.94-1.71-2.39-8.92-2.58-.07-7.29-1.62-1.59-3.57-3.14-3.32-5.67.77-.75,5.1,1.34,5.8,2.19h.01Z"/>
      <path class="cls-1" d="M389.95,565.36c-2.81,1.48-4.2-1.23-6.24-2.01-2.43-.93-7.91-.93-9.41-3.94-2.97-6,10.29-6.96,13.32-2.63.81,1.16,3.08,7.51,2.33,8.59h0Z"/>
      <path class="cls-1" d="M384.34,600.14c3.09-.68,2.36,11.83-3.03,10.41l-1.9-1.51c-.99-2.96,2.89-7,4.93-8.89h0Z"/>
    </g>
    <g>
      <path class="cls-1" d="M253.02,279.97c12.26,12.09,75.57,73.37,78.48,76.29.38.38.51.49.8.77.25.23.4.08.5-.01l.21-.21.1-.1c.14-.13.27-.28.41-.41.16-.15.3-.31.45-.45.29-.27.56-.57.85-.85.18-.18.35-.36.53-.53.16-.15.3-.32.47-.46.17-.15.31-.33.48-.48.07-.06.13-.14.2-.2.1-.09.19-.19.29-.28.03-.03.06-.07.1-.1l.12-.12c.11-.1.21-.21.32-.32.07-.06.15-.23,0-.39-.26-.26-.36-.36-.84-.83-3.62-3.62-67.33-69.19-76.37-78.2-.73-.77-1.73-.61-2.11-.3-.09.08.08-.09.05-.05s-.08.07-.12.1c-.03.03.06-.05.03-.03-.11.09-.09.07-.84.79-.07.06-.13.13-.2.2l-.5.5c-.17.16-.34.33-.51.51-.19.19-.39.38-.58.58-.35.37-.96.97-1.24,1.24-.15.15-.6.57-.75.73-.14.14-.3.34-.45.5-.34.36-.43.88-.42.95.02.11.49-.96.41-.87-.35.4-.83,1.05.13,2.05v-.02Z"/>
      <g>
        <path class="cls-1" d="M477.6,502.66c.29.32.57.61.83.9l5.07-4.97c-.3-.27-.6-.54-.91-.82l-4.99,4.89Z"/>
        <path class="cls-1" d="M488.25,502.78c-1.07-.91-2.52-2.18-4.25-3.73l-5.11,5.01c1.9,2.06,3.03,3.26,3.87,4.22.11.13.25.25.33.33l.3-.3.23-.23.11-.11.45-.45.5-.5.94-.94.58-.58.51-.51c.18-.17.35-.36.53-.53.08-.07.15-.15.22-.22.11-.1.21-.21.31-.31.04-.03.07-.07.1-.1.05-.04.09-.09.13-.13.12-.11.23-.23.35-.35l.22-.22c-.08-.08-.17-.19-.33-.33v-.02Z"/>
        <path class="cls-1" d="M482.1,497.32c-.31-.28-.63-.58-.95-.87-.09-.08-.13-.12-.21-.15-.11-.03-.16.02-.23.09l-.24.24-.11.11-.09.09-.29.29-.22.22-.24.24-.56.56c-.21.21-.43.42-.64.64-.4.4-.36.35-.67.66l-.49.49-.48.48-.11.11c-.09.09-.13.13-.22.21-.1.1-.18.18-.16.28.02.11.12.22.22.33.26.29.51.56.76.83l4.95-4.85h-.02Z"/>
      </g>
      <path class="cls-1" d="M548.17,507.41c-.29-1.29-.7-2.62-1.23-3.94-1.11-2.79-2.7-5.28-4.36-7.08-1.28-1.38-2.61-2.35-3.81-2.73-.14-.04-.28-.08-.42-.11-.12-.03-.25-.05-.36-.07-1.43-.23-2.49.04-3.39.38-.02,0-.17.09-.19.09-2.73,1.05-9.76,5.16-12.65,7.32-4.51,3.37-10.41,7.91-14.2,10.82-.09.07-.18.14-.26.2-1.97,1.48-3.32,2.41-4.91,2.55-1.73.15-2.72-1.04-3.19-1.49-3.43-3.32-6.87-6.64-10.3-9.96-.14-.14-.28-.27-.43-.41-.04.05-.09.09-.13.13-.37.38-.73.76-1.1,1.14l-1.43,1.48c-.22.23-.45.46-.67.7-.27.28-.53.55-.8.83-.35.37-.71.73-1.06,1.1l-.04.04s-.05.05-.08.08l-.09.09c.14.14.28.28.43.41,3.43,3.32,6.87,6.64,10.3,9.96.46.45,7.54,6.45,10,7.69,1.8.91,4.76,2.14,8.15,2.03.14,0,.29,0,.42-.01,5.48-.36,10.54-1.22,16.04-2.76,3.52-.98,11.15-3.47,13.77-4.65.05-.02.11-.05.16-.07,2.29-1.17,3.45-2.49,4.43-3.74.08-.11.27-.36.37-.52.09-.14.12-.2.19-.31.05-.07.08-.14.14-.25.02-.04.14-.26.16-.3.66-1.28.96-2.55,1.01-4.31.04-1.33-.13-2.8-.47-4.34h0ZM525.86,500.7l8.4-2.41c.1-.03.2.03.23.13.03.1-.03.2-.13.23l-8.4,2.41c-.1.03-.21-.03-.23-.13-.03-.1.03-.21.13-.23ZM522.23,503.78l12.61-3.61c.1-.03.2.03.23.13.02.05,0,.11-.02.15-.02.06-.06.11-.12.13l-12.61,3.61c-.1.03-.21-.03-.23-.13-.02-.05,0-.11.02-.15.02-.06.06-.11.12-.13ZM518.54,506.92l16.84-4.82c.1-.03.21.03.23.13.02.05,0,.11-.02.15-.02.06-.06.11-.12.13l-16.84,4.82c-.1.03-.21-.03-.23-.13-.02-.05,0-.11.02-.15.02-.06.06-.11.12-.13ZM513.48,510.45l22.45-6.43c.1-.03.2.03.23.13.02.05,0,.11-.02.15-.02.06-.06.11-.13.13l-22.45,6.43c-.1.03-.2-.03-.23-.13-.02-.05,0-.11.02-.15.02-.06.06-.11.13-.13ZM510.18,513.71s0-.11.02-.15c.02-.06.06-.11.13-.13l26.15-7.49c.1-.03.2.03.23.13.02.05,0,.11-.02.15-.02.06-.06.11-.13.13l-26.15,7.49c-.1.03-.21-.03-.23-.13h0ZM510.97,515.76c-.1.03-.21-.03-.23-.13-.02-.05,0-.11.02-.15.02-.06.06-.11.13-.13l26.15-7.49c.1-.03.21.03.23.13.02.05,0,.11-.02.15-.02.06-.06.11-.13.13l-26.15,7.48h0ZM511.52,517.69c-.1.03-.21-.03-.23-.13-.02-.05,0-.11.02-.15.02-.06.06-.11.13-.13l26.15-7.49c.1-.03.2.03.23.13.02.05,0,.11-.02.15-.02.06-.06.11-.13.13l-26.15,7.48h0ZM511.83,519.48s0-.11.02-.15c.02-.06.06-.11.13-.13l26.15-7.49c.1-.03.2.03.23.13.02.05,0,.11-.02.15-.02.06-.06.11-.13.13l-26.15,7.49c-.1.03-.21-.03-.23-.13h0ZM512.38,521.4s0-.11.02-.15c.02-.06.06-.11.13-.13l26.15-7.49c.1-.03.21.03.23.13.02.05,0,.11-.02.15-.02.06-.06.11-.13.13l-26.15,7.48c-.1.03-.21-.03-.23-.13h0ZM512.94,523.33s0-.11.02-.15c.02-.06.06-.11.13-.13l26.15-7.49c.1-.03.21.03.23.13.02.05,0,.11-.02.15-.02.06-.06.11-.13.13l-26.15,7.48c-.1.03-.21-.03-.23-.13h0ZM539.87,517.89l-26.15,7.49c-.1.03-.21-.03-.23-.13-.02-.05,0-.11.02-.15.02-.06.06-.11.13-.13l26.15-7.48c.1-.03.21.03.23.13.02.05,0,.11-.02.15-.02.06-.06.11-.13.13h0Z"/>
      <path class="cls-1" d="M337.81,352.99l-4.64,4.54c47.82,47.86,95.59,95.76,143.34,143.68l.24-.24.18-.18.09-.09.4-.4.41-.41c.27-.3.57-.57.85-.85l.54-.54.47-.47.46-.46.18-.18.24-.24.08-.08.09-.09.23-.23.13-.13c-47.77-47.87-95.52-95.76-143.3-143.62h.01Z"/>
    </g>
    <g>
      <path class="cls-1" d="M533.72,279.97c-12.26,12.09-75.57,73.37-78.48,76.29-.38.38-.51.49-.8.77-.25.23-.4.08-.5-.01l-.21-.21-.1-.1c-.14-.13-.27-.28-.41-.41-.16-.15-.3-.31-.45-.45-.29-.27-.56-.57-.85-.85-.18-.18-.35-.36-.53-.53-.16-.15-.3-.32-.47-.46-.17-.15-.31-.33-.48-.48-.07-.06-.13-.14-.2-.2-.1-.09-.19-.19-.29-.28-.03-.03-.06-.07-.1-.1l-.12-.12c-.11-.1-.21-.21-.32-.32-.07-.06-.15-.23,0-.39.26-.26.36-.36.84-.83,3.62-3.62,67.33-69.19,76.37-78.2.73-.77,1.73-.61,2.11-.3.09.08-.08-.09-.05-.05s.08.07.12.1c.03.03-.06-.05-.03-.03.11.09.09.07.84.79.07.06.13.13.2.2.16.16.33.33.5.5.17.16.34.33.51.51.19.19.39.38.58.58.35.37.96.97,1.24,1.24.15.15.6.57.75.73.14.14.3.34.45.5.34.36.43.88.42.95-.02.11-.49-.96-.41-.87.35.4.83,1.05-.13,2.05v-.02Z"/>
      <g>
        <path class="cls-1" d="M309.15,502.66c-.29.32-.57.61-.83.9l-5.07-4.97c.3-.27.6-.54.91-.82l4.99,4.89Z"/>
        <path class="cls-1" d="M298.5,502.78c1.07-.91,2.52-2.18,4.25-3.73l5.11,5.01c-1.9,2.06-3.03,3.26-3.87,4.22-.11.13-.25.25-.33.33l-.3-.3-.23-.23-.11-.11-.45-.45-.5-.5-.94-.94-.58-.58-.51-.51c-.18-.17-.35-.36-.53-.53-.08-.07-.15-.15-.22-.22-.11-.1-.21-.21-.31-.31-.04-.03-.07-.07-.1-.1-.05-.04-.09-.09-.13-.13-.12-.11-.23-.23-.35-.35l-.22-.22c.08-.08.17-.19.33-.33v-.02Z"/>
        <path class="cls-1" d="M304.65,497.32c.31-.28.63-.58.95-.87.09-.08.13-.12.21-.15.11-.03.16.02.23.09l.24.24.11.11.09.09.29.29.22.22.24.24.56.56c.21.21.43.42.64.64.4.4.36.35.67.66l.49.49.48.48.11.11c.09.09.13.13.22.21.1.1.18.18.16.28-.02.11-.12.22-.22.33-.26.29-.51.56-.76.83l-4.95-4.85h.02Z"/>
      </g>
      <path class="cls-1" d="M238.1,511.75c.05,1.76.35,3.03,1.01,4.31.02.04.13.26.16.3.07.11.1.18.14.25.07.11.1.17.19.31.1.16.29.42.37.52.98,1.25,2.15,2.57,4.43,3.74.05.03.11.05.16.07,2.62,1.18,10.24,3.67,13.77,4.65,5.5,1.53,10.56,2.39,16.04,2.76.14,0,.29,0,.42.01,3.4.11,6.35-1.12,8.15-2.03,2.46-1.24,9.54-7.24,10-7.69,3.43-3.32,6.87-6.64,10.3-9.96.14-.14.28-.28.43-.41l-.09-.09-.08-.08-.04-.04c-.35-.37-.71-.73-1.06-1.1-.27-.28-.53-.55-.8-.83-.22-.23-.45-.46-.67-.7l-1.43-1.48c-.37-.38-.73-.76-1.1-1.14l-.13-.13c-.14.14-.28.28-.43.41-3.43,3.32-6.87,6.64-10.3,9.96-.46.45-1.46,1.64-3.19,1.49-1.58-.14-2.93-1.07-4.91-2.55-.09-.07-.18-.13-.26-.2-3.79-2.91-9.69-7.45-14.2-10.82-2.89-2.16-9.92-6.27-12.65-7.32-.02,0-.17-.09-.19-.09-.9-.35-1.96-.61-3.39-.38-.12.02-.24.04-.36.07-.14.03-.28.06-.42.11-1.2.38-2.53,1.35-3.81,2.73-1.66,1.8-3.25,4.29-4.36,7.08-.52,1.31-.94,2.64-1.23,3.94-.34,1.53-.51,3.01-.47,4.34h0ZM261.02,500.94c-.03.1-.13.16-.23.13l-8.4-2.41c-.1-.03-.16-.13-.13-.23s.13-.16.23-.13l8.4,2.41c.1.03.16.13.13.23ZM264.65,503.91s.04.1.02.15c-.03.1-.13.16-.23.13l-12.61-3.61c-.06-.02-.11-.07-.12-.13-.03-.04-.04-.1-.02-.15.03-.1.13-.16.23-.13l12.61,3.61c.06.02.11.07.12.13h0ZM268.33,507.05s.04.1.02.15c-.03.1-.13.16-.23.13l-16.84-4.82c-.06-.02-.11-.07-.12-.13-.03-.04-.04-.1-.02-.15.03-.1.13-.16.23-.13l16.84,4.82c.06.02.11.07.12.13h0ZM273.39,510.58s.04.1.02.15c-.03.1-.13.16-.23.13l-22.45-6.43c-.06-.02-.11-.07-.13-.13-.03-.04-.04-.1-.02-.15.03-.1.13-.16.23-.13l22.45,6.43c.06.02.11.07.13.13h0ZM276.33,513.84l-26.15-7.49c-.06-.02-.11-.07-.13-.13-.03-.04-.04-.1-.02-.15.03-.1.13-.16.23-.13l26.15,7.49c.06.02.11.07.13.13.03.04.04.1.02.15-.03.1-.13.16-.23.13h0ZM249.63,508.28c-.06-.02-.11-.07-.13-.13-.03-.04-.04-.1-.02-.15.03-.1.13-.16.23-.13l26.15,7.49c.06.02.11.07.13.13.03.04.04.1.02.15-.03.1-.13.16-.23.13l-26.15-7.48h0ZM249.08,510.2c-.06-.02-.11-.07-.13-.13-.03-.04-.04-.1-.02-.15.03-.1.13-.16.23-.13l26.15,7.49c.06.02.11.07.13.13.03.04.04.1.02.15-.03.1-.13.16-.23.13l-26.15-7.48h0ZM274.68,519.61l-26.15-7.49c-.06-.02-.11-.07-.13-.13-.03-.04-.04-.1-.02-.15.03-.1.13-.16.23-.13l26.15,7.49c.06.02.11.07.13.13.03.04.04.1.02.15-.03.1-.13.16-.23.13h0ZM274.13,521.53l-26.15-7.48c-.06-.02-.11-.07-.13-.13-.03-.04-.04-.1-.02-.15.03-.1.13-.16.23-.13l26.15,7.49c.06.02.11.07.13.13.03.04.04.1.02.15-.03.1-.13.16-.23.13h0ZM273.58,523.46l-26.15-7.48c-.06-.02-.11-.07-.13-.13-.03-.04-.04-.1-.02-.15.03-.1.13-.16.23-.13l26.15,7.49c.06.02.11.07.13.13.03.04.04.1.02.15-.03.1-.13.16-.23.13h0ZM246.75,517.77s-.04-.1-.02-.15c.03-.1.13-.16.23-.13l26.15,7.48c.06.02.11.07.13.13.03.04.04.1.02.15-.03.1-.13.16-.23.13l-26.15-7.49c-.06-.02-.11-.07-.13-.13h0Z"/>
      <path class="cls-1" d="M448.94,352.99l4.64,4.54c-47.82,47.86-95.59,95.76-143.34,143.68l-.24-.24-.18-.18-.09-.09-.4-.4-.41-.41c-.27-.3-.57-.57-.85-.85l-.54-.54-.47-.47-.46-.46-.18-.18-.24-.24-.08-.08-.09-.09-.23-.23-.13-.13c47.77-47.87,95.52-95.76,143.3-143.62h-.01Z"/>
    </g>
    <path class="cls-1" d="M393.37,312.29c-37.51,0-66.2-26.31-66.2-62.63s28.69-62.97,66.2-62.97,66.2,26.65,66.2,62.97-28.69,62.63-66.2,62.63ZM438.35,249.66c0-28.35-9.17-59.24-44.98-59.24s-44.98,30.89-44.98,59.24,9.17,58.9,44.98,58.9,44.98-30.55,44.98-58.9Z"/>
    <path class="cls-1" d="M287.61,441.36c-7.98,19.18-25.8,29.02-48.54,29.02-36.32,0-65.52-24.95-65.52-62.12s28.86-63.48,65.52-63.48c17.65,0,25.46,6.11,33.27,6.11,3.56,0,8.15-1.19,10.35-4.58l1.87,1.02c-.51,2.72-.85,7.98-.85,13.75s0,11.54.34,23.93h-3.73c-1.87-10.69-8.83-36.49-40.91-36.49-35.14,0-44.64,30.89-44.64,59.75s9,58.39,45.49,58.39c20.54,0,37.68-9.51,44.13-26.65l3.22,1.36h0Z"/>
    <path class="cls-1" d="M602.5,441.36c-7.98,19.18-25.8,29.02-48.54,29.02-36.32,0-65.52-24.95-65.52-62.12s28.86-63.48,65.52-63.48c17.65,0,25.46,6.11,33.27,6.11,3.56,0,8.15-1.19,10.35-4.58l1.87,1.02c-.51,2.72-.85,7.98-.85,13.75s0,11.54.34,23.93h-3.73c-1.87-10.69-8.83-36.49-40.91-36.49-35.14,0-44.64,30.89-44.64,59.75s9,58.39,45.49,58.39c20.54,0,37.68-9.51,44.13-26.65l3.22,1.36h0Z"/>
  </g>
  <g>
    <path class="cls-1" d="M147.6,214.4c-16.55,22.12-44.73,27.42-66.14,11.39-21.42-16.03-24.47-44.7-7.92-66.82,16.55-22.12,44.93-27.27,66.34-11.24,21.42,16.03,24.27,44.55,7.72,66.67h0ZM130.52,160.24c-16.71-12.51-38.97-20.74-54.78.38s-1.63,40.15,15.08,52.66,38.77,20.59,54.58-.53,1.83-40-14.88-52.51h0Z"/>
    <path class="cls-1" d="M259.15,95.51c2.33,15.12-5.11,28.14-19.41,36.85-22.84,13.92-50.77,9.41-65.01-13.97-14.11-23.17-6.17-50.98,16.88-65.03,11.1-6.76,18.35-5.91,23.26-8.9,2.24-1.37,4.67-3.87,4.76-6.85l1.56-.08c.72,1.9,2.52,5.34,4.73,8.97,2.15,3.52,4.42,7.26,9.38,14.92l-2.35,1.43c-5.27-6.01-19.53-19.57-39.71-7.28-22.1,13.46-16.24,36.53-5.18,54.68,10.73,17.61,28.03,33.28,50.98,19.29,12.92-7.87,20.06-20.42,17.54-33.67l2.55-.38.02.02Z"/>
    <path class="cls-1" d="M342.79,95.41c-27.25,4.52-51.27-11.13-55.65-37.53-4.38-26.39,13.25-49.21,40.5-53.73,27.25-4.52,51.31,11.38,55.69,37.77,4.38,26.39-13.29,48.96-40.54,53.49ZM367.92,44.48c-3.42-20.59-13.8-41.93-39.82-37.62-26.02,4.32-28.96,27.87-25.54,48.46,3.42,20.59,13.76,41.69,39.78,37.37s29-27.62,25.58-48.22h0Z"/>
    <path class="cls-1" d="M494.13,106.5c-5.23-13.81-34.2-78.64-44.04-92.51-1.53,5.42-3.88,14.88-8.07,32.77-8.51,36.27-5.56,41.2,1.87,42.94l1.95.46-.63,2.68c-6.88-1.87-10.38-2.82-14.52-3.79s-7.94-1.73-14.93-3.12l.63-2.68,1.95.46c7.42,1.74,12.26-1.36,20.77-37.63,8.65-36.88,8.96-40.4.57-42.37l-4.38-1.03.63-2.68c9.31,2.44,12.45,3.31,19.02,4.85,2.19.51,8.3,1.82,9.92,2.07,4.76,14.73,29.18,65.01,37.16,80.24l5.85-24.95c8.51-36.27,5.56-41.2-1.87-42.94l-1.95-.46.63-2.68c6.88,1.87,10.38,2.82,14.52,3.79s7.94,1.73,14.93,3.12l-.63,2.68-1.95-.46c-7.42-1.74-12.26,1.36-20.77,37.63l-10.56,45.03-6.08-1.43h-.02Z"/>
    <path class="cls-1" d="M551.81,131.7c-5.58-3.8-8.74-5.81-16.83-11.03l1.55-2.27,3.72,2.54c6.3,4.3,9.51,2.25,30.85-29.04,21.34-31.29,22.07-35.02,15.78-39.32l-3.72-2.54,1.55-2.27c7.81,5.63,10.84,7.85,16.41,11.65l42.85,29.23-13.31,19.51-2.27-1.55c5.72-10.17,5.77-21.33-11.26-32.95l-4.54-3.1c-6.82-4.65-8.84-3.01-28.46,25.53l3.41,2.32c8.47,5.78,17.41,8.85,25.47-1.84l2.27,1.55c-5.17,6.46-7.66,9.9-9.99,13.31-2.54,3.72-4.83,7.3-9.45,15.19l-2.27-1.55c7.02-11.4.89-18.61-7.58-24.38l-3.41-2.32-.63.93c-21.69,31.8-22.38,34.36-15.56,39.01l6.71,4.58c16.93,11.55,28.26,9.14,36.93-1.13l2.27,1.55c-3.9,5.05-7.84,10.39-9.81,13.28-1.83,2.68-3.35,5.58-3.99,6.96l-46.67-31.84h-.02Z"/>
    <path class="cls-1" d="M630.35,198.39c-4.03-5.42-6.37-8.35-12.32-15.92l2.21-1.64,2.69,3.61c4.55,6.12,8.26,5.23,38.64-17.38s32.3-25.91,27.74-32.02l-2.69-3.61,2.21-1.64c5.55,7.87,7.68,10.95,11.71,16.37l30.97,41.62-18.95,14.1-1.64-2.21c8.73-7.74,12.42-18.28.1-34.83l-3.28-4.41c-4.93-6.62-7.38-5.73-35.23,14.84l2.46,3.31c6.12,8.22,13.57,14.05,24.68,6.57l1.64,2.21c-6.99,4.42-10.48,6.86-13.79,9.32-3.61,2.69-6.94,5.32-13.89,11.27l-1.64-2.21c10.36-8.49,6.92-17.3.79-25.52l-2.46-3.31-.9.67c-30.89,22.99-32.37,25.18-27.44,31.8l4.85,6.52c12.24,16.45,23.73,17.86,35.29,10.98l1.64,2.21c-5.34,3.5-10.8,7.26-13.61,9.35-2.61,1.94-4.99,4.18-6.04,5.28l-33.73-45.33h0Z"/>
  </g>
  <g>
    <path class="cls-1" d="M19.15,435.35C6.45,430.03-.04,418.21,0,403.14c.06-24.06,16.64-43.36,41.27-43.3,24.4.06,42,19.23,41.94,43.52-.03,11.69-4.09,16.86-4.11,22.03,0,2.36.77,5.4,3.02,6.87l-.68,1.24c-1.8-.34-5.28-.58-9.11-.59-3.71-.01-7.65-.02-15.86.18v-2.47c7.1-1.22,24.2-5.78,24.25-27.04.06-23.28-20.39-29.63-39.5-29.68-18.55-.05-38.7,5.86-38.76,30.04-.04,13.61,6.23,24.98,17.58,29.28l-.9,2.13h.01Z"/>
    <path class="cls-1" d="M19.76,520.85c-7.77-23.6,2.83-47.11,25.69-54.63,22.86-7.53,45.57,5,53.34,28.6,7.78,23.6-3.04,47.17-25.9,54.7-22.85,7.53-45.35-5.07-53.13-28.67ZM68.5,536.16c17.83-5.88,35.37-18.04,27.95-40.58-7.42-22.53-28.76-21.9-46.6-16.02-17.83,5.88-35.16,17.97-27.74,40.51s28.55,21.97,46.38,16.09h.01Z"/>
    <path class="cls-1" d="M143.19,626.07c12.83-9.69,15.87-16.5,11.73-21.97l-1.08-1.44,1.98-1.49c3.68,5.25,5.56,7.92,7.86,10.97s4.5,5.76,8.54,10.74l-1.98,1.49-1.08-1.44c-4.13-5.47-11.51-4.41-24.34,5.28l-18.31,13.83c-9.6,7.25-18.72,10.48-26.82,8.71-6.55-1.39-13.02-6.23-19.73-15.11-8.81-11.67-12.18-22.65-7.51-32.52,2.5-5.27,7.27-10.15,14.18-15.37,5.2-3.93,12.54-8.77,19.99-14.4,12.11-9.15,15.09-13.23,11.02-18.62l-2.44-3.23,1.98-1.49c5.04,7.04,6.98,9.8,10.64,14.65,3.66,4.84,5.85,7.56,11.25,14.33l-1.97,1.49-2.44-3.23c-4.13-5.47-7.55-4.58-34.29,15.62-10.95,8.27-18.53,14.28-21.56,21.08-2.7,6.13-1.84,13.23,4.94,22.2,4.68,6.19,10.63,11.28,18.13,12.24,7.42.87,14.77-2.28,23.65-8.99l17.68-13.35-.02.02Z"/>
    <path class="cls-1" d="M197.55,740.33c-.03-13.29-3.87-77.05-7.77-91.84-3,4.08-7.98,11.3-17.18,25.03-18.65,27.84-17.73,32.93-12.03,36.74l1.5,1-1.38,2.05c-5.2-3.76-7.85-5.66-11.02-7.79-3.18-2.13-6.13-3.97-11.59-7.36l1.38-2.06,1.5,1c5.7,3.82,10.75,2.74,29.41-25.1,18.97-28.3,20.35-31.17,13.9-35.49l-3.36-2.25,1.38-2.05c7.07,5.01,9.43,6.73,14.48,10.11,1.68,1.13,6.41,4.16,7.69,4.88-.66,13.91,3.97,63.98,5.86,79.33l12.83-19.15c18.65-27.84,17.73-32.92,12.03-36.74l-1.5-1,1.38-2.06c5.2,3.75,7.85,5.66,11.02,7.79s6.13,3.98,11.58,7.36l-1.38,2.06-1.5-1c-5.7-3.82-10.75-2.74-29.41,25.1l-23.16,34.56-4.67-3.13h.01Z"/>
    <path class="cls-1" d="M300.65,778.71c-8.24-2.66-11.55-3.75-17.38-5.47-5.83-1.71-9.09-2.56-17.46-4.79l.7-2.37,3.88,1.14c6.58,1.94,8.76-.7,18.38-33.39,10-33.98,9.27-35.48,3.01-37.33-9.49-2.79-19.77,3.44-24.35,14.64l-2.37-.7c1.56-4.11,2.89-7.82,4.19-12.25,1.24-4.21,2.41-9.37,2.57-10.73l1.58-.59c2.75,2.21,6.41,3.29,32.2,10.88,26.32,7.75,29.34,8.63,32.85,8.26l1.01,1.35c-.6,1.23-2.41,6.21-3.65,10.41-1.3,4.42-2.2,8.26-3.11,12.57l-2.37-.7c2.21-11.89-3.05-22.7-12.54-25.49-6.15-1.81-7.68-.97-17.68,33.01-9.62,32.69-9.21,36.09-2.63,38.02l3.88,1.14-.7,2.37v.02Z"/>
    <path class="cls-1" d="M431.01,784.32c-1.37,4.27-3.18,6.62-8.92,6.58-13.5-.08-17.24-13.26-19.99-23.51-3.3-12.28-4.52-16.22-16.55-16.51l-5.96-.15c-.19,33.06,1.14,36.22,8,36.26l4.05.02v2.47c-8.67-.28-12.16-.41-18.23-.44-6.07-.04-9.45.06-18.11.23v-2.47l4.06.02c6.86.04,8.23-3.1,8.43-37.17.2-34.07-1.13-37.23-7.99-37.27l-4.05-.02.02-2.47c8.66.28,12.37.41,16.98.44,7.87.05,15.07-.25,19.01-.23,17.88.1,29.65,7.14,29.57,20.86s-12.03,18.37-26.77,19.53c16.29,3.47,22.17,16.88,24.13,26.79.77,3.71,1.51,10.92,6.24,10.94,2.7.02,3.72-2.45,4.86-4.47l1.23.57h-.01ZM390.62,748.55c11.81.07,17.68-4.4,17.76-18,.07-12.15-4.62-17.91-18-17.99-9.45-.05-10.59,2.75-10.78,35.92l11.02.06h0Z"/>
    <path class="cls-1" d="M515.1,770.43c-8.4,2.1-11.79,2.93-17.64,4.55s-9.07,2.64-17.35,5.17l-.66-2.38,3.9-1.08c5.53-1.54,7.29-4.83,1.76-24.76-.9-3.25-1.53-5.53-2.34-7.99-3.32-3.98-12.16-12.26-20.72-19.57-15.68-13.15-19.32-13.66-25.6-11.91l-1.3.36-.66-2.38c7.65-1.89,12.34-3.08,18.19-4.7s11.75-3.5,18.11-5.38l.66,2.38-2.82.78c-4.55,1.26-5.55,2.71-5.01,4.66.54,1.95,2.78,4.13,5.1,6.17l22.54,20.23,7.21-19.86c1.91-5.31,3.2-10.34,2.23-13.81-.96-3.47-3.47-5.34-9.1-3.77l-1.41.39-.66-2.38c3.17-.76,11.9-2.96,15.04-3.83,4.33-1.2,11.32-3.38,14.32-4.33l.66,2.38c-6.07,1.69-11.27,6.05-18.21,25.6l-7.76,21.65c.41,3.15,1.89,8.46,2.91,12.15,5.66,20.37,8.54,21.91,14.06,20.37l3.9-1.08.66,2.38h0Z"/>
    <path class="cls-1" d="M660.63,662.63c3.98,13.17-1.01,25.71-12.65,35.27-18.59,15.27-44.03,14.77-59.66-4.25-15.49-18.85-11.92-44.63,6.85-60.04,9.04-7.42,15.6-7.58,19.6-10.86,1.82-1.5,3.67-4.03,3.37-6.7l1.38-.26c.88,1.6,2.92,4.44,5.35,7.4,2.35,2.87,4.85,5.91,10.24,12.11l-1.91,1.57c-5.45-4.69-19.86-14.97-36.28-1.48-17.99,14.77-9.87,34.58,2.27,49.35,11.78,14.34,29.15,26.11,47.84,10.76,10.51-8.64,15.29-20.71,11.39-32.2l2.22-.66h0Z"/>
    <path class="cls-1" d="M708.51,630.24c-3.39,5.04-5.19,7.9-9.84,15.2l-2.05-1.38,2.26-3.36c3.83-5.69,1.98-8.57-26.28-27.61s-31.62-19.68-35.45-14l-2.26,3.36-2.05-1.38c5.03-7.05,7.01-9.79,10.4-14.82,3.39-5.04,6.19-9.39,10.84-16.69l2.05,1.38-3.2,4.76c-3.83,5.69-1.98,8.57,26.28,27.61,28.72,19.36,31.03,19.96,35.17,13.81l4.08-6.06c12.13-18,8.12-27.34-1.04-34.47l1.38-2.05c6.15,4.15,8.88,7.75,12.8,10.39,2.42,1.63,4.07,2.61,5.32,3.18l-28.41,42.15v-.02Z"/>
    <path class="cls-1" d="M724.59,467.69c-15.37-4.74-22.66-3.22-24.68,3.33l-.53,1.72-2.37-.73c2.11-6.06,3.17-9.14,4.3-12.79s2.05-7.02,3.72-13.21l2.36.73-.53,1.72c-2.02,6.56,3.15,11.92,18.52,16.65l21.92,6.76c11.5,3.54,19.45,9.05,22.75,16.66,2.7,6.13,2.56,14.21-.72,24.84-4.3,13.97-11.25,23.13-21.98,25.11-5.74,1.05-12.48.04-20.76-2.52-6.23-1.92-14.45-5.04-23.37-7.79-14.51-4.47-19.56-4.5-21.55,1.95l-1.19,3.87-2.36-.73c2.77-8.21,3.87-11.4,5.66-17.2s2.71-9.17,5.04-17.51l2.36.73-1.19,3.87c-2.02,6.55.7,8.8,32.72,18.68,13.11,4.04,22.42,6.67,29.71,5.16,6.55-1.39,11.81-6.24,15.12-16.99,2.29-7.41,2.93-15.22-.67-21.86-3.63-6.53-10.49-10.65-21.12-13.92l-21.17-6.53h.01Z"/>
    <path class="cls-1" d="M782.55,431.22l-.03-4.05c-.04-6.86-3.2-8.19-37.27-7.98s-37.21,1.58-37.17,8.44l.03,4.05-2.47.02c.17-8.66.26-12.48.23-16.98-.05-7.87-.43-15.06-.45-18.78-.11-18.1,7.58-28.5,19.39-28.57,11.02-.07,16.36,8.89,18.23,20.58,1.59-16.09,8.28-25.58,20.87-25.65,13.61-.08,20.76,10.89,20.88,31.24.03,4.38-.26,13.16-.21,20.8.03,4.39.16,8.21.44,16.87l-2.47.02h0ZM742.08,396.39c-.06-9.11-2.57-16.18-16.63-16.09-9.44.06-17.63,3.37-17.55,16.3.06,9.89,4.79,10.99,34.25,10.81l-.07-11.02ZM782.34,396.36c-.09-14.51-5.75-20.65-19.24-20.57-14.73.09-18.62,7.31-18.54,20.24l.07,11.36c35.31-.22,37.77-1.58,37.73-8.44l-.02-2.59h0Z"/>
  </g>
</svg>