<?xml version="1.0" encoding="UTF-8"?>
<svg id="Layer_1" data-name="Layer 1" xmlns="http://www.w3.org/2000/svg" viewBox="0 0 520.58 520.58">
  <defs>
    <style>
      .cls-1 {
        fill: #3f6430;
      }

      .cls-2 {
        fill: #704d1e;
      }
    </style>
  </defs>
  <g>
    <path class="cls-1" d="M178.13,270.03l18.08-32.2c.6-1.07,2.15-1.01,2.68.1l7.03,14.91c.63,1.35,2.64,1.06,2.85-.42,1.16-8.18,3.17-16.04,6.05-23.56.11-.29.13-.6.05-.9-5.3-20.13-5.2-41.07.36-61.16.03-.12.06-.23.1-.35.46-1.64-1.7-2.68-2.68-1.29-5.32,7.57-10.55,15.2-15.65,22.92-.15.23-.37.42-.62.53l-59.52,27.42c-.74.34-1.07,1.21-.76,1.96l8.94,21c.33.78,1.24,1.13,2.01.78l20.08-9.08c1.32-.6,2.64.84,1.93,2.11l-13.55,24.23c-.15.27-.39.49-.67.63l-53.76,25.27c-.76.36-1.08,1.27-.71,2.02l9.82,20.07c.35.73,1.22,1.04,1.96.72l19.71-8.65c1.27-.56,2.55.75,1.97,2.01l-9.52,20.69c-.15.32-.41.58-.73.73l-39.7,18.66c-.75.35-1.08,1.25-.72,2.01l9.51,20.09c.35.73,1.21,1.06,1.96.74l11.77-5.06c1.2-.52,2.44.64,2.02,1.87l-7.98,23.23c-.27.79.15,1.64.93,1.91l21.51,7.4c.19.07.4.09.6.08h0c.59-.04,1.11-.43,1.31-1l9.86-27.64c1.62-.38,1.01.07,1.41.8,2.69,4.97,4.95,11.1,7.17,16.5.32.78,1.21,1.13,1.98.8l20.97-8.98c.77-.33,1.12-1.23.78-2l-17.61-39.61c-.17-.39-.17-.84,0-1.23l11.1-24.81c.53-1.17,2.19-1.19,2.74-.03l11.81,25.07c.35.73,1.21,1.06,1.96.74l21.01-9.03c.77-.33,1.12-1.23.78-2l-20.56-45.85c-.08-.17-.12-.35-.13-.54l-.09-1.84c-.01-.28.05-.57.19-.81Z"/>
    <path class="cls-1" d="M94.18,190.18l21.35,7.84c.78.29,1.65-.11,1.93-.9l17.85-48.71c.16-.43.51-.77.95-.91l28.6-9.31c1.19-.39,2.3.75,1.89,1.93l-9.18,26.24c-.27.78.14,1.64.92,1.92l21.41,7.52c.78.27,1.64-.13,1.92-.91l16.22-45.45c.17-.47.56-.83,1.05-.95l44.15-11.28c.26-.07.5-.21.69-.4,3.34-3.44,6.91-6.7,10.7-9.74,8.2-6.59,16.94-11.49,25.79-15.38.71-.31,1.07-1.1.83-1.83l-2.2-6.84c-.35-1.1-1.76-1.41-2.54-.56l-.36.39c-.21.23-.49.39-.8.45-25.73,5.23-51.27,11.24-76.62,18.03-.21.06-.42.07-.63.03l-3.79-.64c-.08-.01-.17-.04-.25-.06l-56.61-19.91c-.78-.27-1.63.13-1.92.91l-7.82,21.61c-.28.78.12,1.64.9,1.93l21.05,7.67c1.35.49,1.31,2.41-.05,2.85l-20.79,6.72c-.31.1-.64.1-.95,0l-55.23-18.98c-.79-.27-1.65.15-1.92.94l-7.33,21.74c-.26.78.15,1.63.92,1.9l22.06,7.81c1.31.46,1.35,2.3.06,2.82l-23,9.22c-.34.13-.71.14-1.05.03l-40.91-14.08c-.79-.27-1.66.15-1.92.95l-7.06,21.28c-.26.77.15,1.61.92,1.89l13.68,4.94c1.18.43,1.35,2.03.28,2.7l-20.73,12.86c-.7.44-.92,1.36-.49,2.07l11.61,18.95c.42.69,1.31.92,2.01.53l18.63-10.28c1.22-.67,2.63.53,2.14,1.83-1.58,4.27-4.48,11.03-4.72,12.39-.03.16-.06.31-.1.46-.17.75.27,1.5,1,1.74l21.7,7.26c.78.26,1.62-.15,1.9-.92l14.42-40.43c.14-.41.46-.73.86-.89l24.17-9.74c1.19-.48,2.4.66,1.99,1.88l-8.5,25.03c-.26.77.14,1.62.91,1.9Z"/>
  </g>
  <path class="cls-2" d="M318.65,39.64l17.83,56.96c.23.74,1.02,1.14,1.75.89,14.33-4.78,29.09-8.52,44.38-7.56,39.83,2.51,72.87,29.79,83.61,67.81.1.35.34.65.66.83,28.22,15.1,42.18,44.4,50.61,73.78.07.25.07.52,0,.77l-.15.53c-.13.44-.47.79-.91.93l-25.39,8.03c-.9.29-1.25,1.37-.69,2.13,12.33,16.9,20.23,38.48,22.6,59.16.23,1.98,1.13,11.77.86,12.94-.18.77-.56,1.17-1.31,1.39l-21.35,6.94c-.88.29-1.24,1.35-.7,2.1,5.03,6.99,7.05,15.74,7.55,24.26.96,16.31-4.43,36.96-11.19,51.8-1.09,2.4-3.39,7.47-4.83,9.33-1.46,1.88-5.33.13-7.96.26-.67.03-1.19.57-1.26,1.23-2.52,24.17-12.93,47.26-27.91,66.31-.36.46-.97.64-1.53.46-23-7.52-44.69-19.91-60.65-38.28-.46-.53-1.26-.65-1.82-.23-1.8,1.34-4.34,5.02-6.5,4.35-3.83-1.17-10.65-5.78-14.27-8.15-18.69-12.21-41.34-32.96-41.77-56.83-.02-.91-.91-1.55-1.78-1.28l-21.52,6.65c-.74.25-1.28.14-1.87-.38-.78-.7-5.16-8.25-6.05-9.83-10.43-18.53-16.66-41.24-16.31-62.61.02-.95-.89-1.63-1.79-1.34l-26.08,8.28c-.96.19-.99-.43-1.32-1.05-2.3-4.31-5.61-17.9-6.8-23.21-5.02-22.43-4.88-45.57,5.53-66.64.16-.33.19-.71.06-1.05-13.13-37.28-1.84-78.59,29.29-103.59,12.03-9.67,26.09-14.94,40.63-19.38.74-.22,1.15-1.01.91-1.74l-18.25-56.84.3-.58,24.8-7.86.58.3ZM434.91,447.76c6.12-12.05,11.43-25.35,11.49-38.97,0-.57-.36-1.09-.89-1.3-9.17-3.53-18.53-6.59-27.01-11.69-.72-.43-1.64-.14-1.98.63-4,9.05-9.87,16.96-15.35,25.12-.32.48-.32,1.12.02,1.58,7.99,11.1,19.84,18.9,31.85,25.23.68.36,1.53.09,1.88-.6ZM465.64,383.82c5.39-14.71,13.01-41.5-5.69-48.24-.72-.26-1.51.1-1.78.81-5.35,14.01-15.55,25.64-28.47,33.11-.84.49-.96,1.68-.19,2.27,0,0,.01,0,.02.01,2.23,1.69,8.85,4.82,11.67,6.04,7.23,3.11,15.24,4.44,22.73,6.83.7.22,1.46-.13,1.72-.83ZM411.47,295.16c22.39,12.55,49.14,13.86,72.78,4.34.64-.26.99-.94.83-1.61-2.51-10.48-5.7-21.61-11.51-30.72-4.61-7.22-10.95-14.28-19.49-16.47-.48-.12-1.01.02-1.34.39-1.48,1.63-3.41,6.57-4.32,8.01-5.8,9.22-13.79,16.95-22.1,23.85-.04.03-.08.07-.13.1l-14.79,9.77c-.86.57-.83,1.85.07,2.35ZM369.37,351.56c21.41,9.2,49.15.54,61.58-19.16.5-.79.1-1.82-.79-2.08-13.11-3.71-26.05-8.15-37.42-15.86-.74-.5-1.73-.2-2.06.63-4.99,12.64-12.33,24.43-21.76,34.23-.68.7-.45,1.86.45,2.24ZM390.3,216.06c-1.01.61-.82,2.13.31,2.49,22.1,7.1,46.44,7.45,69.17,4.12,2.72-.4,18.36-3.24,22.74-5.17.69-.3,1.02-1.09.74-1.78-8.91-22.18-30.95-43.62-56.33-35.47-.34.11-.62.35-.79.66-8.16,15.05-21.45,26.39-35.84,35.14ZM373.01,413.56c7.85-9.34,15.36-18.9,20.57-30.03.42-.89-.23-1.93-1.22-1.96-3.95-.13-8,.27-11.91-.1-11.25-1.08-21.75-4.74-31.09-11.09-.67-.46-1.59-.25-1.99.46-9.99,17.55,10.76,33.27,23.77,42.95.59.44,1.41.34,1.88-.22ZM333.29,280.31c30.3,6.48,65.47-4.6,86.43-27.44.79-.86.22-2.24-.94-2.32-17.47-1.12-34.98-4.97-50.59-13.13-.83-.43-1.84.06-2,.99-.08.47-.15.97-.42,1.39-8.99,14.45-19.64,27.61-33.07,38.07-.92.72-.57,2.19.58,2.44ZM362.99,308.15l-16.25.55s-.1,0-.15,0c-11.24-.73-22.79-2.41-33.28-6.79-1.57-.66-5.95-3.55-8.11-4.05-.51-.12-1.05.1-1.37.52-12.36,16.24-4.9,39.07,1.86,56.36.25.64.93,1,1.6.84,24.71-5.76,45.96-22.37,56.97-45.43.45-.94-.24-2.03-1.29-1.99ZM347.37,122.42c-.76.33-1.02,1.3-.57,2,11.74,18.36,29.94,30.17,51.97,31.88,11.62.9,23.23-1.77,33.93-6.18.77-.32,1.09-1.25.67-1.97-12.21-20.93-36.22-33.29-60.43-31.82-5.79.35-20.48,3.37-25.4,6-.06.03-.12.06-.17.08ZM318.8,206.57c24.51,2.36,51.63-6.19,70.26-22.29.87-.75.5-2.19-.62-2.41-16.22-3.16-31.23-9.67-44.03-20.25-.78-.65-1.96-.28-2.23.71-4.32,15.84-12.77,30.23-24.26,41.91-.81.83-.28,2.22.87,2.34ZM336.03,233.27c-16.81,1.14-34.21-.48-49.55-8.08-.31-.16-.68-.19-1.01-.09-25.35,7.69-31.31,38.4-25.6,61.45.18.72.9,1.16,1.63,1.01,4.69-.94,19.07-7.61,21.55-8.86,20.49-10.38,40.19-24.69,54.16-43.21.71-.94,0-2.3-1.18-2.22ZM318.75,133.36c0-.85-.78-1.52-1.61-1.36-.05,0-.1.02-.15.02-2.31.28-9.03,2.7-11.51,3.66-24.35,9.34-40.59,29.09-43.65,55.28-.46,3.9-.65,7.82-.18,11.71.1.79.87,1.32,1.65,1.16,25.31-5.29,45.36-21.81,52.93-47.18,2.32-7.76,2.57-15.36,2.53-23.3Z"/>
</svg>