<?xml version="1.0" encoding="UTF-8"?>
<svg id="Layer_1" data-name="Layer 1" xmlns="http://www.w3.org/2000/svg" viewBox="0 0 279.78 151.99">
  <defs>
    <style>
      .cls-1 {
        fill: #e08a00;
      }

      .cls-2 {
        fill: #607719;
      }
    </style>
  </defs>
  <circle class="cls-1" cx="77.22" cy="28.75" r="28.75"/>
  <path class="cls-2" d="M278.39,140.7c-27.23-25.13-52.53-52.49-79.72-77.63-43.1-39.85-57.5,2.99-87.31,26.2-20.08,15.63-29.83-8.92-46.88-12.78-31.47-7.13-44.5,25.68-63.32,43.61-3.06,5.02.43,11.09,5.5,11.23h0s75.58.01,75.58.01l-7.64,7.52c-4.89,4.81-1.48,13.12,5.37,13.12h190.9c.42,0,.82-.03,1.21-.09,2.24.33,4.6-.26,6.12-1.9,1.92-2.07,2.25-7.19.2-9.3Z"/>
</svg>