<?xml version="1.0" encoding="UTF-8"?>
<svg id="Layer_1" xmlns="http://www.w3.org/2000/svg" version="1.1" viewBox="0 0 24 24">
  <!-- Generator: Adobe Illustrator 29.7.1, SVG Export Plug-In . SVG Version: 2.1.1 Build 8)  -->
  <defs>
    <style>
      .st0 {
        fill: #0083e5;
      }

      .st1 {
        fill: #dc3e0d;
      }

      .st2 {
        fill: #f15f69;
      }

      .st3 {
        fill: #fed421;
      }
    </style>
  </defs>
  <path class="st0" d="M14.1,6.6c1.1-1.3,1.2-1.9,0-3.2-.5-.6-.5-1.6.1-2.1.6-.5,1.6-.5,2.1.1,2.1,2.4,2,4.8-.1,7.2-.6.6-1.5.7-2.1.1-.6-.6-.7-1.5-.1-2.1h.1Z"/>
  <path class="st2" d="M20.6,12.2c.6.5,1.6.4,2.1-.2.5-.6.4-1.6-.2-2.1-1.6-1.3-3.3-1.3-4.9,0-.6.5-.8,1.5-.2,2.1.5.6,1.5.8,2.1.2.5-.4.6-.4,1.1,0h0Z"/>
  <path class="st2" d="M9.5,4c.8,0,1.5-.4,1.5-1.5s-.7-1.5-1.5-1.5-1.5.4-1.5,1.5.7,1.5,1.5,1.5Z"/>
  <path class="st0" d="M2.5,6c.8,0,1.5-.4,1.5-1.5s-.7-1.5-1.5-1.5-1.5.4-1.5,1.5.7,1.5,1.5,1.5Z"/>
  <path class="st3" d="M20.5,5c.8,0,1.5-.4,1.5-1.5s-.7-1.5-1.5-1.5-1.5.4-1.5,1.5.7,1.5,1.5,1.5Z"/>
  <path class="st0" d="M21.5,16c-.8,0-1.5.4-1.5,1.5s.7,1.5,1.5,1.5,1.5-.4,1.5-1.5-.7-1.5-1.5-1.5Z"/>
  <path class="st3" d="M16.5,20c-.8,0-1.5.4-1.5,1.5s.7,1.5,1.5,1.5,1.5-.4,1.5-1.5-.7-1.5-1.5-1.5Z"/>
  <path class="st1" d="M17.9,16.5c-2.4-4.5-5.9-8-10.4-10.4-.5-.3-1.1,0-1.4.4-.5.9-.9,1.8-1.3,2.7,3,1.9,5.2,3.8,7,5.8.4.4.3,1.1-.1,1.4-.4.4-1.1.3-1.4-.1-1.6-1.8-3.5-3.5-6.2-5.3-1.4,3.4-2.4,7.1-3,10.8,0,.3,0,.6.3.9.2.2.5.3.9.3,5.4-.8,10.9-2.6,15.3-5.1.5-.3.7-.9.4-1.4h-.1Z"/>
</svg>