<?xml version="1.0" encoding="UTF-8"?>
<svg id="Layer_1" data-name="Layer 1" xmlns="http://www.w3.org/2000/svg" viewBox="0 0 383.32 338.79">
  <defs>
    <style>
      .cls-1 {
        fill: #de8a26;
      }
    </style>
  </defs>
  <path class="cls-1" d="M0,154.21C16.11,19.93,171.27-29.97,285.17,17.62c130.33,54.46,130.9,223.52,1.5,279.9-39.78,17.33-89.22,21.38-131.97,15.25-8.85-1.27-17.54-3.34-26.29-5.13-11.31,9.49-22.38,18.22-36.35,23.59-17.63,6.77-42.18,8.5-61.01,7.12-1.11-.08-2.17.58-1.85-1.11,11.85-12.54,25.84-22.84,32.54-39.32,1.48-3.64,5.05-14.04,3.99-17.43-.39-1.25-17.62-13.64-20.47-16.22C20.81,242.11,3.12,210.44.69,177.11l-.69-1.19v-21.71Z"/>
</svg>