<?xml version="1.0" encoding="UTF-8"?>
<svg id="Layer_1" data-name="Layer 1" xmlns="http://www.w3.org/2000/svg" viewBox="0 0 166.31 166.06">
  <defs>
    <style>
      .cls-1 {
        fill: #fff;
      }
    </style>
  </defs>
  <path class="cls-1" d="M110.81,166.06c-5.75,0-11.44-1.4-16.5-4.16-12.83,6.04-27.81,5.3-39.96-2.01-15.95,10.79-37.62,6.56-48.41-9.39-5.36-7.96-7.21-17.8-5.07-27.19,2.96-12.67,12.83-22.58,25.47-25.57,5.85-1.4,11.92-1.27,17.71.32,14.85-17.74,41.26-20.11,59-5.26,1.53,1.27,2.96,2.63,4.26,4.13,12.18-1.2,24.11,4.09,31.42,13.9,3.51-.49,7.08-.19,10.46.81h0c7.99,2.4,14.16,8.8,16.28,16.86,3.51,12.93-4.13,26.25-17.06,29.76-4.91,1.33-10.1,1.07-14.88-.71-6.3,5.52-14.36,8.51-22.71,8.51h0ZM23.19,84.22c5.23-1.23,10.66-1.59,16.02-1.1,21.02-18.55,52.56-18.65,73.68-.16,11.99.52,23.39,5.46,31.97,13.87,2.79.23,5.56.71,8.25,1.53,3.7,1.1,7.18,2.79,10.36,5,7.5-17.54-.62-37.85-18.16-45.39-2.14-.91-4.35-1.62-6.63-2.08-5.52-1.2-11.24-.97-16.63.65-14.72-17.67-40.97-20.08-58.64-5.36-3.87,3.22-7.11,7.08-9.58,11.47-15.04-2.92-29.63,6.89-32.55,21.93v.26h0c.65-.19,1.27-.45,1.95-.62h-.03ZM9.94,74.44c6.04-15.27,20.53-25.57,36.94-26.22,19.27-23.88,54.25-27.58,78.13-8.32.65.52,1.27,1.04,1.88,1.59,4.91-.49,9.88-.23,14.68.81,6.3,1.36,12.28,3.93,17.58,7.63v-.06s.13-.06.13-.06c.88-11.44-7.67-21.41-19.1-22.32-8.02-11.99-23.2-16.96-36.74-11.99C90.9-1.48,66.95-5.05,49.96,7.49c-4.94,3.64-8.9,8.41-11.6,13.9-4.91-1.2-10.04-1.2-14.94,0C6.69,25.91-3.25,43.06,1.2,59.76c1.49,5.62,4.48,10.69,8.74,14.68h0Z"/>
</svg>