<?xml version="1.0" encoding="UTF-8"?>
<svg id="Layer_1" data-name="Layer 1" xmlns="http://www.w3.org/2000/svg" viewBox="0 0 354.2 289.13">
  <defs>
    <style>
      .cls-1 {
        fill: #de8a26;
      }
    </style>
  </defs>
  <path class="cls-1" d="M353.92,166.18c-1.85,17.27-14.85,34.94-29.97,43.03-18.43,9.86-39.17,6.09-59.25,6.81,8.13,34.93-18.76,69.72-54.26,72.01-53.99,3.49-111.68-2.71-166.05,0-54.67-5.34-60.63-79.75-7.89-94.63-.62-3.67,1.74-8.16,1.34-11.58-.33-2.89-6.04-12.43-7.4-16.88-12.24-40.05,12.56-82.31,52.97-91.61.93-29.37,19.89-55.74,46.65-67.17,37.74-16.13,82.24.43,99.39,37.49,38.89-11.93,79.23,19.07,78.91,59.44,19.98,4.41,36.63,18.71,42.99,38.31.81,2.49,2.31,7.83,2.57,10.23.38,3.51.38,11.02,0,14.54ZM254.47,193.02c25.15-2.17,61.08,9.73,73.98-19.45,8.58-19.41-1.21-42.63-22.25-47.89-6.8-1.7-14.59.6-18.98-5.93-4.2-6.23-.71-12.03-1.06-19.02-1.27-25.08-26.39-42.22-50.36-35.81-7.76,2.08-15.61,9.04-21.89-1.23-5-8.17-5.22-14.8-12.82-23.16-31.91-35.14-91.63-15.8-95.45,31.18-.45,5.52,1.31,12.86-1.77,17.61-3.83,5.9-15.04,5.26-21.94,7.81-23.91,8.85-38.39,36.87-29.91,61.44,12.65-12.7,31.32-17.5,48.71-13.17,29.26-57.24,115.89-39.19,120.46,24.86,13.19,3.12,25.88,11.36,33.27,22.76ZM67.14,174.73c-4.57,4.48-8.23,12.33-8.56,18.76s2.73,12.17-1.73,17.65c-3.5,4.29-10.38,3.44-15.42,4.64-27.96,6.64-25.12,47.95,5.74,50.1l161.86-.04c36.92-3.29,47.96-52.52,15.78-70.45-7.42-4.13-18.9-3.61-23.39-9.12-3.97-4.86-1.94-9.86-2.42-15.58-3.09-37.2-51.49-51.13-74.67-21.45-4.42,5.66-5.3,12.27-8.7,16.9-6.79,9.24-15.51.97-23.55.13-9.06-.94-18.38,2.05-24.92,8.46Z"/>
</svg>