<?xml version="1.0" encoding="UTF-8"?>
<svg id="Layer_1" data-name="Layer 1" xmlns="http://www.w3.org/2000/svg" viewBox="0 0 307.12 306.66">
  <defs>
    <style>
      .cls-1 {
        fill: #6fc7b4;
      }
    </style>
  </defs>
  <path class="cls-1" d="M204.63,306.66c-10.62,0-21.12-2.58-30.48-7.68-23.7,11.16-51.36,9.78-73.79-3.72-29.46,19.92-69.47,12.12-89.39-17.34-9.9-14.7-13.32-32.88-9.36-50.22,5.46-23.4,23.7-41.7,47.04-47.22,10.8-2.58,22.02-2.34,32.7.6,27.42-32.76,76.19-37.14,108.95-9.72,2.82,2.34,5.46,4.86,7.86,7.62,22.5-2.22,44.52,7.56,58.01,25.68,6.48-.9,13.08-.36,19.32,1.5h0c14.76,4.44,26.16,16.26,30.06,31.14,6.48,23.88-7.62,48.48-31.5,54.96-9.06,2.46-18.66,1.98-27.48-1.32-11.64,10.2-26.52,15.72-41.94,15.72h0ZM42.83,155.53c9.66-2.28,19.68-2.94,29.58-2.04,38.82-34.26,97.07-34.44,136.07-.3,22.14.96,43.2,10.08,59.03,25.62,5.16.42,10.26,1.32,15.24,2.82,6.84,2.04,13.26,5.16,19.14,9.24,13.86-32.4-1.14-69.89-33.54-83.81-3.96-1.68-8.04-3-12.24-3.84-10.2-2.22-20.76-1.8-30.72,1.2-27.18-32.64-75.65-37.08-108.29-9.9-7.14,5.94-13.14,13.08-17.7,21.18-27.78-5.4-54.72,12.72-60.11,40.5v.48h0c1.2-.36,2.34-.84,3.6-1.14h-.06ZM18.35,137.47c11.16-28.2,37.92-47.22,68.21-48.42,35.58-44.1,100.19-50.94,144.29-15.36,1.2.96,2.34,1.92,3.48,2.94,9.06-.9,18.24-.42,27.12,1.5,11.64,2.52,22.68,7.26,32.46,14.1v-.12c.06,0,.24-.12.24-.12,1.62-21.12-14.16-39.54-35.28-41.22-14.82-22.14-42.84-31.32-67.85-22.14C167.86-2.73,123.64-9.33,92.26,13.83c-9.12,6.72-16.44,15.54-21.42,25.68-9.06-2.22-18.54-2.22-27.6,0C12.35,47.84-6.01,79.52,2.21,110.36c2.76,10.38,8.28,19.74,16.14,27.12h0Z"/>
</svg>