<?xml version="1.0" encoding="UTF-8"?>
<svg id="Layer_1" data-name="Layer 1" xmlns="http://www.w3.org/2000/svg" viewBox="0 0 307.17 306.83">
  <defs>
    <style>
      .cls-1 {
        fill: #6fc7b4;
      }
    </style>
  </defs>
  <path class="cls-1" d="M179.2,306.83H0v-25.62h179.2v25.62ZM256,281.21h-51.18v25.62h51.18v-25.62ZM307.17,230.03H127.97v25.62h179.2v-25.62ZM102.41,230.03h-51.24v25.62h51.18v-25.62h.06ZM179.2,178.86H0v25.62h179.2v-25.62ZM256,178.86h-51.18v25.62h51.18v-25.62ZM246.7,137.64c71.81,20.7,84.23-90.71,9.6-86.33-13.44-18.18-35.52-27.96-58.01-25.68-28.56-31.74-77.45-34.38-109.19-5.82-2.7,2.46-5.28,5.1-7.62,7.92C47.22,18.19,11.82,38.29,2.34,72.55c-1.5,5.46-2.28,11.1-2.34,16.74.42,35.58,29.64,64.07,65.21,63.65,12.6-.18,24.9-4.02,35.34-11.04,22.44,13.56,50.16,14.94,73.79,3.72,23.4,12.6,52.2,9.42,72.35-7.98h0Z"/>
</svg>