<?xml version="1.0" encoding="UTF-8"?>
<svg id="Layer_1" data-name="Layer 1" xmlns="http://www.w3.org/2000/svg" viewBox="0 0 166.34 166.15">
  <defs>
    <style>
      .cls-1 {
        fill: #fff;
      }
    </style>
  </defs>
  <path class="cls-1" d="M97.04,166.15H0v-13.87h97.04v13.87ZM138.62,152.28h-27.71v13.87h27.71v-13.87ZM166.34,124.56h-97.04v13.87h97.04v-13.87ZM55.46,124.56h-27.74v13.87h27.71v-13.87h.03ZM97.04,96.85H0v13.87h97.04v-13.87ZM138.62,96.85h-27.71v13.87h27.71v-13.87ZM133.59,74.53c38.89,11.21,45.61-49.12,5.2-46.75-7.28-9.84-19.23-15.14-31.42-13.9-15.46-17.19-41.94-18.62-59.13-3.15-1.46,1.33-2.86,2.76-4.13,4.29C25.57,9.85,6.4,20.73,1.27,39.28c-.81,2.96-1.23,6.01-1.27,9.06.23,19.27,16.05,34.7,35.31,34.47,6.82-.1,13.48-2.18,19.14-5.98,12.15,7.34,27.16,8.09,39.96,2.01,12.67,6.82,28.26,5.1,39.18-4.32h0Z"/>
</svg>