<?xml version="1.0" encoding="UTF-8"?>
<svg id="Layer_1" data-name="Layer 1" xmlns="http://www.w3.org/2000/svg" viewBox="0 0 350.38 299.47">
  <defs>
    <style>
      .cls-1 {
        fill: #de8a26;
      }
    </style>
  </defs>
  <path class="cls-1" d="M58.34,45.38c16.3-51.31,85.65-61.63,117.22-17.9,32.28-43.67,100.03-33.46,117.86,17.64,45,1.65,72.48,51.66,47.5,90.1-12.08,18.6-29.85,26.02-51.55,27.05-75.12,3.54-152.97-2.75-228.38,0-48.62.35-78.61-52.33-49.6-93.09,10.58-14.87,28.66-23.98,46.95-23.79ZM117.39,18.73c-16.21,1.47-32.16,11.94-39.18,26.7-3.1,6.53-3.41,19.08-12.75,19.44-8.25.32-11.73-1.49-20.73,1.72-38.9,13.85-31.32,72.07,9.53,76.21,43.03-2.6,89.97,3.37,132.55,0,42.37-3.35,48.68-64.38,8.55-76.72-7.86-2.42-13.52-.84-20.51-1.95-6.98-1.11-7.58-12.25-10-17.69-7.85-17.6-28.22-29.46-47.46-27.71ZM226.83,142.77h71.49c3.5,0,14.11-5.21,17.22-7.48,28.63-20.98,15.84-67.51-19.55-71.02-5.2-.52-12.58,1.47-16.37-2.34-2.98-2.99-3.62-9.42-5.26-13.46-15.48-38.28-68.66-39.59-87.19-3.38,40.12,3.91,65.87,44.52,49.29,82.23-2.54,5.78-6.1,10.32-9.62,15.45Z"/>
  <path class="cls-1" d="M44.72,222.27c2.13-.48,6.5-.32,8.81-.15,22.81,1.72,32.16,22.11,58.22,12.53,17.77-6.53,20.84-14.42,43.58-12.53,22.57,1.87,32.26,20.95,57.24,13.05,5.94-1.88,11.04-6.29,16.74-8.71,15.25-6.47,32.78-5.9,47.7,1.22,5.56,2.66,10.05,6.81,16.4,8.3,5.97,1.41,15.33-.52,18.18,6.52,2.57,6.33-1.54,12.53-8.04,13.28-20.15,2.33-31.57-13.72-48.67-14.96-19.06-1.38-29.61,13.39-48.66,14.95-19.33,1.58-24.72-4.13-40.28-11.35-27.16-12.61-37.94,9.56-62.27,11.35-20.49,1.5-24.85-4.94-41.27-11.86-6.48-2.73-9.91-2.17-16.3-3.17-10.64-1.66-10.1-16.53-1.4-18.49Z"/>
  <path class="cls-1" d="M309.66,283c5.76,5.76,1.85,15.26-6.09,16.23-19.57,2.39-31.56-13.61-47.94-14.97-19.92-1.66-30.23,13.52-50.15,14.95-20.01,1.44-24.6-5.01-40.52-11.86-26.72-11.5-37.42,10.03-61.29,11.86-23.1,1.77-26.72-7.52-44.36-13.26-7.93-2.58-21.93.63-21.18-11.83.52-8.65,8.38-9.1,15.39-8.58,23.03,1.73,32.57,22.28,58.76,12.33,17.69-6.72,20.45-14.05,43.08-12.37,23.65,1.76,34.25,23.42,60.96,11.62,16.37-7.23,20.3-13.14,40.84-11.62,16.92,1.26,26.28,11.92,42.73,14.91,3.67.67,6.43-.74,9.76,2.59Z"/>
  <path class="cls-1" d="M45.49,178.87c19.91-3.61,32.42,13.26,49.32,14.7,21.84,1.85,33.35-17.1,60.52-14.86,18.58,1.53,28.81,15.68,47.21,14.99,15.92-.6,26.23-13.68,44.13-14.99,24.69-1.81,27.84,8.9,46.18,13.69,7.9,2.06,21.41-.39,19.26,12.84-1.16,7.13-9.65,7.55-15.29,7.14-23.07-1.67-32.08-22.41-58.76-12.33-17.09,6.46-20.56,13.94-42.33,12.37-18.92-1.37-29.72-15.71-47.91-15.03-15.66.58-26.06,13.56-43.39,14.99-21.03,1.74-25.25-4.65-42.01-11.86-6.67-2.87-10.49-2.11-16.94-3.28-9.76-1.76-9.81-16.58,0-18.36Z"/>
</svg>