<?xml version="1.0" encoding="UTF-8"?>
<svg id="Layer_1" data-name="Layer 1" xmlns="http://www.w3.org/2000/svg" viewBox="0 0 373.81 264.49">
  <defs>
    <style>
      .cls-1 {
        fill: #de8a26;
      }
    </style>
  </defs>
  <path class="cls-1" d="M39.26,155.53c7.62-56.73,75.08-83.99,119.56-47.02,17.64-37.93,60.11-57.37,100.31-43.41,60.54,21.03,72.34,101.57,21.7,140,1.28,33.77-19.54,56.46-53.16,58.37-56.82,3.22-116.56-2.42-173.68.04-63.64-4.04-74.13-88.89-14.73-107.98ZM274.47,187.87c23.3-19.61,27.68-55.23,11.53-80.78-24.39-38.6-81.45-39.31-105.85-.82,34.57-5.48,66.11,21.73,65.2,56.82,12.4,3.16,23.9,13.13,29.13,24.77ZM106.64,108.76c-23.63,2.13-43.36,19.38-49.04,42.29-1.69,6.83-.07,16.01-7.18,19.02-6.57,2.78-10.8,2.53-17.24,7.47-27.98,21.43-14.44,66,20.8,68.76,61.04-.68,122.31,1.25,183.21-.98,32.51-8.3,35.83-53.36,4.09-65.81-3.84-1.51-9.63-1.38-12.09-5.12-2.8-4.24-.64-12.26-1.16-17.56-2.45-25.07-30.11-40.24-53.12-30.68-4.85,2.02-9.18,7.05-14.42,6.18-4.19-.69-9.09-7.8-12.53-10.7-11.15-9.4-26.78-14.18-41.33-12.87Z"/>
  <path class="cls-1" d="M300.92,60.88c3.42-3.96,15.83-16.92,19.9-20.12,9.53-7.5,19.82,1.82,13.08,11.56-1.86,2.69-20.36,21.06-22.72,22.19-9.53,4.59-17.05-5.77-10.26-13.63Z"/>
  <path class="cls-1" d="M299.4,218.33c-6.03-7.16,1.75-18.43,11.27-13.14,1.8,1,21.09,20.28,22.5,22.41,5.2,7.79-1.02,16.3-9.87,13.6l-23.9-22.87Z"/>
  <path class="cls-1" d="M137.26,38.33c3.84-.89,5.88-.14,8.81,2.11,3.58,2.75,18.66,17.58,20.93,20.99,5.81,8.71-2.81,18.01-10.77,13.02-1.96-1.23-22.35-21.62-23.58-23.58-2.79-4.45-.52-11.34,4.61-12.53Z"/>
  <path class="cls-1" d="M227.56,2.49c4.86-4.86,13.61-2.24,14.67,4.66.72,4.66.76,27.58-.13,31.97-1.76,8.72-15.55,8.6-16.98-1.39-.83-5.86-.75-23.11-.07-29.13.22-1.94,1.13-4.74,2.5-6.11Z"/>
  <path class="cls-1" d="M330.86,146.45c-4.86-4.86-2.24-13.61,4.66-14.67,4.66-.72,27.58-.76,31.97.13,8.72,1.76,8.6,15.55-1.39,16.98-5.86.83-23.11.75-29.13.07-1.94-.22-4.74-1.13-6.11-2.5Z"/>
</svg>