<?xml version="1.0" encoding="UTF-8"?>
<svg id="Layer_1" data-name="Layer 1" xmlns="http://www.w3.org/2000/svg" viewBox="0 0 166 166.34">
  <defs>
    <style>
      .cls-1 {
        fill: #fff;
      }
    </style>
  </defs>
  <path class="cls-1" d="M131.7,166.34h-62.38c-15.33-.16-27.61-12.74-27.45-28.07.13-12.48,8.58-23.33,20.63-26.54,2.31-38.11,55.1-48.8,72.09-14.59,43.53,4.45,41.1,68.26-2.89,69.2ZM100.52,62.38c6.72,0,13.42,1.33,19.65,3.87v-.06c-.52-2.14-1.2-4.26-2.05-6.34l27.55-16.05-6.95-11.96-27.52,16.02c-1.98-2.44-4.22-4.65-6.66-6.59l15.98-27.48-11.99-6.92-15.95,27.42c-3.05-1.17-6.21-2.01-9.42-2.53V0h-13.87v31.77c-3.18.49-6.3,1.33-9.32,2.5l-15.92-27.45-11.96,6.98,15.95,27.39c-2.44,1.98-4.68,4.19-6.69,6.63l-27.48-15.95-6.92,11.99,27.42,15.95c-1.2,3.09-2.08,6.27-2.57,9.52H0v13.84h31.77c.49,3.25,1.33,6.43,2.5,9.49l-27.35,15.92,7.02,11.96,37.23-21.96c6.85-21.47,26.77-36.09,49.35-36.19Z"/>
</svg>