<?xml version="1.0" encoding="UTF-8"?>
<svg id="Layer_1" data-name="Layer 1" xmlns="http://www.w3.org/2000/svg" viewBox="0 0 306.55 307.17">
  <defs>
    <style>
      .cls-1 {
        fill: #6fc7b4;
      }
    </style>
  </defs>
  <path class="cls-1" d="M243.22,307.17h-115.19c-28.32-.3-51-23.52-50.7-51.84.24-23.04,15.84-43.08,38.1-49.02,4.26-70.37,101.75-90.11,133.13-26.94,80.39,8.22,75.89,126.05-5.34,127.79ZM185.62,115.19c12.42,0,24.78,2.46,36.3,7.14v-.12c-.96-3.96-2.22-7.86-3.78-11.7l50.88-29.64-12.84-22.08-50.82,29.58c-3.66-4.5-7.8-8.58-12.3-12.18l29.52-50.76-22.14-12.78-29.46,50.64c-5.64-2.16-11.46-3.72-17.4-4.68V0h-25.62v58.67c-5.88.9-11.64,2.46-17.22,4.62l-29.4-50.7-22.08,12.9,29.46,50.58c-4.5,3.66-8.64,7.74-12.36,12.24l-50.76-29.46-12.78,22.14,50.64,29.46c-2.22,5.7-3.84,11.58-4.74,17.58H0v25.56h58.67c.9,6,2.46,11.88,4.62,17.52l-50.52,29.4,12.96,22.08,68.75-40.56c12.66-39.66,49.44-66.65,91.13-66.83Z"/>
</svg>