<?xml version="1.0" encoding="UTF-8"?>
<svg id="Layer_1" data-name="Layer 1" xmlns="http://www.w3.org/2000/svg" viewBox="0 0 166.19 166.34">
  <defs>
    <style>
      .cls-1 {
        fill: #fff;
      }
    </style>
  </defs>
  <path class="cls-1" d="M96.96,166.34c-11.05,0-21.64-4.35-29.4-12.18-16.15-16.28-16.15-42.53,0-58.8l29.4-31.16,29.53,31.32c15.98,16.31,15.92,42.43-.13,58.67h0c-7.8,7.8-18.39,12.18-29.4,12.15ZM34.58,83.17c-9.19.03-18.03-3.64-24.5-10.17-13.45-13.58-13.45-35.44,0-48.99L34.58,0l24.43,23.91c13.51,13.55,13.51,35.48.06,49.06-6.5,6.53-15.3,10.2-24.5,10.17h0v.03ZM138.54,69.3c-7.34.03-14.42-2.89-19.59-8.12-10.75-10.85-10.75-28.36,0-39.21L138.41.32l19.95,21.86c10.53,10.88,10.43,28.2-.23,38.99h0c-5.2,5.23-12.25,8.15-19.59,8.12h0Z"/>
</svg>