<?xml version="1.0" encoding="UTF-8"?>
<svg id="Layer_1" data-name="Layer 1" xmlns="http://www.w3.org/2000/svg" viewBox="0 0 306.9 307.17">
  <defs>
    <style>
      .cls-1 {
        fill: #6fc7b4;
      }
    </style>
  </defs>
  <path class="cls-1" d="M179.05,307.17c-20.4,0-39.96-8.04-54.3-22.5-29.82-30.06-29.82-78.53,0-108.59l54.3-57.53,54.54,57.83c29.52,30.12,29.4,78.35-.24,108.35h0c-14.4,14.4-33.96,22.5-54.3,22.44ZM63.86,153.59c-16.98.06-33.3-6.72-45.24-18.78-24.84-25.08-24.84-65.45,0-90.47L63.86,0l45.12,44.16c24.96,25.02,24.96,65.51.12,90.59-12,12.06-28.26,18.84-45.24,18.78h0v.06ZM255.85,127.97c-13.56.06-26.64-5.34-36.18-15-19.86-20.04-19.86-52.38,0-72.41L255.61.6l36.84,40.38c19.44,20.1,19.26,52.08-.42,71.99h0c-9.6,9.66-22.62,15.06-36.18,15h0Z"/>
</svg>