<?xml version="1.0" encoding="UTF-8"?>
<svg id="Layer_1" data-name="Layer 1" xmlns="http://www.w3.org/2000/svg" viewBox="0 0 282.4 282.21">
  <defs>
    <style>
      .cls-1 {
        fill: #de8a26;
      }
    </style>
  </defs>
  <path class="cls-1" d="M111.57,282.09c-20.15-2.42-31.38-24.46-27.98-43.11,1.14-6.27,9.35-8.59,13.92-4.25,3.96,3.77,2.06,10.23,2.49,15.13,1.86,20.76,31.39,20.93,33.08-.52v-87.64c.05-2.28-2.99-4.85-4.72-6.28-11.69-9.68-28.95-9.59-40.5.25-3.31,2.82-6.58,9.05-10.42,9.96-7.91,1.86-9.92-5.8-14.91-9.96-11.98-9.98-29.78-9.88-41.63.27-5.13,4.39-7.69,13-16.18,9.04-6.62-3.09-4.53-15.75-3.91-21.97,3.61-36.47,23.2-71.62,51.54-94.46,23.03-18.56,51.06-29.23,80.66-31.47-.28-7.04-.95-17.79,9.14-17.03,8.87.67,7.51,10.68,7.51,17.03,27.27,2.1,53.4,11.19,75.39,27.37,32.36,23.81,54.78,62.85,57.36,103.24v12.12c-1.29,2.18-2.02,4.03-4.47,5.17-8.49,3.96-11.05-4.65-16.18-9.04-11.85-10.14-29.64-10.25-41.63-.27-5.04,4.2-7,11.82-14.91,9.96-3.86-.9-4.76-4.23-7.11-6.66-10.14-10.47-24.29-14.18-37.86-7.52-2.76,1.36-10.29,6.78-10.68,9.71l.05,90.94c-1.65,15.28-13.24,27-28.12,30-3.16-.27-6.84.37-9.92,0ZM133.06,35.31c-3.82.51-7.55,2.86-10.64,5.06-24.63,17.54-37.15,64.36-38.43,93.24-.04.93-.49,4.54.84,4.15,1.24-.37,3.21-1.88,4.71-2.46,14.64-5.64,29.88-4.82,43.53,3.02V35.31ZM149.59,35.31v103.01c13.64-7.84,28.88-8.66,43.53-3.02,1.5.58,3.47,2.09,4.71,2.46,1.32.39.88-3.22.84-4.15-1.28-28.85-13.83-75.73-38.43-93.24-3.09-2.2-6.82-4.55-10.64-5.06ZM97.24,41.92c-40.88,14.73-71.66,52.47-78.8,95.29,15.51-7.61,33.39-7.57,48.49,1.1,2.31-33.85,9.73-68.8,30.32-96.39ZM264.22,137.21c-7.23-42.78-37.89-80.59-78.8-95.29,20.56,27.61,28.03,62.52,30.31,96.39,3.47-1.7,6.86-3.43,10.6-4.55,13.03-3.9,25.74-2.3,37.89,3.45Z"/>
</svg>