<?xml version="1.0" encoding="UTF-8"?>
<svg id="Layer_1" data-name="Layer 1" xmlns="http://www.w3.org/2000/svg" viewBox="0 0 298.05 305.67">
  <defs>
    <style>
      .cls-1 {
        fill: #6fc7b4;
      }
    </style>
  </defs>
  <path class="cls-1" d="M219.64,149.51l-29.28,29.28h-35.46c-1.44-4.14-3.66-7.98-6.42-11.34l18.42-30.36,40.2-9.84-6.12-24.84-32.94,8.1-8.1-32.94-24.78,6,9.84,40.2-18.3,30.18c-5.16-1.08-10.5-1.08-15.66,0l-18.3-30.18,9.84-40.2-24.84-6.12-8.1,32.94-32.94-8.1-6.12,24.84,40.2,9.84,18.42,30.36c-2.76,3.36-4.92,7.2-6.42,11.34h-35.4l-29.28-29.28L0,167.56l24,24L0,215.56l18.12,18.12,29.28-29.28h35.46c1.44,4.14,3.66,7.98,6.42,11.34l-18.36,30.36-40.2,9.84,6.12,24.84,32.94-8.1,8.1,32.94,24.84-6.12-9.84-40.14,18.3-30.18c5.16,1.08,10.5,1.08,15.66,0l18.3,30.18-9.84,40.2,24.84,6.12,8.1-32.94,32.94,8.1,6.12-24.84-40.2-9.84-18.42-30.36c2.76-3.36,4.92-7.2,6.42-11.34h35.46l29.28,29.28,18.12-18.12-24.18-24.06,24-24-18.12-18.06h0ZM106.07,191.56c0-7.08,5.76-12.78,12.78-12.78s12.78,5.76,12.78,12.78-5.76,12.78-12.78,12.78-12.78-5.7-12.78-12.78ZM298.05,63.59h-29.1l14.46,25.26-22.2,12.78-14.34-25.14-14.4,25.08-22.2-12.78,14.46-25.2h-29.1v-25.62h29.1l-14.46-25.26L232.48,0l14.34,25.02,14.34-25.02,22.2,12.72-14.4,25.26h29.1v25.62Z"/>
</svg>