<?xml version="1.0" encoding="UTF-8"?>
<svg id="Layer_1" data-name="Layer 1" xmlns="http://www.w3.org/2000/svg" viewBox="0 0 292.35 292.12">
  <defs>
    <style>
      .cls-1 {
        fill: #de8a26;
      }
    </style>
  </defs>
  <path class="cls-1" d="M0,181.98c4.74-8.73,12.37-.55,18.25,2.28-2.32-5.48-.35-12.85,6.88-10.58,4.94,1.55,5.57,14.59,7.53,19l26.67,14.98v-30.52c-3.28-4.89-17.57-12.54-11.16-19.15,4.01-4.13,8.21,0,11.16,2.89v-13.41c0-1.98,4.06-3.83,5.98-3.74,1.98.09,5.43,2.4,5.43,4.31v12.84c2.75-1.79,3.75-5.02,7.65-4.55,4.06.49,5.81,4.29,4.65,8-.93,2.95-10.16,9.69-12.29,12.8v30.52l26.68-14.96c1.38-3.9,2.99-17.71,6.99-18.94,7.54-2.31,9.47,4.63,7.41,10.51,4.58-2.08,11.64-9.3,16.51-4.82,7.01,6.46-6.11,12.59-10.8,14.52l5.32,2.37c3.18,1.87,3.58,6.68.68,9.05-4.81,3.94-15.12-2.71-20.86-2.62l-25.29,14.55-.35,1.17,25.65,14.6c5.61.07,15.78-6.3,20.54-2.87,3.18,2.29,3.02,7.23-.36,9.29l-5.32,2.37c4.75,1.95,17.79,8.07,10.8,14.52-4.94,4.55-11.85-2.81-16.51-4.82,2.01,5.64.33,12.38-7,10.68-4.52-1.04-5.92-15.04-7.4-19.11l-26.68-14.96v30.52c3.22,4.59,16.38,12.08,11.68,18.53-3.64,5-8.75,1-11.68-2.27v12.84c0,1.9-3.45,4.24-5.43,4.32-1.8.08-5.98-1.95-5.98-3.75v-13.41c-1.63.76-2.53,2.81-4.04,3.66-5.51,3.13-11.07-2.91-7.95-7.96,2.24-3.62,9.27-8.17,11.99-11.96v-30.52l-26.67,14.98c-1.95,4.41-2.59,17.45-7.53,19-7.24,2.26-9.21-5.11-6.88-10.58-5.88,2.83-13.51,11.01-18.25,2.28v-3.42c2.62-4.28,8.16-6.34,12.55-8.56-1.05-1.45-3.5-1.13-5.09-2.03-2.51-1.43-3.49-4.37-2.64-7.12,2.5-8.03,17.14.51,22.58.36l25.65-14.88-3.25-2.45-22.4-12.99c-2.58-.64-13.24,4.06-16.95,4.14-5.79.13-8.36-7.84-3-10.9,1.59-.9,4.04-.58,5.09-2.03-4.39-2.23-9.93-4.28-12.55-8.56v-3.42Z"/>
  <path class="cls-1" d="M228.76,0c.95.85,3.99,2.32,3.99,3.71v13.41c2.66-1.85,3.82-4.81,7.63-4.54,4.19.3,6.53,5.35,4.36,8.84-2.26,3.64-9.26,8.16-11.99,11.96v30.52l26.67-14.98c1.89-4.28,2.63-17,7.13-18.82,7.2-2.91,9.8,4.84,7.28,10.41,4.61-1.9,11.64-9.29,16.51-4.82,7.01,6.46-6.11,12.6-10.8,14.52,1.05,1.45,3.5,1.13,5.09,2.03,5.36,3.05,2.8,11.03-3,10.9-3.71-.08-14.37-4.78-16.95-4.14l-25.29,14.55-.35,1.17,25.65,14.6c5.44.15,20.08-8.39,22.58-.36.85,2.74-.13,5.69-2.64,7.12-1.59.91-4.04.58-5.09,2.03,4.75,1.95,17.8,8.08,10.8,14.52-4.86,4.48-11.88-2.9-16.51-4.82,2.32,5.48.35,12.85-6.88,10.58-4.94-1.55-5.57-14.59-7.53-19l-26.67-14.98v30.52c3.38,5.01,16.91,11.99,11.43,18.84-3.65,4.56-8.53.47-11.43-2.58v13.41c0,1.8-4.18,3.83-5.98,3.75-1.98-.08-5.43-2.42-5.43-4.32v-12.84c-2.75,1.79-3.75,5.02-7.65,4.55-4.06-.49-5.81-4.29-4.65-8,.93-2.95,10.16-9.69,12.29-12.8v-30.52l-26.68,14.96c-1.38,3.9-2.99,17.71-6.99,18.94-7.54,2.31-9.47-4.63-7.41-10.51-4.58,2.08-11.64,9.3-16.51,4.82-7.11-6.56,6.23-12.41,10.8-14.52l-5.32-2.37c-3.18-1.87-3.58-6.68-.68-9.05,4.73-3.87,15.2,2.59,20.86,2.62,7.4-4.82,15.77-8.64,23.18-13.35.72-.46,2.73-1.14,2.48-2.08l-25.65-14.88c-5.52.04-15.86,6.24-20.54,2.87-3.18-2.29-3.02-7.23.36-9.29l5.32-2.37c-4.62-2.13-17.9-7.98-10.8-14.52,4.86-4.49,11.91,2.72,16.51,4.82-1.93-5.74-.44-12.41,7-10.68,4.52,1.05,5.92,15.04,7.4,19.11l26.68,14.96v-30.52c-3.22-4.59-16.38-12.08-11.68-18.53,3.64-5,8.75-1,11.68,2.27V4.28c0-1.43,2.79-3.56,3.99-4.28h3.42Z"/>
  <path class="cls-1" d="M96.41,0c6.05,2.66,4.88,11.43-1.99,11.46-6.43.03-7.37-8.75-2-11.46h3.99Z"/>
  <path class="cls-1" d="M0,98.12v-3.99c2.39-3.95,7.2-5.74,10.27-1.43,4.99,7.02-6.13,13.24-10.27,5.42Z"/>
  <path class="cls-1" d="M47.21,30.95c26.56-3.6,30.32,35.81,5.5,38.58-25.95,2.9-29.69-35.3-5.5-38.58ZM48.92,42.34c-9.85,1.42-8.13,16.78,2.06,15.82,10.44-.98,8.84-17.4-2.06-15.82Z"/>
  <path class="cls-1" d="M143.05,126.79c26.56-3.6,30.32,35.81,5.5,38.58-25.95,2.9-29.69-35.3-5.5-38.58ZM144.76,138.18c-9.85,1.42-8.13,16.78,2.06,15.82,10.44-.98,8.84-17.4-2.06-15.82Z"/>
  <path class="cls-1" d="M238.89,222.63c26.56-3.6,30.32,35.81,5.5,38.58-25.95,2.9-29.69-35.3-5.5-38.58ZM240.6,234.02c-9.85,1.42-8.13,16.78,2.06,15.82,10.44-.98,8.84-17.4-2.06-15.82Z"/>
  <path class="cls-1" d="M281.99,193.56c4.84-5.47,13.54,1.62,8.96,7.53-4.69,6.06-14.27-1.52-8.96-7.53Z"/>
  <path class="cls-1" d="M192.43,192.99c4.73-5.37,13.68,1.43,8.96,7.53-4.72,6.1-14.01-1.81-8.96-7.53Z"/>
  <path class="cls-1" d="M99.64,91.47c4.89,4.93-2.29,13.54-8.09,8.38-5.84-5.18,2.6-13.92,8.09-8.38Z"/>
  <path class="cls-1" d="M194.95,280.79c8.14-1.56,9.45,10.42,2.09,11.27s-8.8-9.99-2.09-11.27Z"/>
</svg>