<?xml version="1.0" encoding="UTF-8"?>
<svg id="Layer_1" data-name="Layer 1" xmlns="http://www.w3.org/2000/svg" viewBox="0 0 161.4 165.52">
  <defs>
    <style>
      .cls-1 {
        fill: #fff;
      }
    </style>
  </defs>
  <path class="cls-1" d="M118.94,80.96l-15.85,15.85h-19.2c-.78-2.24-1.98-4.32-3.48-6.14l9.97-16.44,21.77-5.33-3.31-13.45-17.84,4.39-4.39-17.84-13.42,3.25,5.33,21.77-9.91,16.34c-2.79-.58-5.69-.58-8.48,0l-9.91-16.34,5.33-21.77-13.45-3.31-4.39,17.84-17.84-4.39-3.31,13.45,21.77,5.33,9.97,16.44c-1.49,1.82-2.66,3.9-3.48,6.14h-19.17l-15.85-15.85L0,90.74l13,13L0,116.73l9.81,9.81,15.85-15.85h19.2c.78,2.24,1.98,4.32,3.48,6.14l-9.94,16.44-21.77,5.33,3.31,13.45,17.84-4.39,4.39,17.84,13.45-3.31-5.33-21.73,9.91-16.34c2.79.58,5.69.58,8.48,0l9.91,16.34-5.33,21.77,13.45,3.31,4.39-17.84,17.84,4.39,3.31-13.45-21.77-5.33-9.97-16.44c1.49-1.82,2.66-3.9,3.48-6.14h19.2l15.85,15.85,9.81-9.81-13.09-13.03,13-13-9.81-9.78h0ZM57.44,103.73c0-3.83,3.12-6.92,6.92-6.92s6.92,3.12,6.92,6.92-3.12,6.92-6.92,6.92-6.92-3.09-6.92-6.92ZM161.4,34.44h-15.76l7.83,13.68-12.02,6.92-7.76-13.61-7.8,13.58-12.02-6.92,7.83-13.64h-15.76v-13.87h15.76l-7.83-13.68,12.02-6.89,7.76,13.55,7.76-13.55,12.02,6.89-7.8,13.68h15.76v13.87Z"/>
</svg>