<?xml version="1.0" encoding="UTF-8"?>
<svg id="Layer_1" data-name="Layer 1" xmlns="http://www.w3.org/2000/svg" viewBox="0 0 352.37 352.44">
  <defs>
    <style>
      .cls-1 {
        fill: #de8a26;
      }
    </style>
  </defs>
  <path class="cls-1" d="M178.96,0c3.79,1.86,6.78,4.17,7.51,8.66-.89,14.13,1.4,30.11.09,44.02-1.26,13.41-19.27,13-20.68.66-1.58-13.81,1.13-30.55.06-44.68.73-4.49,3.72-6.8,7.51-8.66h5.51Z"/>
  <path class="cls-1" d="M0,178.96v-5.51c1.86-3.79,4.17-6.78,8.66-7.51,14.13,1.07,30.87-1.64,44.68-.06,12.34,1.41,12.75,19.41-.66,20.68-13.9,1.31-29.89-.98-44.02-.09-4.49-.73-6.8-3.72-8.66-7.51Z"/>
  <path class="cls-1" d="M167.81,83.49c90.83-7.16,137.53,105.08,67.92,164.28-50.55,42.99-129.89,18.18-148.65-44.72-16.65-55.82,22.5-114.97,80.74-119.56ZM171.25,104.14c-55.75,3.93-86,66.82-54.39,113.18,29.13,42.71,94.09,40.85,120.9-3.3,30.4-50.05-8.2-113.98-66.51-109.87Z"/>
  <path class="cls-1" d="M37,28.37c3.27-.47,6.13.8,8.77,2.61l50.59,50.59c8.22,10.29-4.43,23.03-14.79,14.79L30.98,45.77c-5.43-6.07-1.89-16.25,6.03-17.4Z"/>
  <path class="cls-1" d="M312.33,28.37c9.12-1.33,15.38,9.64,9.42,17.02l-50.89,50.98c-10.35,7.98-22.59-3.87-15.1-14.41l50.53-50.65c1.56-1.24,4.1-2.65,6.04-2.93Z"/>
  <path class="cls-1" d="M87.25,253.45c9.12-1.33,15.38,9.64,9.42,17.02l-50.89,50.98c-10.35,7.98-22.59-3.87-15.1-14.41l50.53-50.65c1.56-1.24,4.1-2.65,6.04-2.93Z"/>
  <path class="cls-1" d="M262.08,253.45c3.27-.47,6.13.8,8.77,2.61l50.59,50.59c8.22,10.29-4.43,23.03-14.79,14.79l-50.59-50.59c-5.43-6.07-1.89-16.25,6.03-17.4Z"/>
  <path class="cls-1" d="M297.85,166.04c5.95-1.08,40.53-1.08,46.49,0,10.87,1.98,10.74,18.82-.59,20.43-13.7,1.94-31.74-1.2-45.9-.1-10.75-2.24-10.69-18.38,0-20.33Z"/>
  <path class="cls-1" d="M173.96,289.94c6.3-1.14,11.85,2.77,12.58,9.13,1.59,13.95-1.06,30.99-.16,45.27-2.86,11.41-19.15,10.53-20.49-1.22-1.58-13.81,1.13-30.55.06-44.68.57-3.99,4.03-7.78,8.01-8.5Z"/>
  <path class="cls-1" d="M39.73,110.98c2.32-.48,4.66-.23,6.95.31,3.31.78,18.58,7.22,21.12,9.17,9.21,7.05,2.97,20.41-8.78,18.41-2.47-.42-20.14-7.95-22.18-9.47-7-5.22-5.52-16.67,2.9-18.42Z"/>
  <path class="cls-1" d="M288.22,213.54c2.24-.41,4.07-.23,6.26.31,3.16.78,18.67,7.35,21.11,9.17,9.47,7.06,3.47,20.54-8.78,18.41-2.82-.49-19.91-7.74-22.18-9.47-7.18-5.49-4.86-16.87,3.6-18.42Z"/>
  <path class="cls-1" d="M118.2,32.51c4.53-.94,8.49.69,11.2,4.32,1.69,2.27,8.44,18.14,9.17,21.11,3.06,12.45-10.82,19.39-18.11,9.85-1.84-2.41-8.42-17.97-9.17-21.12-1.36-5.74.42-12.82,6.91-14.17Z"/>
  <path class="cls-1" d="M229.02,32.51c8.13-1.69,13.59,4.64,12.52,12.52-.37,2.73-7.59,20.02-9.27,22.38-6.76,9.5-20.31,3.83-18.82-7.81.31-2.42,7.26-19.06,8.74-21.54,1.29-2.15,4.36-5.03,6.84-5.54Z"/>
  <path class="cls-1" d="M283.14,136.04c-4.89-5.21-3.42-12.35,2.28-16.16,2.46-1.64,19.26-8.63,21.97-9,12.73-1.74,17.6,12.99,6.97,19.35-2.67,1.59-18.26,8.18-20.96,8.64-3.7.63-7.63-.02-10.26-2.83Z"/>
  <path class="cls-1" d="M59.01,213.54c11.84-2.23,18.13,11.79,8.4,18.72-2.47,1.76-18.24,8.42-21.25,9.03-13.85,2.83-19.39-13.02-7.19-19.57,3.13-1.68,17.01-7.61,20.04-8.18Z"/>
  <path class="cls-1" d="M127.17,280.29c7.82-1.13,12.96,5.7,11.7,13.11-.41,2.4-7.71,19.68-9.17,21.8-6.83,9.9-20.9,4.16-18.72-8.4.47-2.72,7.28-18.97,8.9-21.38s4.38-4.71,7.29-5.13Z"/>
  <path class="cls-1" d="M222.16,280.29c4.09-.6,7.75,1.41,10.1,4.71,1.66,2.34,8.45,18.41,9.03,21.25,2.59,12.65-11.08,18.97-18.28,9.33-1.59-2.13-8.76-18.93-9.33-21.64-1.35-6.37,1.68-12.67,8.48-13.66Z"/>
</svg>