<?xml version="1.0" encoding="UTF-8"?>
<svg id="Layer_1" data-name="Layer 1" xmlns="http://www.w3.org/2000/svg" viewBox="0 0 307.17 307.17">
  <defs>
    <style>
      .cls-1 {
        fill: #6fc7b4;
      }
    </style>
  </defs>
  <path class="cls-1" d="M242.14,166.36c-1.02,7.08-2.82,13.98-5.52,20.64l56.09,32.7-12.78,22.14-56.15-32.7c-4.2,5.34-9.06,10.2-14.34,14.4l32.76,56.33-22.2,12.84-32.7-56.21c-6.72,2.7-13.74,4.62-20.94,5.64v65.03h-25.62v-65.03c-7.14-1.02-14.1-2.88-20.76-5.58l-32.64,56.15-22.08-12.9,32.7-56.21c-5.34-4.26-10.2-9.12-14.46-14.46l-56.03,32.64-12.9-22.14,55.97-32.58c-2.7-6.66-4.56-13.62-5.52-20.7H0v-25.62h65.03c1.02-7.14,2.88-14.16,5.58-20.82L14.52,87.29l12.9-22.14,56.15,32.7c4.32-5.4,9.24-10.32,14.7-14.58l-32.64-56.09,22.14-12.9,32.58,56.09c6.6-2.64,13.44-4.44,20.46-5.46V0h25.62v65.03c7.08,1.02,13.98,2.82,20.58,5.52l32.64-56.15,22.14,12.84-32.7,56.15c5.4,4.26,10.32,9.18,14.58,14.58l56.33-32.76,12.9,22.14-56.33,32.76c2.7,6.66,4.56,13.62,5.58,20.7h65.03v25.62h-65.03v-.06Z"/>
</svg>