<?xml version="1.0" encoding="UTF-8"?>
<svg id="Layer_1" data-name="Layer 1" xmlns="http://www.w3.org/2000/svg" viewBox="0 0 166.34 166.34">
  <defs>
    <style>
      .cls-1 {
        fill: #fff;
      }
    </style>
  </defs>
  <path class="cls-1" d="M131.12,90.09c-.55,3.83-1.53,7.57-2.99,11.18l30.38,17.71-6.92,11.99-30.41-17.71c-2.27,2.89-4.91,5.52-7.76,7.8l17.74,30.51-12.02,6.95-17.71-30.44c-3.64,1.46-7.44,2.5-11.34,3.05v35.22h-13.87v-35.22c-3.87-.55-7.63-1.56-11.24-3.02l-17.67,30.41-11.96-6.98,17.71-30.44c-2.89-2.31-5.52-4.94-7.83-7.83l-30.34,17.67-6.98-11.99,30.31-17.64c-1.46-3.61-2.47-7.37-2.99-11.21H0v-13.87h35.22c.55-3.87,1.56-7.67,3.02-11.27L7.86,47.27l6.98-11.99,30.41,17.71c2.34-2.92,5-5.59,7.96-7.89l-17.67-30.38,11.99-6.98,17.64,30.38c3.57-1.43,7.28-2.4,11.08-2.96V0h13.87v35.22c3.83.55,7.57,1.53,11.14,2.99l17.67-30.41,11.99,6.95-17.71,30.41c2.92,2.31,5.59,4.97,7.89,7.89l30.51-17.74,6.98,11.99-30.51,17.74c1.46,3.61,2.47,7.37,3.02,11.21h35.22v13.87h-35.22v-.03Z"/>
</svg>