<?xml version="1.0" encoding="UTF-8"?>
<svg id="Layer_1" data-name="Layer 1" xmlns="http://www.w3.org/2000/svg" viewBox="0 0 166.27 166.34">
  <defs>
    <style>
      .cls-1 {
        fill: #fff;
      }
    </style>
  </defs>
  <path class="cls-1" d="M55.46,90.09H0v-13.87h55.46v13.87ZM144.96,76.96c11.89-14.98,9.42-36.78-5.59-48.7-15.01-11.92-36.78-9.42-48.7,5.59-4.87,6.14-7.54,13.74-7.5,21.57v6.95h13.87v-6.92c0-11.47,9.32-20.79,20.79-20.79s20.79,9.32,20.79,20.79-9.32,20.79-20.79,20.79h-48.54v13.87h69.3c7.67,0,13.87,6.21,13.87,13.87s-6.21,13.87-13.87,13.87-13.87-6.21-13.87-13.87h-13.87c0,15.3,12.41,27.71,27.71,27.71s27.71-12.41,27.71-27.71c.06-12.9-8.8-24.07-21.31-27.03h0ZM76.25,110.88H0v13.87h76.25c7.67,0,13.87,6.21,13.87,13.87s-6.21,13.87-13.87,13.87-13.87-6.24-13.87-13.87h-13.87c0,15.3,12.41,27.71,27.71,27.71s27.71-12.41,27.71-27.71-12.38-27.74-27.68-27.74h0ZM76.25,27.71c0-15.3-12.41-27.71-27.71-27.71s-27.74,12.41-27.74,27.71h13.87c0-7.67,6.21-13.87,13.87-13.87s13.84,6.24,13.84,13.87-6.21,13.87-13.87,13.87H0v13.87h48.5c15.33,0,27.74-12.41,27.74-27.74h0Z"/>
</svg>