<?xml version="1.0" encoding="UTF-8"?>
<svg id="Layer_1" data-name="Layer 1" xmlns="http://www.w3.org/2000/svg" viewBox="0 0 307.05 307.17">
  <defs>
    <style>
      .cls-1 {
        fill: #6fc7b4;
      }
    </style>
  </defs>
  <path class="cls-1" d="M102.41,166.36H0v-25.62h102.41v25.62ZM267.7,142.13c21.96-27.66,17.4-67.91-10.32-89.93-27.72-22.02-67.91-17.4-89.93,10.32-9,11.34-13.92,25.38-13.86,39.84v12.84h25.62v-12.78c0-21.18,17.22-38.4,38.4-38.4s38.4,17.22,38.4,38.4-17.22,38.4-38.4,38.4h-89.63v25.62h127.97c14.16,0,25.62,11.46,25.62,25.62s-11.46,25.62-25.62,25.62-25.62-11.46-25.62-25.62h-25.62c0,28.26,22.92,51.18,51.18,51.18s51.18-22.92,51.18-51.18c.12-23.82-16.26-44.46-39.36-49.92h0ZM140.81,204.76H0v25.62h140.81c14.16,0,25.62,11.46,25.62,25.62s-11.46,25.62-25.62,25.62-25.62-11.52-25.62-25.62h-25.62c0,28.26,22.92,51.18,51.18,51.18s51.18-22.92,51.18-51.18-22.86-51.24-51.12-51.24h0ZM140.81,51.18C140.81,22.92,117.89,0,89.63,0s-51.24,22.92-51.24,51.18h25.62c0-14.16,11.46-25.62,25.62-25.62s25.56,11.52,25.56,25.62-11.46,25.62-25.62,25.62H0v25.62h89.57c28.32,0,51.24-22.92,51.24-51.24h0Z"/>
</svg>