<?xml version="1.0" encoding="UTF-8"?>
<svg id="Layer_1" data-name="Layer 1" xmlns="http://www.w3.org/2000/svg" viewBox="0 0 378.46 267.16">
  <defs>
    <style>
      .cls-1 {
        fill: #de8a26;
      }
    </style>
  </defs>
  <path class="cls-1" d="M378.17,60.55c.38,3.59.38,11.19,0,14.78-2.6,24.22-25.81,47-49.94,49.43l-227.38.11c-13.11-2.67-11.68-20.78,1.49-22.19l221.57.03c46.84-5.8,40.04-74.3-8.14-69.49-11.06,1.1-13.92,7.22-21.53,11.71-11.13,6.55-22.51-7.65-13.88-17.58,30.27-34.8,92.9-12.53,97.8,33.21Z"/>
  <path class="cls-1" d="M3.27,156.14c1.8-1.8,5.65-3.15,8.21-3.24h161.79c57.05,3.82,74.74,79.57,25.2,107.32-20.25,11.34-55.1,9.39-69.56-10.45-6.47-8.89.71-19.63,11.66-17.58,4.08.76,10.63,8.03,16.29,10.3,46.44,18.67,69.8-54.39,20.63-66.47-56.16-2.13-112.62-.27-168.89-.96-8.55-1.92-11.46-12.81-5.34-18.92Z"/>
  <path class="cls-1" d="M8.73,52.59l186.67-.17c13.19,1.41,13.63,19.91.75,22.19H9.28c-12.14-2.5-12.41-18.5-.55-22.02Z"/>
  <path class="cls-1" d="M251.7,153.11c30.89,2.87,75.12-11.54,93.62,21.24,18.79,33.3-12.17,71.59-48.71,61.31-10.03-2.82-29.57-15.53-17.32-26.86,9.18-8.49,16.05,3.29,23.97,5.43,27.48,7.43,36.69-36.04,5.77-39.03-18.08-1.75-38.86,1.68-56.8-.06-13.01-1.26-13.03-19.42-.52-22.03Z"/>
  <path class="cls-1" d="M132.79.12l105.39-.12c12.39,3.59,11.95,19.37-.67,22.14l-104.09-.06c-11.77-3.47-12.17-17.82-.62-21.95Z"/>
  <path class="cls-1" d="M43.44,102.86c3.3-.56,13.49-.65,16.76-.13,12.4,1.94,12.35,20.67.06,22.14-3.62.43-13.37.43-16.94-.08-11.94-1.69-12.23-19.85.11-21.93Z"/>
</svg>