<?xml version="1.0" encoding="UTF-8"?>
<svg id="Layer_1" data-name="Layer 1" xmlns="http://www.w3.org/2000/svg" viewBox="0 0 902.8 193">
  <defs>
    <style>
      .cls-1 {
        fill: #fff;
      }
    </style>
  </defs>
  <path class="cls-1" d="M87,65.6v19.1c-5.6-12.3-17.4-21.5-34.4-21.6h-1.7C16,63.1,0,89.4,0,126.7c0,47,20.7,65.8,51.2,65.8,17.4,0,28.9-7.3,35.8-21v18.6h35.8v-124.5h-35.8ZM85.2,137.9c0,11.7-7.3,25.5-23.5,25.5-25,0-24.3-27-24.3-35.9,0-30.2,13.3-35,24.3-35,14.7,0,23.5,10.2,23.5,27.6v17.8Z"/>
  <path class="cls-1" d="M137.4,127.8c0-15.1-.7-64.6,63.8-64.6,25.9,0,36.7,8.2,36.7,8.2l-8.7,27s-10.8-5.9-24.9-5.9c-18,0-29.5,10.4-29.5,28.8v13.2c0,17.7,11.1,29.5,29.5,29.5,12.8,0,24.6-6,24.6-6l8.7,26.4s-9.9,8.3-36.3,8.3c-61.4-.1-63.9-44.6-63.9-64.9h0Z"/>
  <path class="cls-1" d="M448,63.1c-11.9,0-29.7,5.4-35.1,19.9V0l-37.6,3.3v186.8h35.4v-18.6c7,13.7,19.9,21,37.3,21,30.5,0,51.2-18.8,51.2-65.8,0-37.3-16.3-63.6-51.2-63.6ZM437.5,163.4c-17.7,0-24.6-13.8-24.6-25.5v-17.8c0-17.4,9.9-27.6,24.6-27.6,11,0,24.3,4.8,24.3,35,0,8.9.7,35.9-24.3,35.9Z"/>
  <path class="cls-1" d="M359.4,120.6c0-41.7-23.5-57.4-56.4-57.4-39.6,0-60.6,21.6-60.6,60v7.1c0,49.8,29.4,62.7,64.4,62.7s49.5-9.5,49.5-9.5l-7-25.4s-18.1,7.7-37.9,7.7-29.3-5.2-31.6-24.9h79.6v-20.3ZM326.1,116.5h-46.2c.8-20.5,10.4-27.9,24.1-27.9s22.6,8.4,22.1,27.9Z"/>
  <path class="cls-1" d="M574.1,63.1c-40.7,0-62.1,22.9-62.1,64,0,56.4,36.9,65.5,62.2,65.5,37,0,61.6-19.9,61.6-65-.1-46.9-27.7-64.5-61.7-64.5ZM598.6,134.3c0,18.5-9.9,29.1-25.1,29.1-14.2,0-24.1-10-24.1-29.1v-13.1c0-20.4,11.8-28.6,24.2-28.6,17.9,0,25,13.4,25,28.6v13.1Z"/>
  <path class="cls-1" d="M710.6,63.1c-40.7,0-62.1,22.9-62.1,64,0,56.4,36.9,65.5,62.2,65.5,37,0,61.6-19.9,61.6-65-.1-46.9-27.7-64.5-61.7-64.5ZM735.1,134.3c0,18.5-9.9,29.1-25.1,29.1-14.2,0-24.1-10-24.1-29.1v-13.1c0-20.4,11.8-28.6,24.2-28.6,17.9,0,25,13.4,25,28.6v13.1Z"/>
  <polygon class="cls-1" points="786.4 190.1 786.4 3.3 824.1 0 824.1 125.2 861.5 65.5 901.3 65.5 862.3 127.3 902.8 190 862.9 190 824.1 129.1 824.1 190 786.4 190.1"/>
</svg>