<?xml version="1.0" encoding="UTF-8"?>
<svg id="a" data-name="Layer 1" xmlns="http://www.w3.org/2000/svg" width="1355.16" height="594.95" viewBox="0 0 1355.16 594.95">
  <defs>
    <style>
      .b {
        fill: #e6e6e6;
      }
    </style>
  </defs>
  <path class="b" d="M166.54,594.95c-1.53,0-2.28-.32-2.28-.93s3.03-3.39,9.13-8.31c36.5-22.17,72.81-50.35,108.94-84.53,36.11-34.18,69.76-71.44,100.95-111.79,31.17-40.33,57.98-81.76,80.42-124.25,22.42-42.49,38.21-83.14,47.34-121.95,2.28-8,3.8-15.71,4.56-23.1.75-7.39,1.14-14.46,1.14-21.25,0-24.62-6.47-44.18-19.39-58.66-12.94-14.46-33.08-21.71-60.46-21.71-33.47.62-67.69,8.17-102.66,22.63-34.99,14.48-68.44,33.72-100.38,57.74-31.94,24.02-61.42,50.97-88.41,80.83-27,29.88-49.62,60.83-67.87,92.85-18.25,32.03-30.43,62.82-36.5,92.38-1.53,7.39-2.67,14.32-3.42,20.79-.77,6.46-1.14,12.17-1.14,17.09,0,20.94,5.13,35.26,15.4,42.96,10.27,7.71,23.76,11.55,40.49,11.55,24.33,0,51.51-6.15,81.56-18.48,30.03-12.31,60.46-29.56,91.26-51.73,30.8-22.17,59.12-47.88,84.98-77.14,25.85-29.25,46.77-60.97,62.74-95.16,15.97-34.18,24.33-69.43,25.09-105.78,0-4.92,1.14-7.39,3.42-7.39s4.94,2.17,7.98,6.47c3.03,4.32,4.56,8.94,4.56,13.86,0,30.81-7.42,62.68-22.24,95.62-14.83,32.96-34.99,64.83-60.46,95.62-25.49,30.8-53.81,58.36-84.98,82.68-31.19,24.34-63.5,43.74-96.96,58.2-33.47,14.48-65.41,21.71-95.82,21.71-26.63,0-48.87-7.23-66.73-21.71C8.95,439.6,0,417.89,0,388.94c0-4.92.57-10.31,1.71-16.17,1.14-5.84,2.1-11.85,2.85-18.02,6.1-29.56,19.21-60.51,39.35-92.84,20.14-32.33,45.06-63.58,74.72-93.77,29.66-30.17,62.54-57.42,98.67-81.76,36.11-24.32,73.18-43.72,111.22-58.2,38.02-14.46,74.89-21.71,110.65-21.71,43.35,0,76.04,9.86,98.1,29.56,22.05,19.72,33.08,45.89,33.08,78.53,0,6.16-.39,12.33-1.14,18.47-.77,6.17-1.91,12.63-3.42,19.4-12.17,51.13-32.9,101.01-62.17,149.66-29.28,48.66-64.84,93.93-106.66,135.81,32.69-27.72,65.77-57.28,99.24-88.69,33.46-31.41,65.59-62.2,96.39-92.38,30.8-30.17,57.98-57.28,81.56-81.3,30.41-30.17,56.07-52.8,77-67.9,20.91-15.08,38.96-22.63,54.19-22.63,15.97,0,23.95,6.79,23.95,20.32,0,11.09-4.38,24.8-13.12,41.11-8.75,16.33-17.88,31.26-27.38,44.8-9.52,13.55-15.79,22.49-18.82,26.79-8.38,12.33-20.53,29.72-36.5,52.2-15.97,22.49-34.04,47.12-54.18,73.91-20.16,26.79-41.64,53.74-64.45,80.83-22.82,27.11-45.25,51.43-67.3,72.98,34.22-25.25,72.61-55.89,115.21-91.92,42.58-36.03,84.41-73.45,125.48-112.25,33.46-32.02,70.33-65.13,110.65-99.31,40.3-34.18,81.56-66.05,123.77-95.62,42.21-29.56,83.27-53.42,123.2-71.6,39.93-18.16,77-27.25,111.22-27.25,15.2,0,30.41,1.71,45.63,5.08,15.2,3.39,27.75,9.56,37.64,18.48,9.87,8.94,14.83,21.41,14.83,37.41,0,8.01-3.24,16.49-9.7,25.4-6.47,8.94-15.02,14.32-25.66,16.17,3.8-3.07,6.84-8,9.13-14.78,2.28-6.77,3.42-12.62,3.42-17.55,0-27.09-25.86-40.65-77.57-40.65-33.47,0-69.78,8.63-108.94,25.87-39.18,17.25-79.1,40.04-119.77,68.37-40.69,28.33-80.42,58.66-119.2,90.99-38.78,32.33-74.54,63.9-107.23,94.69-41.06,38.19-82.52,74.99-124.34,110.4-41.83,35.42-80.62,65.45-116.35,90.07-35.75,24.64-65.41,40.65-88.98,48.04-4.56,2.45-9.13,4.46-13.69,6-4.56,1.53-8.75,2.31-12.55,2.31h-1.14c-6.1,0-9.13-2.17-9.13-6.47,0-3.09.94-6.17,2.85-9.24,1.89-3.09,4.37-6.47,7.41-10.16,22.05-25.25,45.43-52.04,70.15-80.38,24.7-28.32,49.62-56.66,74.72-84.99,35.74-40.65,70.33-82.22,103.8-124.72,33.46-42.49,63.11-84.37,88.98-125.64,4.56-6.15,6.84-11.69,6.84-16.63,0-3.07-1.53-4.62-4.56-4.62-4.56,0-11.03,2.47-19.39,7.39-9.89,7.39-23.21,19.4-39.93,36.03-16.74,16.63-33.08,32.95-49.05,48.96-25.86,25.26-54.58,53.28-86.12,84.07-31.56,30.81-64.65,61.9-99.24,93.31-34.61,31.41-68.83,60.83-102.66,88.23-33.85,27.41-65.98,50.04-96.39,67.9-5.33,4.32-11.03,8.47-17.11,12.47-6.1,4-12.17,8.16-18.25,12.47-16.74,11.09-34.22,20.63-52.47,28.64-18.25,8-30.43,12.01-36.5,12.01Z"/>
</svg>