<?xml version="1.0" encoding="UTF-8"?>
<svg id="a" data-name="Layer 1" xmlns="http://www.w3.org/2000/svg" width="126.53" height="19.83" viewBox="0 0 126.53 19.83">
  <defs>
    <style>
      .b {
        fill: #fff;
      }
    </style>
  </defs>
  <path class="b" d="M111.99,11.77c-.03.06-.06.12-.08.19.24.04.47.08.71.12.31.07.61.14.91.21.23.07.46.14.69.2.02-.05.03-.11.05-.16-.22-.1-.44-.24-.74-.02-.24-.27-.5-.45-.91-.21-.21-.11-.42-.22-.62-.34Z"/>
  <path class="b" d="M103.39,14.18c-1.24-.31-2.51-.5-3.93-.41.08.11.1.19.14.19,1,.12,1.99.24,3,.33.25.02.53-.09.8-.14.24.26.54.37.92.24.13.1.23.26.38.28.71.12,1.44.2,2.16.29.03,0,.07-.06.11-.09-.37-.35-1.74-.59-2.65-.46-.31-.08-.62-.16-.93-.25Z"/>
  <path class="b" d="M110.7,13.27s-.03.09-.05.14c.45.1.9.2,1.35.3.02-.06.04-.12.06-.18-.45-.09-.91-.17-1.36-.26Z"/>
  <path class="b" d="M113.83,14.02s.03-.09.04-.13c-.31-.06-.62-.12-.93-.18-.02.06-.05.13-.07.19.32.04.64.08.96.12Z"/>
  <path class="b" d="M107.68,15.11s.01-.08.02-.12c-.11,0-.22-.01-.33-.02,0,.04-.01.08-.02.12.11,0,.22.01.33.02Z"/>
  <path class="b" d="M123.56,14.52s-.04.06-.06.09c.08.06.17.12.25.19.03-.05.06-.11.09-.16-.09-.04-.19-.08-.28-.12Z"/>
  <path class="b" d="M126.45,19.83c-1.09-.3-2.25-.41-3.21-1.09-.07-.05-.17-.1-.24-.08-.86.23-1.6-.22-2.36-.43-1.72-.46-3.39-1.09-5.19-1.23-.23-.02-.45-.17-.67-.26.17-.16.29-.17.4-.17.69.01,1.38.04,2.06.04.42,0,.84.23,1.27-.02.1-.06.33,0,.43.08.6.5,1.31.42,2.02.53,1.79.26,3.53.8,5.12,1.47.17.43.31.77.45,1.11-.04.02-.07.06-.08.06Z"/>
  <path class="b" d="M97.64,15.28c.71-.05,1.37-.02,2.12.49-1.2.07-1.54-.02-2.12-.49Z"/>
  <path class="b" d="M105.5,15.51c.72.15,1.43.29,2.15.44-.8.29-1.5-.01-2.21-.23.02-.07.04-.14.06-.21Z"/>
  <path class="b" d="M115.12,15.68c.63.25,1.38.05,1.98.45-.55.04-1.08.04-1.61-.04-.14-.02-.24-.28-.36-.44v.02Z"/>
  <g>
    <path class="b" d="M0,16.23s.02-.02.03-.02c0,0-.02,0-.03,0v.03Z"/>
    <path class="b" d="M67.56,12.95s0-.01,0-.02c0,0-.02,0-.03.02h.03Z"/>
    <path class="b" d="M67.8,13.59s.01,0,.02,0c0,0,.02,0,.02,0h-.04Z"/>
    <path class="b" d="M54.15,14.47s.07,0,.11,0c-.02-.02-.05-.03-.07-.05,0,0-.03.06-.04.05Z"/>
    <path class="b" d="M68.19,13.01s0,0,0-.01c0,0-.02,0-.02,0h.03Z"/>
    <path class="b" d="M126.32,14.3c-2.38-.67-4.74-1.33-7.23-2.03,1.62.1,3.05.51,4.64.52-.23-.77-.98-.45-1.49-.79.39-.02.67-.04.94-.06.03-.11.05-.2.09-.33.2.03.4.07.63.11,0-.41-.28-.45-.53-.53-1.38-.47-2.77-.92-4.14-1.41-.5-.18-.96-.44-1.44-.73.57,0,1.02-.34,1.51-.56-.41-.17-.86-.36-1.36-.56.4-.33.74.11,1.16-.14-.16-.09-.26-.17-.37-.21-1.06-.33-2.13-.64-3.18-.98-.42-.14-.8-.39-1.22-.51-.88-.25-1.79-.43-2.68-.66-.29-.07-.56-.2-.84-.3.03-.07.05-.13.07-.2,1.2.15,2.39.3,3.59.45.02-.03.04-.07.05-.1-.24-.11-.47-.26-.73-.34-1.09-.32-2.18-.63-3.28-.91-.75-.19-1.52-.34-2.28-.52-.1-.02-.19-.07-.26-.24.3,0,.61,0,.91,0-.63-.2-1.26-.44-1.91-.59-2.73-.65-5.52-1.05-8.35-1.34-2.68-.27-5.35-.56-8.05-.73-3.24-.2-6.5-.28-9.75-.41-.25-.01-.51,0-.74-.04-.36-.08-.68-.05-.89.18-.76-.19-1.41-.45-2.19-.27-.37.08-.74.14-1.11.2-.28.05-.57.05-.81.17-.19.1-.39.32-.24.59,0,0-.2.18-.3.19-.67.04-1.35.1-2.01.08-.34-.01-.65-.03-1,.07-.95.26-1.89.17-2.82.09-.56-.05-1.13-.11-1.69-.05-1.55.15-3.11.27-4.65.56-1.33.26-2.65.35-3.97.48-.34.03-.69.04-1.03,0-.82-.07-1.63.16-2.44.28-1.62.24-3.24.38-4.87.56-1.15.13-2.3.27-3.46.42-.95.12-1.9.25-2.85.4-.32.05-.63.14-.94.27.96.24,2-.25,2.96.07-.11.04-.22.11-.33.13-1.72.29-3.43.6-5.15.85-.64.09-1.29.11-1.93.09-1.07-.04-2.12.08-3.2.28-1.42.25-2.85.34-4.26.56-.86.14-1.72.41-2.58.62-.15.03-.29.03-.44.04-.97.13-1.94.19-2.9.49-.61.19-1.24.26-1.86.38-1.19.23-2.39.41-3.57.69-1.78.43-3.54.89-5.3,1.4-2.6.76-5.19,1.56-7.79,2.36-1.17.36-2.34.74-3.51,1.11-.11.04-.22.09-.32.27.44,0,.88.04,1.31-.03.74-.12,1.49-.3,2.23-.48,1.48-.36,2.97-.74,4.45-1.11.12-.03.24-.03.37,0-.86.5-1.93.51-2.74,1.36.38-.07.7-.12,1.01-.17,0,.04.01.09.02.13-.47.15-.95.3-1.43.45-1.63.53-3.28,1.05-4.9,1.6-.34.12-.73-.03-1.02.3-.45-.52-.92.1-1.38.12-.16,0-.34.21-.51.35.71,0,1.41.03,2.12,0,.32-.01.65-.1.97-.19,2.42-.64,4.83-1.3,7.25-1.94.43-.11.87-.17,1.3-.25.01.05.02.1.03.15-.48.16-.97.33-1.46.49.04.2.07.36.1.53-.57.25-1.13.51-1.74.78.29.27.58.2.87.14.89-.21,1.78-.43,2.68-.63.62-.14,1.25-.25,1.87-.38.08-.02.17,0,.25.1-1.14.29-2.29.57-3.47.87.3.41.94-.22,1.06.34.74-.11,1.49-.22,2.25-.34,2.65-.43,5.29-.91,7.94-1.3,1.75-.26,3.5-.39,5.25-.61,1.07-.14,2.14-.38,3.21-.5,1.55-.17,3.11-.3,4.66-.37,2.24-.11,4.49-.16,6.73-.2,1.3-.02,2.6-.05,3.88.07,1.82.17,3.68-.12,5.52-.07,2.18.06,4.38.01,6.57,0,.94,0,1.89-.1,2.83-.12.57-.01,1.14.03,1.7.05l-.02.03c.44-.33.88-.13,1.32-.1.04,0,.05.15.07.23q.59-.37,1.04.13s.05,0,.08,0q.71-.51,1.66-.51c.17,0,.34,0,.51,0,.03,0,.05,0,.08,0,.27-.05.5-.05.43.3.25-.2.47-.23.62.07.29-.15.55-.11.8.04h.07c.54-.24,1.06-.51,1.66-.52.79-.01,1.57-.04,2.36-.06.97-.02,1.95-.06,2.91-.06,1.89,0,3.78,0,5.67.03,1.91.02,3.83.07,5.74.1,1.57.03,3.13.06,4.69.11.23,0,.46.11.68.18-.22.03-.45.09-.67.08-.99-.02-1.98-.06-2.97-.08-.94-.02-1.89-.01-2.84-.02-.72,0-1.43-.06-2.15.02-.64.08-1.26.2-1.89.04-.26-.07-.61.09-.91.15,0,.07,0,.13,0,.19,2.56.07,5.15,0,7.67.33-.38.07-.75.09-1.12.09-3.01-.03-6.01-.11-9.02-.08-3.49.03-6.98.14-10.47.2-.2,0-.39-.1-.58-.16-.26.07-.52.19-.77.2-3.76.1-7.51.17-11.27.27-.29,0-.62-.08-.84.33-.05.09-.4.06-.67.07.16.12.33.28.51.28.92.03,1.85,0,2.9-.02-.18-.16-.26-.23-.33-.29.19,0,.4-.05.55.02.79.36,1.66.28,2.53.27.22,0,.44,0,.67.01.79,0,1.57,0,2.38-.14.94-.17,1.9-.1,2.85-.13,1.22-.04,2.44-.07,3.66-.11,1.2-.04,2.4-.12,3.6-.15,1.85-.03,3.69-.02,5.53-.04.32,0,.65-.08.96-.08,1.03,0,2.06.05,3.09.03,1.98-.04,3.96,0,5.93.04.72.02,1.43.05,2.15.04.2,0,.42-.14.69-.24-.39-.14-.71-.25-1.03-.37.58-.15,1.69-.11,2.09.08-.09.08-.19.16-.28.24.04.04.07.09.1.09,2.57.1,5.12.32,7.64.71,1.74.27,3.53.35,5.28.55,1.78.21,3.55.47,5.33.7.73.09,1.47.14,2.2.2.13.01.28-.04.45-.2-.19-.05-.38-.11-.56-.15-1.1-.25-2.2-.53-3.32-.73-.41-.07-.69-.24-.93-.5.14-.01.28-.04.41-.02,1.01.16,2.02.33,3.03.49.04,0,.09-.04.17-.07-.08-.28-.34-.28-.56-.31-.94-.14-1.88-.29-2.83-.41-.32-.04-.48-.15-.42-.53,3.4.65,6.74,1.29,10.13,1.93.12-.17.24-.34.35-.49-.55-.34-1.09-.66-1.62-.99.02-.04.03-.08.05-.11.64.11,1.28.21,1.91.34,1.41.28,2.81.59,4.22.85.37.07.78.03,1.26-.07-.16-.13-.32-.26-.53-.43.62-.16,1.29.26,1.86-.43ZM76.98.96c.39,0,.83-.19,1.13.19-.41.07-.83.19-1.13-.19ZM86.55,8.05s-.1.01-.13,0c-.02-.02-.02-.07-.02-.11.07,0,.13-.01.2-.02-.02.06-.02.13-.04.14ZM89.21,8.17c-.12-.07-.25-.13-.37-.2-.02,0-.03,0-.05,0-.02,0-.03,0-.05,0-.15.04-.29.08-.44.12,0-.04,0-.09-.01-.13.15,0,.3,0,.45,0,.02,0,.04-.01.06-.02.01,0,.03.01.04.02.15.01.3.03.45.04-.02.05-.05.1-.07.15ZM56.79,14.34c.17.03.33.06.5.09-.19.13-.37.16-.5-.09ZM89.83,13.51c.35-.09.69-.1,1,.06-.36.16-.68.06-1-.06ZM97.06,12.41s.09.05.14.08c-.03.03-.05.09-.08.1-.02,0-.06-.04-.09-.06.01-.04.03-.08.04-.12ZM93.22,12.13c.33-.1.63-.08.91.04,0,.05-.02.1-.03.15-.3,0-.61-.02-.91-.02,0-.06.02-.11.02-.17ZM92.87,12.85c.83-.24,1.61-.12,2.38.09-.82.15-1.62.17-2.38-.09ZM96.85,13.59s-.02,0-.03.01c-.02,0-.03,0-.05-.01-.12.03-.24.05-.35.08,0-.05.01-.1.02-.16.11.03.22.05.33.08h.06s.01,0,.02,0c.39-.23.72-.11,1.04.07-.38.14-.75.21-1.04-.07ZM105.29,13.22s-.09,0-.13,0c0,0,0-.06.01-.12.06.01.12.02.18.03-.02.03-.03.08-.06.09ZM106.86,13.47c-.22-.04-.44-.08-.66-.13.01-.04.03-.08.04-.12.21.04.43.08.64.12,0,.04-.01.09-.02.13ZM108.5,12.9c.06.03.12.06.17.09-.03.03-.06.08-.08.08-.04,0-.09-.01-.12-.04-.02-.02.01-.07.03-.13ZM108.85,14.55c-.25.13-.46.11-.7-.24.32.11.51.17.7.24ZM123.36,14.06c-.4-.05-.64.4-1.12.3-1.76-.34-3.55-.62-5.32-.92-.62-.11-1.13-.36-1.4-.92,0,0-.01,0-.02,0,0,0-.02,0-.02,0-.3.16-.58.21-.77-.15.26.05.51.1.77.15,0,0,.02,0,.03-.01,0,0,0,.01.01.02.43-.13.65.18.96.31.14-.04.3-.13.42-.11.86.15,1.72.32,2.57.49.09.02.22.08.22.14.04.43.26.41.6.22.12-.07.3-.08.44-.06.88.12,1.76.25,2.64.38,0,.05-.01.1-.02.15Z"/>
    <path class="b" d="M108.98,3.26s-.06,0-.09,0c.03,0,.06.02.08.03v-.03Z"/>
    <path class="b" d="M102.79.51s-.01.03,0,.03c.02,0,.03,0,.05,0-.01-.01-.03-.02-.04-.03Z"/>
    <path class="b" d="M102.83.54c.37.3.77.5,1.27.49-.36-.34-.76-.56-1.27-.49Z"/>
  </g>
  <path class="b" d="M108.04,13.64c-.35-.02-.69-.04-1.04-.06.34-.13.71-.28,1.04.06Z"/>
  <path class="b" d="M118.95,13.62c.25.04.5.08.74.12-.01.08-.03.15-.04.23-.25-.03-.5-.06-.75-.09.01-.09.03-.18.05-.26Z"/>
  <path class="b" d="M119.41,13.63c-.32-.03-.65-.07-.98-.1.02-.07.03-.14.05-.21.31.11.62.22.93.33,0,0,0-.02,0-.02Z"/>
  <path class="b" d="M100.92,15.95c.25.06.49.11.73.17l-.04.16c-.25-.03-.5-.06-.74-.09.01-.08.03-.15.04-.23Z"/>
  <path class="b" d="M107.36,17.08c-.14-.04-.29-.08-.43-.12.02-.05.03-.11.05-.16.14.04.29.09.43.13-.01.05-.03.1-.04.15Z"/>
  <path class="b" d="M115.13,15.66c-.19.24-.38.43-.71.23.02-.07.03-.12.04-.12.22-.03.45-.07.67-.1,0,0,0-.02,0-.02Z"/>
  <path class="b" d="M108.86,13.64c.15.02.3.04.45.06,0,.04-.01.09-.02.13-.15-.02-.3-.05-.45-.08,0-.04.01-.08.02-.12Z"/>
  <path class="b" d="M119.41,13.65c.21.17.42.34.62.51-.03.04-.07.07-.11.1-.17-.21-.34-.42-.51-.63,0,0,0,.02,0,.02Z"/>
  <path class="b" d="M113.78,14.38c-.11-.03-.23-.06-.34-.09.01-.06.02-.12.03-.18.12,0,.25,0,.37.01-.02.09-.03.17-.05.26Z"/>
  <path class="b" d="M110.34,14.38c-.01.07-.03.14-.04.22-.06-.06-.12-.11-.18-.17.09,0,.17-.02.26-.02,0,0-.04-.02-.05-.03Z"/>
  <path class="b" d="M65.98,5.03c.26.09.51.17.77.26-.02.06-.04.12-.07.19-.25-.1-.5-.2-.75-.3.02-.05.04-.1.05-.15Z"/>
</svg>