<?xml version="1.0" encoding="UTF-8"?>
<svg id="a" data-name="Layer 1" xmlns="http://www.w3.org/2000/svg" width="337.62" height="148.22" viewBox="0 0 337.62 148.22">
  <defs>
    <style>
      .b {
        fill: #eaeaea;
      }
    </style>
  </defs>
  <path class="b" d="M41.49,148.22c-.38,0-.57-.08-.57-.23s.75-.84,2.27-2.07c9.09-5.52,18.14-12.54,27.14-21.06,9-8.52,17.38-17.8,25.15-27.85,7.77-10.05,14.44-20.37,20.04-30.96,5.59-10.59,9.52-20.71,11.79-30.38.57-1.99.95-3.91,1.14-5.75.19-1.84.28-3.6.28-5.29,0-6.13-1.61-11.01-4.83-14.62-3.22-3.6-8.24-5.41-15.06-5.41-8.34.15-16.86,2.04-25.58,5.64-8.72,3.61-17.05,8.4-25.01,14.38-7.96,5.98-15.3,12.7-22.02,20.14-6.73,7.44-12.36,15.16-16.91,23.13-4.55,7.98-7.58,15.65-9.09,23.02-.38,1.84-.67,3.57-.85,5.18-.19,1.61-.28,3.03-.28,4.26,0,5.22,1.28,8.79,3.84,10.7,2.56,1.92,5.92,2.88,10.09,2.88,6.06,0,12.83-1.53,20.32-4.6,7.48-3.07,15.06-7.36,22.74-12.89,7.67-5.52,14.73-11.93,21.17-19.22,6.44-7.29,11.65-15.19,15.63-23.71,3.98-8.52,6.06-17.3,6.25-26.35,0-1.23.28-1.84.85-1.84s1.23.54,1.99,1.61c.75,1.08,1.14,2.23,1.14,3.45,0,7.67-1.85,15.62-5.54,23.82-3.69,8.21-8.72,16.15-15.06,23.82-6.35,7.67-13.41,14.54-21.17,20.6-7.77,6.06-15.82,10.9-24.16,14.5-8.34,3.61-16.3,5.41-23.87,5.41-6.63,0-12.18-1.8-16.62-5.41-4.45-3.6-6.68-9.01-6.68-16.23,0-1.23.14-2.57.43-4.03.28-1.46.52-2.95.71-4.49,1.52-7.37,4.79-15.08,9.8-23.13,5.02-8.06,11.23-15.84,18.61-23.36,7.39-7.52,15.58-14.31,24.58-20.37,9-6.06,18.23-10.89,27.71-14.5,9.47-3.6,18.66-5.41,27.57-5.41,10.8,0,18.94,2.46,24.44,7.37,5.49,4.91,8.24,11.43,8.24,19.56,0,1.54-.1,3.07-.28,4.6-.19,1.54-.48,3.15-.85,4.83-3.03,12.74-8.2,25.17-15.49,37.29-7.3,12.12-16.15,23.4-26.57,33.83,8.14-6.91,16.39-14.27,24.72-22.1,8.33-7.83,16.34-15.5,24.01-23.02,7.67-7.52,14.44-14.27,20.32-20.25,7.58-7.52,13.97-13.16,19.18-16.92,5.21-3.76,9.71-5.64,13.5-5.64,3.98,0,5.97,1.69,5.97,5.06,0,2.76-1.09,6.18-3.27,10.24-2.18,4.07-4.45,7.79-6.82,11.16-2.37,3.38-3.93,5.6-4.69,6.67-2.09,3.07-5.12,7.41-9.09,13-3.98,5.6-8.48,11.74-13.5,18.41-5.02,6.67-10.37,13.39-16.06,20.14-5.68,6.75-11.27,12.81-16.77,18.18,8.53-6.29,18.09-13.92,28.7-22.9,10.61-8.98,21.03-18.3,31.26-27.96,8.33-7.98,17.52-16.23,27.57-24.74,10.04-8.52,20.32-16.46,30.83-23.82s20.75-13.31,30.69-17.84c9.95-4.52,19.18-6.79,27.71-6.79,3.79,0,7.58.42,11.37,1.27,3.79.85,6.91,2.38,9.38,4.6,2.46,2.23,3.69,5.33,3.69,9.32,0,2-.81,4.11-2.42,6.33-1.61,2.23-3.74,3.57-6.39,4.03.95-.77,1.71-1.99,2.27-3.68.57-1.69.85-3.14.85-4.37,0-6.75-6.44-10.13-19.33-10.13-8.34,0-17.38,2.15-27.14,6.44-9.76,4.3-19.71,9.98-29.84,17.03-10.14,7.06-20.04,14.61-29.7,22.67-9.66,8.06-18.57,15.92-26.71,23.59-10.23,9.52-20.56,18.68-30.98,27.5-10.42,8.83-20.08,16.31-28.99,22.44-8.91,6.14-16.3,10.13-22.17,11.97-1.14.61-2.27,1.11-3.41,1.5-1.14.38-2.18.58-3.13.58h-.28c-1.52,0-2.27-.54-2.27-1.61,0-.77.24-1.54.71-2.3.47-.77,1.09-1.61,1.85-2.53,5.49-6.29,11.32-12.96,17.48-20.02,6.15-7.06,12.36-14.12,18.61-21.17,8.9-10.13,17.52-20.48,25.86-31.07,8.33-10.59,15.72-21.02,22.17-31.3,1.14-1.53,1.71-2.91,1.71-4.14,0-.77-.38-1.15-1.14-1.15-1.14,0-2.75.61-4.83,1.84-2.46,1.84-5.78,4.83-9.95,8.98-4.17,4.14-8.24,8.21-12.22,12.2-6.44,6.29-13.6,13.27-21.46,20.94-7.86,7.67-16.11,15.42-24.72,23.25-8.62,7.83-17.15,15.15-25.58,21.98-8.43,6.83-16.44,12.47-24.01,16.92-1.33,1.08-2.75,2.11-4.26,3.11-1.52,1-3.03,2.03-4.55,3.11-4.17,2.76-8.53,5.14-13.07,7.13-4.55,1.99-7.58,2.99-9.09,2.99Z"/>
</svg>