<?xml version="1.0" encoding="UTF-8"?>
<svg id="a" data-name="Layer 1" xmlns="http://www.w3.org/2000/svg" width="1417.33" height="125.86" viewBox="0 0 1417.33 125.86">
  <defs>
    <style>
      .c {
        fill: #fff;
      }
    </style>
  </defs>
  <g id="b" data-name="Layer 1">
    <path class="c" d="M922.15,48.4v-.07h-.14s.07.05.1.07h.04Z"/>
    <path class="c" d="M2.81,110.32c3.18.45,6.1,1.59,9.05,2.7,1.42.51,3.09.79,4.63-.11,1.02-.6,2.04-.34,3.01.11,1.45.65,2.81,1.5,4.26,2.07,1.7.65,3.52,1.14,5.28,1.67.85.26,1.73.03,2.16-.6,1.48-2.19,2.55-1.16,4.26-.06,2.44,1.56,5.31,2.36,8.34,1.56,1.02-.26,2.07-.4,3.12-.57.26-.06.54-.06.79-.11,2.72-.54,3.24-.96,4.91-4.37,1.19.17,1.7,1.08,2.3,1.93.65.94,1.7,1.42,2.75,1.28,3.09-.37,6.3-.37,8.94-2.41.6-.45,1.36-.71,1.99-1.02.34.23.62.31.77.51,1.33,2.13,3.32,2.41,5.53,1.99.45-.09.88-.43,1.22-.77,1.59-1.53,1.67-1.7,2.87-.85,2.41,1.73,4.85,1.99,7.44.6,1.39-.74,2.72-1.65,4.17-2.24,1.19-.48,2.53-.74,3.83-.91.91-.11,1.14.65,1.42,1.45.43,1.19.57,1.14,1.67.51.45-.26.88-.57,1.39-.91.65.23,1.39.45,2.1.77,2.21.99,4.43,1.87,6.84.6,2.04.37,4.03,1.02,6.16.48,2.01-.51,4.17-1.36,6.13-1.11,4.34.54,8.4-.06,12.37-1.7,1.28-.54,2.61-.45,3.89,0,1.25.43,2.41,1.19,3.66,1.5.65.17,1.62-.14,2.16-.6,1.16-.94,2.27-1.28,3.6-.6,1.19.6,2.41,1.28,3.75.71,1.76-.74,3.55-1.02,5.42-.79,1.79.2,3.6-.57,5.42.4.51.28,1.53-.14,2.16-.48.94-.54,1.7-.79,2.89-.45,1.76.51,3.63.54,5.48.71,1.62.14,3.12-.17,4.57-.99,1.67-.96,3.52-.79,5.36-.23.99.31,2.01.71,3.04.77,3.69.17,7.35-.26,11.07.2,1.45.17,3.07-.62,4.57-1.11.77-.26,1.45-.45,2.24-.14.74.28,1.53.71,2.27.65,4.26-.26,8.46.14,12.69.37.79.06,1.62-.03,2.36-.23,4.4-1.19,8.88-.68,13.34-.62,5.05.06,10.05-.03,14.7-2.02,1.62.48,3.12,1.05,4.65,1.36.99.2,2.33.4,3.07-.09,2.72-1.76,5.22-1.82,8.12-.28,1.62.85,3.63.31,5.45-.31,1.25-.43,2.53-1.14,3.77-1.14,3.41.03,6.87.14,10.25.68,6.36,1.02,12.66.79,18.93-.26,1.08-.17,2.07-.28,3.07.11,4.26,1.59,8.34-1.05,12.57-.45.74.11,1.56-.26,2.33-.43.26-.06.45-.26.71-.37,1.45-.62,2.89-1.25,4.26-1.84,2.01,1.22,3.89,2.1,6.02,2.41,1.14.17,2.41.06,2.98-.71,1.39-1.87,3.12-1.33,4.91-1.31.99,0,2.01-.43,3.01-.68,1.76,1.82,3.94,1.08,6.02.96,1.65-.09,3.04-.65,4.29-1.76,3.41-3.04,3.77-2.87,7.07.45.54.54,1.14.99,1.84,1.59,2.1-.26,4.23-.34,6.27-.79,1.02-.23,1.9-.82,2.98-.37,3.77,1.59,7.78,1.45,11.75,1.42,5.31-.09,10.61-.26,15.89-.14,2.41.06,4.74,0,7.07-.54,2.58-.62,5.14-.54,7.8-.11,3.66.57,7.38.74,11.1.37,2.1-.2,4.23-.14,6.36-.11,2.38.03,4.77.2,7.07-.62,1.31-.45,2.64-.26,3.92.17,2.07.68,3.58,0,4.71-1.82.62-1.05,1.84-.88,2.87-1.11,1.76-.34,3.63.79,5.34-.68.45-.4,1.56-.28,2.24-.06,1.25.4,2.41,1.08,3.63,1.59.74.28,1.56.62,2.3.57,2.27-.23,4.31-1.73,6.81-1.16.62.14,1.48-.51,2.16-.88.68-.37,1.31-.88,1.99-1.28.82-.45,1.9-.17,2.81.77.34.37.57.85.79,1.28.96,1.73,2.38,1.9,3.29.31.4-.68.65-1.42.94-2.07,1.05-.06,1.22.82,1.76,1.25,3.29,2.47,4.14,2.41,7.63-.11.23-.14.45-.28.74-.48.71.23,1.45.43,2.19.71,1.36.54,2.58.43,3.49-.82.4-.54.77-.65,1.33-.45,1.45.51,3.01,1.5,4.37,1.33,1.67-.23,3.12.4,4.68.37,1.33-.03,2.7.09,3.75-.91.54-.51.79-.51,1.33-.06.6.48,1.33.79,2.01,1.14,3.18,1.62,6.44,1.93,9.99,1.14,4.09-.91,8.34-1.08,12.57-.85,2.47.14,2.58,0,5.22-2.36.79,1.45,1.87,2.58,3.69,2.5,1.56-.09,3.15-.43,4.71-.37,2.21.09,4-.4,5.79-1.93,1.62-1.39,3.94-1.45,6.05-1.14.65.09,1.42.74,1.79,1.33.45.74.99,1.53,1.73,1.14,2.36-1.28,4.71-.77,6.92-.09,3.12.99,6.1,2.02,9-.45.17-.14.51-.09.77-.14,2.07-.37,4.14.37,6.3-.11.79-.17,1.82.85,2.78,1.25,1.5.62,3.07.91,4.65.62,3.89-.65,7.8-1.39,11.69-2.1l-.14.23h.34c-.06-.06-.11-.11-.2-.2.88-1.16.99-1.16,1.65,0,1.08.54,2.1,1.67,3.38.17.23-.26.99-.31,1.39-.14,1.7.71,3.35,1.59,5.28,1.53,2.38-.06,4.77.11,7.15-.11.94-.09,1.79-.94,2.95-1.59,1.99,1.48,4.37,2.38,6.95.45.65-.48,1.45-.28,2.24-.28,1.84-.03,3.69-.11,5.53.23,1.9.37,3.66,0,5.19-1.33.99-.85,2.19-.43,2.78.37,1.48,1.9,3.41,2.53,5.59,2.44,3.72-.14,7.41,0,11.1.17,2.1.09,4.23-.17,6.33-.45,1.05-.14,2.04-.45,3.12-.2,2.38.54,4.82-.65,7.01-.17,2.7.6,5.25-.09,7.86-.06,2.61,0,5.19-.71,7.83.14.51.17,1.36-.62,2.04-.99.43-.23.82-.51,1.25-.77,1.02,1.33,2.24,2.21,4.03,1.99,1.02-.14,2.1-.37,3.09-.2,1.84.37,2.98-.51,4.14-1.7.28-.31,1.16-.54,1.39-.34,2.13,1.7,4.6.77,6.92.96h0c1.19,1.11,2.7,1.48,4.14,1.19,1.9-.37,3.58-.31,5.39.31.6.2,1.45-.34,2.19-.54s1.67-.74,2.19-.48c3.01,1.65,6.27,1.22,9.37,1.05,4-.23,7.92-.09,11.83.62,1.62.28,3.15.2,4.71-.2,1.16-.28,1.73-.99,1.84-2.19.03-.4.54-1.02.85-1.02.88-.06,1.28.51,1.36,1.42.06.91.79,1.36,1.59,1.48,1.87.26,3.72.4,4.68-1.82.17-.4.77-.85,1.22-.88,2.61-.26,5.22-.31,7.49,1.36.4.28,1.02.82,1.28.68,2.1-1.14,4.23-.31,6.22.06,2.7.48,5.25.34,7.86-.14,1.53-.28,3.15-.45,4.71-.43,1.93.03,3.12-1.82,5.17-1.7,1.31.06,2.58-.14,3.8.51,3.89,2.07,4.99,2.41,8.09,2.33,1.59-.06,3.32-.65,4.68.2,2.81,1.73,5.7.28,8.54.6.94.11,2.16-.4,2.92-1.02,2.38-1.82,5.02-1.7,7.58-1.08,2.81.71,5.62.99,8.51.88,1.62-.09,3.12.09,4.51,1.08.94.65,2.21.51,2.95-.26,2.53-2.61,4.99-2.5,7.61-.23,1.82.11,3.46.79,5.19,1.28.71.2,1.56-.06,2.33-.2.74-.14,1.31-.85,2.21-.57.99.34,2.04.54,3.09.74,3.35.57,6.67,1.9,10.1.34.43-.2,1.11-.17,1.56,0,3.12,1.19,6.22.43,9.37.23,2.87-.2,5.73-.62,8.63.51,1.93.77,4.2.43,6.24-.28,1.5-.51,2.92-1.22,4.4-1.76,1.33-.51,2.7-.43,3.6.74,1.76,2.21,4.14,2.16,6.53,1.9,1.53-.17,3.04-1.19,4.51-1.05,1.48.14,2.72,1.5,4.43,1.53,1.31.03,2.64.45,3.92.34,3.63-.34,7.35.94,10.95-.62.88-.37,2.1-.03,3.15.11,1.56.23,3.15.51,4.68.88,1.05.26,2.04.43,3.09.09,2.87-.96,5.7-.65,8.51.2,2.19.65,4.12.37,6.05-.94.54-.37,1.48-.26,2.24-.2.51.03.99.51,1.5.51,4.74,0,9.37,1.62,14.16.88,1.02-.14,2.16-.09,3.12.23,2.36.77,4.71.51,7.1.37,2.33-.14,4.65-.96,7.04.17,2.3,1.11,4.65-.51,7.01-.37.26,0,.51.11.77.2,2.07.91,4.17.68,6.19-.11,1.33-.54,2.53-.45,3.83.03.71.28,1.59.62,2.27.45,2.95-.77,5.73-.37,8.6.4.88.23,2.41-.09,2.92-.71,1.99-2.47,3.89-2.21,6.1-.48.79.62,1.84,1.02,2.84,1.33,1.05.34,2.38.31,2.98-.54,1.7-2.44,4.48-2.67,6.84-3.75.96-.45,2.07,0,2.81.91.45.57.94,1.14,1.39,1.7.85.51,1.73,1.05,2.58,1.56,1.25-.85,2.33-1.62,3.38-2.36.96-.09,1.36.62,1.84,1.25,1.96,2.58,4.68,3.52,7.72,2.89,3.72-.79,7.32.23,10.98.17,4.6,1.67,9.39,1.25,14.13,1.19,4.23-.06,8.46-.09,12.66.71,1.02.2,2.19.34,3.12,0,4.48-1.53,8.97-.51,13.34.2,3.21.51,6.27.54,9.42.11,1.84-.26,3.69-.48,5.53-.54,2.21-.09,4.12-.62,5.73-2.24.45-.45,1.45-.51,2.19-.57.99-.09,2.02,0,3.01,0,.6.68,1.11,1.28,1.65,1.87,1.62,1.76,3.55,2.13,5.76,1.33.99-.37,2.1-.57,2.92-1.16,2.1-1.5,4.09-.62,6.02.2,1.19.51,2.13,1.56,3.26,2.21.31.17.99-.11,1.39-.37.43-.26.71-.74,1.08-1.14,2.1-2.21,2.21-2.36,4.43-.48,1.33,1.14,2.7,1.53,4.31,1.59,2.58.09,5.17-.09,7.66.96,1.16.51,2.58.48,3.89.62,1.62.17,3.24,0,4.37-1.31,1.28-1.48,2.98-2.13,4.74-2.75.17.17.45.31.54.51.85,2.7,2.75,3.69,5.45,3.46,1.84-.14,3.69-.26,5.51-.54,1.14-.17,2.07-.03,2.92.68,1.05.88,2.24,1.33,3.63,1.33,1.05,0,2.1.14,3.12.28,1.23.15,2.19-.63,2.89-2.36.68-1.67,1.59-2.33,3.69-1.82,1.19.28,2.78-.99,3.52.6.62,1.36,1.45,1.05,2.5.82.4-.09,1.33.37,1.33.48-.17,1.36.26,1.93,1.7,1.65.77-.14,1.65-.26,2.33,0,2.5,1.05,4.63.06,7.04-1.08,1.14.94,2.47,1.82,3.52,2.92,1.42,1.5,2.84.99,4.31.34.71-.31,1.33-.85,1.96-1.25,2.21.82,4.43,1.39,6.73,1.33.17-.99.26-1.76.48-2.5.17-.57.71-.85,1.28-.6.37.17.91.65.88.99-.09,1.16,0,2.1,1.36,2.38,1.28.26,2.55.71,3.83.65,1.02-.06,2.04-.48,3.09-.11,4.8,1.76,10.02-.11,14.81,1.73.62.26,1.53-.23,2.3-.34,1.05-.14,2.1-.37,3.12-.31,1.28.09,2.38,1.19,3.8.74.82-1.79,2.75-1.05,4.06-1.73.45-.26.96-.48,1.48-.51.74-.09.91.31.77.99-.09.45-.11,1.16.17,1.42.54.51,1.25.96,1.96,1.11.74.14,1.56-.09,2.36-.17,1.9-.2,3.6-.62,4.6-2.55.45-.85,1.33-.82,2.04-.28.62.48,1.33.91,1.79,1.53,1.14,1.5,2.61,1.59,4.26,1.36.51-.09,1.05,0,1.59,0,.85-.65,1.67-1.36,2.55-1.9.85-.54,1.59-1.39,3.09-1.25,2.13,1.48,4.51,3.12,6.64,4.63,2.21-.06,3.72-1.73,5.68-1.16,1.59.45,2.67-.17,3.07-1.59.54-1.93,1.9-3.01,3.24-4.31.85-.82,1.19-2.3,1.42-3.55.11-.62-.54-1.39-.94-2.3,1.05-.23,2.04-.62,3.04-.6,1.39,0,2.55.62,3.04,2.1.14.43.28.88.43,1.31.48.09.96.11,1.42.28.94.37,1.36,1.28,1.05,1.82-1.7,2.87-4.12,4.74-7.44,5.14-.96.11-1.33.65-1.73,1.31-.51.82-.34,1.79.31,2.04,1.22.45,2.47.91,3.72,1.31.48.14,1.11.2,1.53,0,1.84-.99,3.66-2.04,5.42-3.21.31-.2.28-.96.34-1.48.06-.48-.03-.96-.06-1.45,1.48-1.19,3.09-1.93,5.05-1.39,1.5.43,3.01.91,4.54,1.25.31.06.77-.43,1.11-.74.09-.09-.03-.57-.2-.65-.65-.43-1.39-.74-2.02-1.19-.99-.71-1.28-1.7-.82-2.78.31-.74.71-1.42,1.65-1.53,1.05-.14,2.1-.26,3.12-.45,1.9-.4,3.15-1.82,4.51-3.04.31-2.47,2.41-4.03,3.12-6.3.14-.48.23-1.02.26-1.56.03-1.79-1.67-3.43-.43-5.34-1.36-1.76-1.84-4.43-4.8-4.54-1.14-.06-1.96-.68-2.3-1.82-.51-1.76-1.11-3.49-1.5-5.28-.23-1.11-.68-1.93-1.65-2.5-1.76-1.02-1.39-2.58-1.19-4.2.17-1.31-.88-1.7-1.93-1.9-1.08-1.45-2.89-2.72-.79-4.85.57-.57.06-1.31-.91-1.5-.43-.09-.85,0-1.28.03-.09-1.22-.11-2.41,1.76-2.41.48,0,1.08-.2,1.39-.54,1.22-1.33,2.1-3.07,3.55-4.06,1.48-1.02,3.21-1.65,4.29-3.18.31-.43.65-.82.91-1.25.4-.74.34-1.48-.2-2.16-.45-.57-.88-1.16-1.31-1.76.54-.74,1.02-1.36,1.45-2.02.79-1.25,2.02-1.65,3.35-1.59,1.31.09,2.58.4,3.86.62,1.31.23,1.36,1.19,1.39,2.19.71.06,1.45.2,2.13.11,3.04-.43,5.73.4,8.23,2.1.43.28.99.34,1.53.51.71-.28,1.45-.6,2.16-.91,1.08-.45,1.59-1.31,1.56-2.47,0-.26-.09-.51-.14-.77-.65-2.58-.11-4.63,2.36-6.02.68-.37.85-1.28.43-2.07-1.25-2.47-2.61-4.63-6.05-3.63-.77.23-1.84-.94-1.87-2.04-.03-.79,0-1.79-.91-1.56-1.96.51-3.55-1.02-5.31-.77-2.21.34-3.32-1.22-4.82-2.21-.96.28-1.93.65-2.92.85-.79.14-1.67-.03-2.02-.85-.96-2.24-2.47-2.33-4.46-1.48-.74.31-1.59.2-2.19-.4-.94-.96-1.93-1.67-3.29-2.02-2.58-.65-5.11-.99-7.72-.26-.68.2-1.33-.68-1.22-1.56.06-.51.23-1.05.26-1.56.09-1.45-.6-1.87-1.84-1.22-1.87.94-3.72,1.96-5.65,2.75-.68.28-1.36-.17-1.62-.99.14-.14.23-.17.31-.2v-.11c-.03-.4-.37-.31-.34.17l.06.14c-1.7-.43-3.58,1.14-5.19-.54-.23-.26-1.08-.23-1.42,0-1.56,1.08-3.55,1.11-5.08,2.02-1.96,1.16-3.41.65-5.05-.37-.94-.6-1.99-.54-3.01-.11-.48.2-1.05.48-1.5.37-1.25-.26-2.47-.85-3.72-.99s-2.41.48-3.8-.09c-2.64-1.08-5.56-.82-8.34-1.28-2.02-.34-4-1.19-6.22-.77-1.87.34-3.55-.51-4.71-2.21-.62-.94-1.76-.94-2.78-.96-.03.71-.14,1.39-.82,1.82-.28-.6-.6-1.19-.88-1.79-1.56,0-3.12.09-4.68,0-.77-.06-1.79-.17-2.19-.68-1.36-1.65-2.92-1.93-4.8-1.31-1.25.43-2.44,1.19-3.69,1.22s-2.5-.71-3.77-.96c-1.02-.23-2.1-.26-3.15-.37-1.19-.11-1.62-1.19-2.38-1.96-1.08.57-2.21,1.16-3.32,1.76-1.33-1.36-2.55-2.75-4.77-1.53-.54.28-1.53-.09-2.24-.34-1.22-.43-1.79.94-2.84.85-.26,0-.54-.09-.77-.2-1.22-.79-2.3-.79-3.52.2-1.48,1.16-1.65,1.08-2.87-.68-.68-.99-1.48-1.39-2.61-1.25-2.58.31-5.19.71-7.8.85-1.25.06-2.55-.57-3.83-.54-1.36.06-2.61-.54-3.83-.57-1.5-.03-3.04.65-4.57.99-1.16.28-1.96-.34-2.78-1.08-1.59-1.42-3.29-1.48-4.99-.06-.4.34-.79.68-1.22.99-1.16.82-1.73.74-2.53-.54-.54-.88-.77-1.99-2.1-1.99-1.22,0-2.5-.82-3.69.37-.74.77-1.76.94-2.92.68-3.8-.88-7.61-2.04-11.55-.88-1.33-.57-2.53-.26-3.63.62-.62.48-1.28.94-1.96,1.36-1.84,1.11-2.3.85-2.75-1.56-.17-.91-.65-1.39-1.45-1.56-.51-.11-1.05-.06-1.56,0-2.61.28-5.22.34-7.27,2.47-.62.65-1.93.82-2.95.82-2.64.06-5.25-.06-7.89-.17-.82-.03-1.28-.62-1.62-1.33l.23-.45-.28.34v.14c-.48.11-.99.17-1.5.31-1.87.57-3.6.74-4.71-1.39-.65-1.25-1.65-2.04-3.21-1.31-.23.11-.54.26-.74.2-2.5-.62-5.25-.26-7.44-1.9-.71-.54-1.45-.68-2.19-.45-.99.31-1.96.74-2.89,1.25-1.79.96-3.38,1.19-4.94-.51-.45-.48-1.45-.6-2.19-.68-2.89-.28-5.79-.28-8.66.2-.48.09-.88.48-1.33.74h0l-.09-.09-.09-.09-.06.62.23-.43c.28.34.57.68.77,1.05.57,1.02.37,1.76-.43,1.82-2.36.2-4.74-.2-7.1.57-.94.31-2.13.17-3.12-.09-6.73-1.67-13.71,0-20.43-1.67-.99-.26-2.1.09-3.15.11h-3.15c-1.31-.03-1.73-.62-1.96-2.5-.14-1.28-.43-1.53-1.39-.91-1.16.74-2.33,1.25-3.72.85-1.25-.37-2.55-.71-3.69-1.31-.96-.51-1.87-1.05-2.95-.79-3.6.85-7.38-.26-10.95,1.14-.77.28-1.5-.14-2.04-.77-.51-.6-.99-1.31-1.65-1.62-1.08-.48-1.99.28-2.92.79-.91.51-1.84,1.02-2.72,1.5-2.16-.4-4.48-.31-6.22-1.28-2.13-1.22-3.89-1.22-5.96-.31-1.76.74-3.55.68-5.45.31-2.3-.48-4.63-.65-6.95-.88-.85-.09-1.42.54-1.79,1.31-.34.71-.71,1.39-1.05,2.07-.57-.14-1.25-.11-1.53-.43-1.39-1.65-2.95-1.96-4.91-1.11-1.67.74-3.41,1.33-5.14,1.99-.71.26-1.31-.2-1.28-1.28,0-.82.11-1.73-.74-1.99-1.08-.31-1.02.82-1.31,1.45-.37.79-.77,1.28-1.73.68-.65-.4-1.67-1.02-2.13-.79-1.96.96-3.58-.09-5.25-.62-.96-.31-1.79-1.05-2.7-1.5-.74-.37-1.5-.23-2.19.28-.88.68-1.87.91-2.98.71-.85-.17-1.42-.57-1.36-1.5.06-1.16-.79-1.25-1.56-1.28-1.08-.03-1.87.48-2.5,1.33-1.14.57-2.19,1.36-3.58.51-1.02-.62-1.93,0-2.92.4-2.1.85-2.53.45-2.67-2.02-.06-1.05-.57-1.7-1.22-1.39-1.73.79-3.52,1.05-5.36.88-1.87-.2-3.6.11-5.34.91-1.48.68-2.38-.45-3.29-1.39-.14-.14-.43-.17-.74-.26-.82.51-1.67,1.11-2.61,1.62-.43.26-1.11.57-1.45.4-2.72-1.45-5.62-.68-8.43-.82-2.5-.11-4.63.34-6.61,1.9-.88.71-1.99.23-2.87-.45-.2-.14-.4-.34-.54-.57-1.7-2.75-4.06-2.92-6.84-1.84-.68.26-1.65.4-2.24.09-2.72-1.36-5.68-.65-8.51-1.02-.79-.11-1.28.6-1.59,1.33-.54.43-1.02.88-1.62,1.25-1.36.85-2.72,1.02-3.97-.23-.28-.28-.57-.54-.88-.82.03-.06.06-.09.09-.11-.37-.06-.28-.91-.28-.09l.2.2c-1.45-.57-2.81-1.48-4.54-1.14-1.02.2-2.1.54-3.12.43-2.07-.2-4.14-.09-6.22-.03-.4,0-.74-.77-1.19-.94-.43-.14-1.05-.14-1.45.09-1.14.6-1.79,1.99-3.38,1.99-.6-.79-1.19-1.67-1.84-2.47-.74-.88-1.96-.85-2.75.06-.34.4-.79.79-.94,1.25-.48,1.42-1.45,2.1-2.89,2.24-2.64.26-5.25.65-7.89.85-1.82.14-3.83.57-5.42,0-3.38-1.19-6.73-.71-10.13-.74-2.1,0-4.26.03-6.33-.26-2.92-.43-5.76-.23-8.66.09-2.61.28-5.42-.23-7.89.54-2.81.88-5.05-1.42-7.63-.54-3.35-.68-6.81-.65-10.19-1.25-1.33-.23-2.7-.4-3.89.26-1.5.82-3.07.45-4.6.65-1.96.23-3.6-.23-5.36-.82-2.1-.71-4.17-.57-6.16.45-.45.23-.96.4-1.56.62-.65-.2-1.39-.48-2.16-.68-1.79-.48-3.58-.91-5.39-1.36-3.63,1.05-7.35.11-11.01.37-.51.03-1.14.09-1.53.4-2.24,1.73-4.23.96-6.53-.09-1.56-.71-3.58-.62-5.39-.6-3.15.06-6.41-.09-9.45.6-3.15.71-6.33-.45-9.39.68-.65.26-1.59-.37-2.33-.2-.96.2-1.84.77-2.92,1.25-2.07-1.5-4.4-2.38-7.27-1.73-1.76.4-3.66.31-5.65.45-1.33-1.02-2.78-2.13-4.14-3.18-.65.31-1.25.43-1.59.77-.94.99-1.93,1.79-3.38,1.76-1.84,0-3.72.11-5.53-.03-1.31-.11-2.53-.31-3.89-.14-3.69.48-7.38.65-10.59-1.9-.37-.28-.99-.34-1.5-.37-1.59-.06-3.15,0-4.74,0-.11.23-.34.48-.31.68.06.65-.11,1.16-.65,1.16-.45,0-1.08-.2-1.31-.54-.74-1.08-1.28-2.3-2.02-3.38-.82-1.19-3.18-1.28-4.29-.23-.2.17-.34.4-.48.62-1.79,3.24-4.85,3.75-8.12,3.94-.74.06-.96-.31-1.02-1.59-.03-1.31-.37-1.7-1.08-1.31-1.31.77-2.58,1.59-3.92,2.44-.4-.2-.85-.45-1.33-.71-.45-.26-.94-.51-1.39-.77-.34.4-.65.82-.99,1.22-.71.74-1.82.77-1.96.06-.31-1.36-.79-2.47-2.07-3.15-1.28-.71-2.5-.4-3.8.06-.96.34-2.1.23-3.04.6-2.1.82-4.03.54-6.19-.11-2.24-.68-4.68-.82-6.84.65l.09-.09.09-.09c-.17-.09-.34-.17-.51-.23.09.14.2.26.28.4-1.9,1.36-2.01,1.33-3.75.2l-4.12-1.19c-1.16-.4-1.9.2-2.61,1.02-1.48,1.7-3.69,1.7-5.65,2.27-1.65.48-2.21.03-2.92-2.24-1.22-.09-2.5-.48-3.63.37-1.45,1.05-2.84,2.13-2.98,4.09-1.05-1.14-2.21-1.87-3.94-1.79-5.76.28-11.58,1.53-17.31-.54-.43-.17-1.02.14-1.56.23-2.87.51-5.17-.37-6.95-2.75-.68-.91-1.79-1.36-2.81-.94-2.16.91-4.14.2-6.22-.23-1.39-.28-2.67,0-3.58,1.11-.74.91-1.65,1.16-2.75,1.25-1.7.14-1.73.17-2.67-1.93-.71-1.56-3.55-1.93-4.51-.57-.43.6-.62,1.39-.94,2.16-.74-.26-1.48-.51-2.24-.77h0c-1.42-1.22-3.09-1.93-4.85-1.14-1.9.88-2.92-.68-4.43-1.11-1.9.65-3.89,1.36-5.87,2.04-1.16-.74-2.27-1.45-3.35-2.16-.48.2-1.14.28-1.42.62-1.65,2.04-3.41,2.04-5.45.62-.6-.43-1.22.09-1.65,1.14-.2.48-.37.94-.57,1.48-.28-.34-.62-.62-.79-.99-.79-1.79-2.5-2.38-3.92-1.76-1.84.79-3.32,1.22-5.08.06-.91-.6-2.07-.48-3.07-.06-2.24.94-4.51,1.39-6.84.34-2.04.51-4.03.85-6.1,0-.28-.11-.85.48-1.28.79-.91.68-1.84.99-2.81.14-1.08-.94-2.19-1.33-3.55-.45-.96.62-1.9.48-2.87-.26-1.45-1.11-2.98-.91-4.4.06-1.25.85-2.38.65-3.66-.06-1.45-.82-3.04-.88-4.51,0-1.05.6-1.96.51-2.95-.03-.45-.26-1.05-.57-1.48-.45-3.75,1.11-7.92.6-11.24,3.38-1.48,1.25-3.43,1.16-5.28.43-.96-.4-1.99-.74-2.95-1.11v.09c-1.33-.68-2.64-1.33-3.83-1.93-2.84.94-4.71,2.78-6.73,4.51-.79.71-2.81.14-3.43-.94-.26-.45-.34-1.02-.6-1.48-.82-1.42-2.01-1.65-3.24-.54-.71.65-1.33,1.39-2.01,2.1-.79-1.14-1.65-2.36-3.09-2.24-1.9.14-3.63-.23-5.45-.71-1.87-.48-3.66-.14-5.28,1.05-.62.45-1.31.85-1.93,1.22-1.79-.57-3.15-2.1-5.28-1.45-.6.2-1.48-.4-2.21-.68-1.45-.57-2.53-.23-3.35,1.11-.26.4-.79.91-1.19.91-2.47.06-4.6.99-6.67,2.27-.82.51-2.01.6-3.04.6-2.89-.06-5.79-.37-8.68-.34-2.1,0-4.23.68-6.3.57-2.36-.14-4.65-.91-7.01-1.25-.99-.14-2.07.09-3.09.14-1.84.09-3.69.23-5.53.28-1.84.06-3.77-.34-5.53.09-1.99.48-3.49-.37-5.19-.77-1.25-.28-2.58-.28-3.66.85-.51.54-1.33.79-2.04,1.14-.74.34-1.45-.11-1.62-1.02-.4-2.21-1.31-3.15-2.78-2.72-1.76.48-3.52,1.16-5.31,1.53-.65.11-1.42-.48-2.16-.77v.06c-.85-.48-1.7-1.16-2.61-1.25-1.82-.17-3.72-.26-5.42.65-.82.43-1.59.37-2.21-.09-1.73-1.31-2.87-.45-4,.85-.6.68-1.45.54-2.16.14-.65-.37-1.22-.85-1.87-1.33-.74.65-1.14,1.93-2.47,1.56-.26-.06-.54-.09-.77-.17-2.21-.94-4.43-1.87-6.5.31-1.62-.06-3.21-.06-4.03,1.73-2.58,1.73-4.57,1.48-6.98-.88-.37-.37-.79-.65-1.22-.99-1.53,1.33-2.87,2.95-5.22,2.89-1.05,0-2.27,0-3.09.48-2.64,1.56-5.17-1.16-7.75,0-.17.09-.71-.6-1.08-.94-.37-.37-.62-.94-1.05-1.08-2.24-.82-4.68.54-6.95-.62-.4-.2-1.02-.26-1.48-.11-1.79.51-3.52,1.05-5.45.71-.68-.11-1.59.23-2.21.6-1.96,1.16-3.49.94-4.63-1.11-.43-.79-1.19-1.16-1.93-1.22-1.56-.11-3.18.17-4.74-.06-1.93-.28-2.7,1.33-3.97,2.1-1.5-.37-2.78-1.99-4.43-1.14-1.79.91-3.41.71-5.14.09-.11-.03-.43.28-.51.48-.09.23-.14.6,0,.77.48.77,1.96.71,1.73,2.02-2.36.31-4.71.62-7.07.91-1.11.14-2.1-.14-2.95-.82-.62-.48-1.22-1.02-1.87-1.48-.96-.68-1.19-.65-2.61.71-.57.54-1.05,1.11-1.93,1.02-.28-.34-.57-.68-.85-1.05-.99-1.36-2.1-2.38-3.92-1.31-1.02.6-1.99.28-2.92-.31-.94-.62-1.96-.65-2.98-.09-1.16.65-2.47,1.42-3.72.96-2.64-.94-5.19.09-7.78-.03-.51,0-1.05.14-1.56.2-1.16.17-1.7.99-2.3,1.9-.54.82-1.33.74-1.79-.17s-.62-1.99-1.79-2.33c-1.82,1.05-3.58,0-5.36-.17-.48-.03-1.19.11-1.42.45-1.48,2.13-3.01,1.05-4.74.43-.85-.31-2.04.17-3.04.4-.54.11-.62.62-.51,1.28.09.45.03.94.03,1.42-1.05.37-2.1.37-3.15-.14-.4-.65-.99-.96-1.76-.99-2.36-.09-4.4,1.76-6.9,1.08-.6-.17-1.42.6-2.13.91-1.7.77-3.49,1.08-5.36,1.08h-9.45c-1.56,0-3.15-.14-4.57.79-.74.48-1.48.26-2.21-.03-2.3-.94-4.68-.57-6.92-.06-1.56.37-2.98.62-4.6.45-1.56-.17-3.15.14-4.71.09-6.81-.2-13.59.91-20.43,0-1.5-.2-3.12.37-4.63.71-.37.09-.65.51-.96.85-.26.06-.57.2-.74.09-3.04-1.53-5.96-1.5-8.8.51-.71.51-1.42.48-2.13-.03-.23-.14-.45-.28-.68-.4-1.36-.57-2.72-1.9-4,.26-.14.26-.99.34-1.45.2-4.65-1.5-9.37-.34-14.05-.34-.54,0-1.05.74-1.59,1.22,0-.03,0-.06.03-.06-3.75-1.5-7.63-1.14-11.49-.79-3.86.34-7.72.94-11.58,1.48-.31.06-.57.48-.82.85-3.72-1.73-7.46-1.02-11.18,0-.88,1.67-1.96,1.08-3.04.31-.34.91-.94,1.45-2.01,1.62-2.04.37-2.1.43-3.04-1.56-1.28-.2-2.53-.4-3.8-.57-1.84.74-2.72,2.38-3.72,3.92-.54.79-.23,1.5.37,2.1.57.54,1.22.99,2.01,1.62-.26.82-.57,1.7-.85,2.61,1.56.17,2.5,1.56,3.83,2.16,1.76.79,3.46-1.28,5.28-.09.37.23,1.02-.03,1.53.09,3.63.82,7.24.91,10.9.03,2.58-.62,5.25-.37,7.89-.17,5.02.4,9.82,1.7,14.67,2.92,2.81.71,5.45,1.11,8.37.09,1.87-.65,4.17-.34,6.24-.17,1.28.11,2.7.48,3.72,1.22,1.48,1.08,2.7,2.5,3.86,3.92,1.22,1.45.31,4.65-1.93,5.05-2.07.34-4.17,1.11-6.19.94-2.75-.23-5.11.48-7.58,1.45-1.7.68-3.52,1.11-5.34,1.33-4.68.57-9.22,2.02-13.99,2.07-.26,0-.51.14-.77.2-1.5.31-2.27,1.45-1.9,2.87.54,2.02.77,4.2,1.76,5.99,1.19,2.19,1.16,4.57,1.79,6.81,1.05,3.75,2.24,7.58,1.33,11.61-.23,1.05.4,2.04,1.14,2.84.71.77,1.42,1.5,2.04,2.19-.6,1.59-1.22,3.04-1.65,4.54-.48,1.84-1.73,2.53-3.46,2.58-.99.03-1.14.71-1.33,1.5-.31,1.19-.65,1.42-1.5.77-1.22-.88-2.38-.96-3.69-.57-.77.23-1.65.62-1.62,1.45.03,2.89-1.62,4.88-3.26,6.95-.65.82-1.08,1.76-2.27,1.9-.31-.43-.62-.82-.94-1.25-1.16-1.53-2.19-1.87-3.15-.74-1.7,1.99-3.69,2.84-6.27,2.55-1.82-.2-3.69-.17-5.53-.17s-3.26-1.56-5.31-.68c-1.65.71-3.63.57-5.39,1.02-1.48.37-2.64,1.7-4.34,1.56-.28.77-.79,1.31-1.62,1.56-.71,1.31-2.13,1.19-3.26,1.59-.17.17-.34.37-.51.37-2.81.17-5.59,1.28-8.49.28-.65-.23-1.62,0-2.3.31-2.5,1.22-3.97.23-5.05-2.04-.2-.45-.65-.82-1.08-1.11-.48-.31-1.08-.17-1.22.4-.2.71-.14,1.5-.23,2.41-1.5-.06-3.04-.06-4.54-.26-.34-.03-.62-.74-.82-1.16-.06-.14.14-.51.31-.65.62-.45,1.28-.82,1.99-1.25-.57-.23-1.05-.4-1.5-.6-.71-.28-1.45-.57-2.16-.82-.94-.34-3.55.96-3.8,1.87-.54,1.84.85,4.85,2.67,5.11v-.28l.02.12ZM1380.73,75.78s.14-.06.23-.06c-.14.17-.28.34-.43.48.06-.14.09-.37.17-.43h.03ZM1377.02,113.73c-.31.34-.68.62-1.05.96-.37-.23-.91-.4-1.05-.71-.28-.77.26-1.53,1.05-1.56.43,0,.85.37,1.25.62.06.06-.06.51-.2.68h0ZM1377.56,69.37c.14-.03.31,0,.48,0-.2.51-.48.68-.79.45.11-.17.2-.43.34-.45h-.03ZM1369.5,63.1c1.73-.68,3.52-.48,5.25-.09.62.14,1.28.91,1.5,1.56.2.6-.14,1.39-.26,2.24-2.04-1.67-4.06-2.44-6.5-1.53-.11.03-.71-.68-.71-1.05,0-.4.37-.99.71-1.14h0ZM1352.18,109.73c.96.62,1.99,1.31,2.98,2.02.11.09.03.48-.06.68-.11.23-.37.54-.51.51-1.16-.2-2.3-.45-3.43-.71-.23-.96,0-1.79,1.02-2.5ZM1337.77,110.83c.31-.74.79-1.48,1.67-1.39.74.06,1.45.4,2.16.68.96.4,1.93.68,3.04.45,3.38-.71,3.41-.71,5.36.91.31.26.65.48.99.71-.74,1.02-1.5,2.07-2.33,3.21-3.26-.85-6.78-1.22-10.08-2.61-.65-.28-1.08-1.25-.79-1.96h-.03.01ZM1319.15,109.67c2.13-1.39,4.37-1.45,7.12.14-1.08.51-1.79,1.02-2.53,1.11-1.48.17-3.01-.14-4.43.54-.09.06-.54-.28-.54-.43.03-.48.06-1.19.34-1.36h.04ZM1313.93,109.41c-.26.17-.54.34-.82.45-.11.06-.34-.11-.54-.2.45-.09.91-.17,1.36-.26h0ZM1308.56,110.24s-.06.03-.06.06c.06-.14.11-.28.2-.43-.03.11-.06.28-.11.37,0,0-.03,0-.03,0ZM1305.44,109.5c.85.31,1.65.79,2.47,1.25-.4.28-.79.62-1.25.74-.85.2-1.45-.43-2.02-.96-.17-.17-.31-.43-.45-.62.43-.14.94-.51,1.25-.4h0ZM1295.22,117.5c.23.09.57.11.62.26.11.45-.23.65-.85.51-.14-.03-.26-.28-.37-.45.2-.11.4-.23.6-.31h0ZM1283.96,105.9c.31.09.54.65.74.99,0,0-.34.34-.57.4-.45.14-.94.28-1.42.23-.6-.06-1.16-.23-1.76-.37.94-.57,1.67-1.67,2.98-1.28,0,0,.03.03.03.03ZM1278.03,107.31c.14-.54.65-.54,1.28-.31.37.14.79.2,1.22.26-.2.68-.37,1.36-.62,2.02-.06.17-.48.34-.62.28-.43-.2-.96-.43-1.19-.79-.2-.4-.2-.99-.06-1.45h-.01ZM1275.42,20.07c.14.17.26.31.4.48-.17.11-.34.37-.51.34-.14,0-.28-.28-.4-.45.17-.11.34-.26.51-.37ZM1273.8,106.09c.23.37.62.77.62,1.14s-.45.71-.71,1.05c-.23-.4-.62-.77-.62-1.14s.45-.71.71-1.05ZM1269.2,105.21c.17.17.48.37.45.48-.11.4-.37.77-.54,1.14-.17-.17-.51-.37-.45-.45.14-.4.37-.79.57-1.16h-.03ZM1262.16,105.7c.06-.26.2-.54.4-.65.11-.09.45,0,.62.14,1.65,1.25,1.67,1.31.48,3.75-.54-1.05-1.79-1.79-1.5-3.21v-.03h0ZM1241.67,106.26s-.23-.23-.31-.37c.34,0,.68-.06,1.02-.06-.14.54-.37.71-.68.43h-.03ZM1233.64,103.48c.79-.65,1.87-.68,2.84-.23.2.09.51.37.48.54-.06.43-.11.99-.4,1.22-1.45,1.11-3.12.68-4.74.57.57-.74,1.11-1.53,1.82-2.1ZM1231.14,106.18h0c-.06.11-.11.23-.17.34.06-.11.09-.26.17-.31v-.03ZM1213.06,103.97c.34-.71.79-1.36,1.25-1.99.14-.2.45-.48.62-.43.74.17,1.5.34,2.16.71.85.48.96.99.91,2.72-1.28.23-2.55.48-3.83.68-.74.11-1.48-.96-1.11-1.67v-.03h0ZM1206.62,104.7s-.17-.17-.31-.37h1.05c-.26.14-.48.28-.77.37h.03ZM1207.84,101.64c.4.09.94.54,1.05.94.23.85-.17,1.48-1.16,1.53h-.03c-.48-.48-.99-.96-1.48-1.45.14-.96.85-1.22,1.65-1.05,0,0-.03.03-.03.03ZM1200.38,101.75c.11-.2.45-.45.62-.4,1.7.43,3.38.88,5.05,1.33,0,.51,0,1.02-.03,1.5-1.33.88-2.61,1.31-3.89-.23-.48-.57-1.14-1.02-1.67-1.56-.14-.14-.17-.51-.09-.65h0ZM1196.4,101.5c.23-.06.45.03.68.06.06.14.11.31.17.45-.23.06-.45.2-.65.17-.23,0-.4-.2-.62-.31.14-.14.26-.34.43-.37h0ZM1189.68,101.35c.51-.11,1.02-.14,1.53-.2.48.14,1.02.23,1.45.45.4.23-.23,1.28-1.02,1.7-.74.43-1.5.45-2.1-.17-.31-.34-.4-.91-.48-1.39,0-.09.4-.34.62-.4h0ZM1183.72,100.05c-.68,1.16-1.76.79-2.64.94-1.11.17-1.87.71-2.33,1.7-.43.06-.88.09-1.19.31-.62.43-1.16.71-1.9.23-.31-.2-.68-.31-1.05-.45,2.47-2.55,5.59-3.04,9.05-2.75l.06.03h0ZM1174.18,102.92c-.6.6-.74.6-1.33,0h1.33ZM1161.78,99.99c.17-.17.45-.34.68-.34,2.87,0,5.73.03,8.6.14.43,0,1.11.45,1.22.82.2.65.14,1.36.14,2.07-.43,0-.88,0-1.31-.11h0c-1.02-.91-2.16-1.22-3.18-.06-.77.88-1.45,1.39-2.64.99-1.22-.43-2.5-.71-3.72-1.19-.34-.14-.74-.77-.68-1.11.06-.45.54-.85.88-1.22h0ZM1152.73,13.74s.17.43.11.54c-.14.2-.45.45-.6.43-1.62-.62-3.24-1.31-5.08-2.07,2.3-.79,4.12-.65,5.59,1.14l-.03-.03h.01ZM1067.73,98.01c.14.03.28.09.43.11-.11.45-.26.4-.43-.11ZM1065.66,95.71c.4-.14.99,0,1.33.23.6.45.88,1.11.57,1.87-.82.17-1.39-.23-1.84-.88-.4-.54-.48-1.11-.03-1.25,0,0-.03.03-.03.03ZM1063.58,100.76c.48-.06.57.26.23.82-.11-.09-.37-.14-.37-.23,0-.2.06-.6.14-.62v.03h0ZM1057.77,95.2c.74.06,1.45,1.25.99,1.59-.34.26-.94.45-1.33.31-.96-.31-1.84-.82-4.26-1.93,2.55,0,3.58-.06,4.6,0v.03ZM1051.1,95.68c.23.43.45.85.65,1.25-.28.4-.54.79-.82,1.19-.2-.43-.6-.85-.57-1.25s.45-.79.71-1.19h.03ZM1037.96,95.79c.62.28-.17.03-.06.14-.06,0-.14,0-.2.03.11-.11.23-.2.28-.17h-.03.01ZM1036.14,97.1c.17-.34.62-.51,1.02-.74.06.4.11.79.11,1.19,0,.23-.28.62-.43.62-.6,0-.99-.51-.71-1.08h.01ZM969.53,8.04c.23-.4.57-.79.96-.96.45-.2.99-.11,1.5-.17.48.06.99.09,1.48.23.65.2.79.62.48,1.14-.74,1.22-1.84,1.59-3.21,1.39-.77-.11-1.53-1.05-1.22-1.59v-.03h0ZM955.63,93.46s.09-.09.14-.14l-.14.54s-.06-.31,0-.4ZM946.09,6.2l-.26.34-.17-.43.43.06v.03h0ZM867.39,94.83h.88c-.2.09-.4.17-.6.23-.09,0-.17-.11-.28-.26v.03ZM870.97,90.57v.4l-.43-.23s.43-.17.43-.17ZM861.77,92.22c.4-.26.91-.34,1.39-.51.26.43.68.82.71,1.28.03.43-.23,1.02-.54,1.31-.65.6-1.48.45-2.02-.2-.48-.6-.31-1.42.45-1.9v.03h0ZM850.85,89.6c1.02,0,2.02.17,3.04.26,0-.09,0-.14.03-.23,1.25.26,2.47.48,3.72.77.03,0,.06.45,0,.48-2.07,1.02-4.29,1.36-6.56,1.02-.37-.06-.74-.74-.91-1.19-.23-.6.09-1.14.68-1.14v.03ZM841.65,89.86c.68.34,1.25.79,1.16,1.65-1.45-.06-2.87-.11-4.31-.17.62-2.1,1.25-2.36,3.15-1.48ZM837.76,91.79s.31-.14.51-.2c0,.48-.2.74-.6.68.03-.17,0-.43.11-.48h-.03.01ZM822.64,90.12c.17-.65.54-.82.88-.45.14.17.28.43.28.62-.03.85-.54,1.08-1.25,1.08,0-.43-.03-.85.06-1.25h.03,0ZM822.32,91.59c-.09.54-.14,1.05-.23,1.59-.43-.48-.82-.96-1.25-1.45.48-.06.96-.09,1.45-.14h.03,0ZM818.18,90.88c.37-.28.82-.62,1.22-.6.79.03,1.14.57,1.11,1.33-.65.17-1.31.34-1.96.45-.09,0-.31-.31-.37-.51-.06-.23-.09-.6,0-.68h0ZM799.42,87.42v.43l-.43-.26s.43-.17.43-.17ZM795.53,88.61c.23,0,.54,0,.71.14,1.08.79,2.13,1.67,2.41,3.01.14.68-.26,1.48-.4,2.33h-5.51c-.09-.91-.28-1.67-.23-2.44.06-1.48,1.67-3.01,3.04-3.04h-.03.01ZM786.37,88.36c.77.06,1.53.11,2.24.37.45.14.82.57,1.19.91.54.51.65,1.48.14,2.04-.31.34-.88.74-1.25.68-1.42-.2-2.84-.57-4.26-.88,0-.45,0-.91.06-1.36.14-1.31.71-1.82,1.9-1.76h-.03.01ZM781.28,91.68c.94-.06,1.9-.03,2.84-.03-.45,1.56-1.76,1.28-2.98,1.16-.23,0-.48-.23-.62-.4-.26-.31.03-.68.74-.74h.03-.01ZM778.28,89.18l-.71.2v-.43l.71.2v.03ZM758.47,90.14c.4,0,.79.31,1.22.48-.26.28-.48.79-.71.79-.4,0-.79-.31-1.19-.48.23-.28.45-.79.68-.79h0ZM752.48,92.5c.09-.17.43-.31.6-.26.17.06.37.43.31.57-.17.37-.43.74-.71,1.05-.06.06-.54-.14-.54-.17.09-.4.17-.82.34-1.16v-.03ZM739.06,88.67c.68-.11,1.42,0,2.16.09.6.06.96.4.96.99,0,.68-.37.79-1.05.71-.71-.11-1.48,0-2.21-.03-.14,0-.26-.37-.37-.57.17-.4.28-1.11.54-1.14l-.03-.06h0ZM724.07,100.67c.28-.26.54-.51.82-.77-.2.34-.45.6-.82.77ZM725.55,99.25c.26-.28.51-.6.82-.85.06-.06.54.26.54.28-.28.77-.82.65-1.36.57ZM727.59,88.55c.54.26.74.68.57,1.28-.31.26-.6.57-.94.74-.14.06-.48-.14-.65-.31-.31-.37-.68-.77-.77-1.19-.11-.54,1.05-.85,1.79-.51h0ZM721.12,92.78s-.09.11-.14.14c.03-.17.09-.31.11-.48,0,.11.09.26,0,.34h.03ZM720.49,93.38c-.65.68-.77.68-1.33,0h1.33ZM715.05,90.34c.14.2.31.4.45.6-.09.23-.09.57-.26.68-.45.28-.74,0-.65-.68,0-.2.31-.37.48-.57l-.03-.03h.01ZM703.92,90.34c.11.17.4.4.37.48-.31.6-.6.54-.82-.09.17-.14.31-.28.48-.4h-.03,0ZM692.82,89.55c.28-.31.96-.54,1.33-.4.94.34,1.79.91,2.92,1.53-1.16.62-2.04,1.14-2.95,1.53-.4.17-1.59-.77-1.65-1.36-.03-.45.06-1.02.34-1.33v.03h.01ZM680.76,89.04c.6.45,1.11.99,1.99,1.79-1.14-.06-1.9,0-2.58-.2-.31-.11-.65-.82-.6-1.22.09-.65.65-.82,1.22-.37h-.03,0ZM598.77,88.64c1.36-.23,2.44.48,3.21,1.56.23.31.14.88.06,1.33-.03.2-.4.48-.57.45-1.02-.06-2.04-.17-3.07-.34-.88-.17-1.22-.88-1.28-1.7-.06-.79.6-1.31,1.62-1.33l.03.03ZM583.22,2.56s.11,0,.17-.03c-.14.14-.26.26-.4.4.09-.14.11-.31.23-.37h0ZM576.69,92.19l-.06.48-.4-.28.45-.2h.01ZM548.03,90.54l-.06.51-.57-.31.62-.2h.01ZM512.81,91.9l.23.51-.51-.06.31-.45h-.03,0ZM506.48,92.61c.09.17.23.37.23.54s-.2.31-.31.45c-.09-.17-.23-.37-.2-.54,0-.14.2-.28.31-.45h-.03,0ZM500.35,88.73c.2-.11.48-.17.71-.14.79.09,1.39.48,1.76,1.22.28.62.2,1.05-.45,1.25-.79.26-1.53.11-2.07-.51-.28-.34-.37-.88-.54-1.31.2-.17.34-.4.57-.51h.03-.01ZM485.11,90.37s0-.14-.03-.23c.14.14.28.28.43.43-.14-.06-.34-.09-.4-.2h0ZM484.26,88.9c.51.09.74.43.65.94-.45.2-.82.09-1.02-.4-.06-.11.26-.54.37-.54h0ZM483.21,4.07s-.09.2-.11.31c-.31-.14-.26-.23.11-.31ZM467.54,89.49c.31.37.51.82.77,1.22-.4.2-.79.51-1.22.6-.4.09-.79.03-1.22,0,.17-.65.31-1.31.57-1.9.17-.45.68-.43,1.11.09h-.01ZM465.72,91.56c.34.85.48,1.73.09,2.61-.14.31-.57.51-.85.77-.2-.43-.51-.82-.57-1.25-.2-1.11.31-1.79,1.33-2.1v-.03h0ZM454.97,90.91c.37-.91,1.65-1.87,2.36-1.65.68.23,1.22.82,1.82,1.28-1.16,1.9-1.99,3.8-3.94,4.85-.91-1.48-.91-2.98-.26-4.48h.03-.01ZM450.85,93.58l.14.4-.4-.06.26-.31v-.03ZM447.13,90.57c.37-.2.94-.17,1.39-.06.65.17.68.65.43,1.25-.43.96-.91,1.84-1.9,2.33-.23.11-.62.2-.74.09-.31-.31-.54-.77-.79-1.14.14-1.11.71-1.96,1.65-2.47h-.04ZM366.59,5.71s.28-.09.45-.09c-.03.43-.23.62-.6.51.06-.14.06-.37.14-.43h.01ZM351.78,92.7c.6-.65,1.31-.51,2.04-.23.68.28,1.42.45,2.13.65.6-1.02,1.56-1.19,2.58-1.08.37.03.71.37,1.02.62.06.06-.14.48-.31.65-.54.48-1.14.91-1.73,1.36.06.48-.06,1.08.2,1.45.37.6.43,1.16-.17,1.19-1.48,0-2.98-.09-4.4-.4-.62-.14-1.22-.88-1.67-1.45-.62-.82-.45-1.99.28-2.78h.03v.02ZM344.37,93.63c.6-.51,1.82-.14,1.7.4-.09.43-.45.88-.82,1.16-.48.4-.96.23-1.28-.31.11-.43.11-.99.4-1.25ZM330.29,93.63c.68.17.77.54.17.85-.17.09-.48,0-.68-.09-.11-.09-.11-.37-.14-.54.2-.09.45-.26.62-.23h.03ZM323,94.23c0-.17.26-.31.4-.48.11.17.23.34.34.51-.09.2-.09.48-.23.57-.37.23-.6,0-.51-.62v.03h0ZM315.34,96.7l.2.43h-.45l.26-.43h-.01ZM252.36,10.42s-.09.26-.11.37c-.37-.17-.31-.28.11-.37ZM247.76,94.71c.23-.09.51-.06.77-.06.45.17.99.28,1.36.57.4.28,0,1.48-.6,1.93-.2.14-.43.31-.65.34-.48.06-1.28.2-1.45-.03-.4-.57-.62-1.31-.65-1.99,0-.23.77-.54,1.22-.74v-.03h0ZM207.15,107.77l.2.57-.51-.06.28-.51h.03ZM179.99,98.43l.17.4-.43-.06.26-.34ZM167.62,100.02s-.34.54-.43.51c-.51-.14-.71-.51-.62-1.02.48-.14.88,0,1.05.51ZM164.67,97.07c.62-.26,1.42.11,1.79,1.02.17.4.03.91,0,1.36-.4.23-.79.48-1.22.62-1.05.37-1.65.14-1.82-.62-.26-1.05.23-1.96,1.25-2.41v.03h0ZM152.09,102.83c-.2.26-.37.51-.57.77-.37-.96.11-.85.57-.77ZM152.38,99.68c.4-.09.79-.09,1.22-.11.11,1.22-.2,2.27-1.28,3.04-.28-.51-.6-1.02-.85-1.56-.4-.79-.2-1.11.91-1.36h0ZM144.66,99.62c.09-1.19.85-1.73,2.21-1.5.48.09.94.43,1.62.77-.43.94-.79,1.9-1.36,2.75-.23.34-.94.57-1.36.48-.4-.06-.85-.54-.99-.96-.2-.45-.14-1.05-.09-1.56l-.03.03h0ZM135.09,101.18c.06-.2.23-.34.34-.51.11.48.26.94.28,1.42,0,.23-.11.48-.17.74-.2-.31-.43-.57-.54-.91-.09-.23,0-.51.09-.77v.03h0ZM130.55,17.38s-.4-.06-.45-.17c-.06-.14-.06-.31-.06-.48.48.09.68.28.54.65h-.03ZM131.26,103.57c0,.23-.03.43-.06.65-1.05-.51-2.1-1.05-3.15-1.56-.65-.34-1.11-.82-1.19-1.59.4-.2.79-.43,1.19-.45,2.24-.23,3.12.6,3.21,2.98v-.03h0ZM126.49,100.53s.06.17.09.26c-.17-.11-.37-.26-.54-.37.14.03.37,0,.45.11h0ZM116.59,101.33c.34-.31.94-.91,1.08-.82.88.6.45,1.11-.26,1.5-.23-.06-.48-.03-.65-.14-.11-.09-.2-.45-.14-.51l-.03-.03h0ZM52.51,28.19c-.26-.4-.74-.82-.71-1.22.03-.43.57-.77.88-1.16.26.43.51.85.77,1.28-.31.37-.62.74-.94,1.11h0ZM103.56,101.04c.14-.2.45-.4.65-.4,1.02.11,2.04.28,3.04.43,0-.06,0-.11.03-.17.74.14,1.45.28,2.16.48.09,0,.2.4.14.54-.6,1.31-2.55,2.16-3.92,1.65-.71-.28-1.31-.79-1.93-1.25-.45-.34-.54-.79-.17-1.28h0ZM97.55,100.13c.17.4.45.82.43,1.22,0,.26-.51.48-.82.74-.17-.45-.48-.85-.45-1.25,0-.26.54-.48.85-.71h-.01ZM95.9,106.32s-.4.09-.48,0c-.17-.17-.31-.43-.34-.68-.06-.43-.03-.82-.03-1.25.4.17.88.28,1.05.6.2.28-.09.88-.17,1.33h-.03ZM86.51,100.16c.96-.45,2.04-.62,2.89,0,1.76,1.22,3.43,2.61,5.11,3.92h-5.59c-1.11,1.11-1.76.17-2.47-.51-.34-.31-.68-.6-1.02-.88-.14-1.05,0-1.99,1.08-2.5v-.03ZM84.12,103.31c.2-.54.62-.74,1.16-.62.11.54-.06.94-.6,1.16-.48.17-.71-.06-.54-.51l-.03-.03h.01ZM80.8,101.27s.28.11.4.17c-.17.37-.28.28-.4-.17ZM80.29,100.5s.14.28.17.43c-.43,0-.65-.17-.62-.51.14,0,.4,0,.45.09h0ZM62.67,104.25c.09.17,0,.48-.11.65-.06.11-.31.11-.48.17-.06-.2-.23-.45-.17-.62.17-.71.51-.77.77-.2h-.01Z"/>
    <path class="c" d="M471.12,77.56s.02-.05.03-.08l-.02.04-.02.04h.01Z"/>
    <path class="c" d="M835.73,78.62l-.03-.03-.09.18.16-.12s-.03-.03-.04-.05c0,0-.02,0-.02,0,0,0,.02.02.03.03h-.01,0Z"/>
    <path class="c" d="M470.52,78.07s-.01.04-.02.06c.02,0,.04-.02.06-.02l.03-.06s-.05,0-.08.02h.01Z"/>
    <path class="c" d="M470.52,78.07c.08-.29.22-.51.53-.57-.25-.22-.49-.48-.78-.63-.83-.42-1.75-.39-2.65-.39-.08,0-.17.06-.25.1-.34.13-.59.6-.46.88.12.25.36.53.61.43.88-.34,1.32.38,1.9.73.29-.34.69-.44,1.1-.55h0Z"/>
    <path class="c" d="M471.13,77.52l.02-.04s-.07.02-.11.02c.02.02.04.04.06.06l.02-.04h.01,0Z"/>
    <path class="c" d="M469.42,78.62s-.03.04-.05.06c.01,0,.02,0,.04,0,.01,0,.02-.02.04-.03,0,0-.01,0-.02,0h-.01,0Z"/>
    <path class="c" d="M475.2,75.83c.14-.02.27-.23.37-.38.21-.29.14-.53-.16-.61-.18-.05-.36-.07-.53-.11-.3.05-.52.22-.57.5-.03.15.04.43.14.47.22.11.51.15.75.12h0Z"/>
    <path class="c" d="M475.59,51.25l.09.06.03-.09h-.09s-.02.02-.03.03h0Z"/>
    <path class="c" d="M474.77,51.11c-.04.07-.05.23,0,.25.14.09.32.23.46.2.14-.03.25-.19.37-.31-.12-.08-.24-.17-.36-.24-.2-.12-.37-.09-.46.1h-.01Z"/>
    <path class="c" d="M941.66,80.98s.11-.02.16-.03c0-.02-.01-.05-.02-.07h-.05s-.06.07-.09.11h0Z"/>
    <path class="c" d="M940.72,81.42c.03.24.18.36.31.25.23-.21.43-.45.63-.69-.3.06-.59.11-.88.18-.04,0-.07.17-.06.26Z"/>
    <path class="c" d="M951.76,59.6s.05-.04.07-.06v-.07h-.08v.13h0Z"/>
    <path class="c" d="M951.47,59.88c-.05.1.04.27.07.41.07-.11.18-.21.2-.32.03-.12.02-.24,0-.37-.11.09-.23.17-.29.28h.02Z"/>
    <path class="c" d="M462.22,73.88s-.13-.06-.2-.05c-.03,0-.05.09-.07.15.19.11.29.08.27-.09h0Z"/>
    <path class="c" d="M463.48,74.59c.1-.08.25-.2.25-.3s-.16-.2-.25-.31c-.07.16-.14.31-.18.47,0,.03.17.15.19.14h-.01Z"/>
    <path class="c" d="M464.76,77.11c.06-.03.06-.16.09-.24-.05-.07-.1-.15-.15-.22-.06.06-.17.12-.17.19-.02.25.08.36.24.27h-.01Z"/>
    <path class="c" d="M478.26,74.06c-.09-.21-.2-.19-.26.06-.01.07.04.15.07.22.06,0,.15,0,.16-.05.03-.07.05-.17.02-.23,0,0,.01,0,.01,0Z"/>
    <path class="c" d="M479.32,75.36s-.03-.16-.04-.24c-.05.02-.1.05-.15.07,0,.27.07.34.2.17,0,0-.01,0-.01,0Z"/>
    <path class="c" d="M551.2,43.15c.06.02.14-.05.21-.08-.06-.04-.13-.08-.19-.12-.28.04-.29.12-.02.19h0Z"/>
    <path class="c" d="M571.15,43.15c.21-.11.19-.23-.06-.28-.07,0-.15.05-.23.08.01.06.01.15.05.16.07.03.18.06.24.03h0Z"/>
    <path class="c" d="M878.17,45.88c-.06-.06-.12-.17-.17-.16-.15.02-.28.09-.43.14.14.06.27.13.41.16.05,0,.12-.09.18-.15h.01Z"/>
    <path class="c" d="M788.19,42.65c.09-.08,0-.11-.13.06.03,0,.08,0,.13-.06Z"/>
    <polygon class="c" points="702.59 40.79 702.41 40.78 702.49 40.98 702.59 40.79"/>
    <path class="c" d="M686.62,41.5s-.1.09-.15.13c0,.02.01.04.02.07h.05c.03-.07.06-.13.08-.2h0Z"/>
    <path class="c" d="M673.53,76.44h.13s-.03-.05-.04-.07c0,0-.02,0-.02,0-.02.03-.04.06-.06.08,0,0-.01,0-.01,0Z"/>
    <path class="c" d="M673.53,76.44h-.42c.22.21.26.21.42,0Z"/>
    <path class="c" d="M921.78,48.33h-.27s.03.05.04.08h0c.07-.03.15-.05.22-.08h0Z"/>
    <path class="c" d="M921.92,48.29s-.09.02-.14.04h.23s-.07-.04-.1-.03h.01Z"/>
    <polygon class="c" points="480.36 74.95 480.35 75.08 480.49 75.03 480.36 74.95"/>
    <polygon class="c" points="935.85 49.65 935.74 49.8 935.92 49.82 935.85 49.65"/>
    <path class="c" d="M479.44,47.71l.12.08s.03.02.04.03c0-.02.02-.03.02-.05l-.18-.06Z"/>
    <path class="c" d="M477.92,47.75s-.09,0-.13.02c.01.02.02.04.03.06h.04s.04-.06.06-.09h0Z"/>
    <path class="c" d="M478.04,47.59s-.08.11-.12.16c.03,0,.05,0,.08-.02s.03-.09.04-.14Z"/>
    <path class="c" d="M474.02,49.6l-.06-.12c-.06-.05-.11-.1-.17-.15.03.07.07.15.1.22l.13.05Z"/>
    <path class="c" d="M940.19,50.06c.03.21.1,0,0,0h0Z"/>
    <path class="c" d="M458.51,76.84c.07-.02.12-.1.18-.15-.05-.06-.11-.11-.16-.17-.06.08-.13.15-.19.23.07.04.13.1.17.09Z"/>
    <polygon class="c" points="949.79 60.48 949.99 60.41 949.81 60.29 949.79 60.48"/>
  </g>
</svg>