<?xml version="1.0" encoding="UTF-8"?>
<svg id="b" data-name="Element" xmlns="http://www.w3.org/2000/svg" width="1001.61" height="125.47" viewBox="0 0 1001.61 125.47">
  <defs>
    <style>
      .c {
        fill: #fff;
      }
    </style>
  </defs>
  <path class="c" d="M719.07,67.27c-.22-.32-.78-.69-1.22-.72-4.74-.3-9.5-.66-13.84,1.29-.31-.26-.6-.53-.96-.75-.06-.04-.58.17-.56.21.27.8,1.02.48,1.69.36.62.41,1.15.94,1.88,1.22,3.09,1.16,6.46,1.67,9.89,1.93,1.81.14,3.34-.43,4.51-1.47.37.31.65.72,1.11.93,3.22,1.44,6.78,2.23,10.47,2.75,1.89-.62,3.15.29,4.67.87,2.01.77,4.28,1.19,6.37,1.87.71.23,1.52.75,1.71,1.25.61,1.55,2.38,1.65,4.02,1.9,2.26.35,4.55-.45,6.85.15,2.56.67,4.9.49,7.34-.67,2.19-1.04,4.88-1.22,7.47-.44,2.75.82,5.64.84,8.51.62,2.69-.21,5.14.24,7.49,1.08.34.12.49.59.63.91.03.07-.39.34-.61.35-2.58.06-5.17.05-7.75.15-.47.02-.91.4-1.37.61.19.15.36.4.59.45,3.61.68,7.23,1.33,10.85,1.98,3.9.71,7.61,1.81,11.61,2.37,3.6.5,6.98,1.8,10.46,2.74.54.14,1.08.27,1.63.4l.18-.17c-4.26.86-8.54.72-12.85.23-1.71-.19-3.42-.36-5.14-.48-13.73-1-27.42-2.2-41.11-3.46-3.06-.28-5.67.33-8.16,1.46-.23.1-.55.4-.49.48.24.35.53.83.95.93,1.35.31,2.76.48,4.16.7,1.34.21,1.52.4,1.44,1.8-.02.4-.29.93-.03,1.18.49.47,1.2.97,1.95,1.12,1.06.2,2.24.06,3.37.12,1.12.07,2.26.14,3.34.36.48.1.82.55,1.23.84-.45.2-.9.59-1.33.58-2-.07-4-.24-6-.38-5.17-.35-10.27-.81-14.99-2.64-1.46-.57-3.31-.65-4.99-.87-5.41-.73-10.93-.23-16.36-.66-2.65-.21-4.37.74-5.8,2.17,0,0,.13-.1.09-.07-1.34.3-2.87.34-3.25,1.59,1,.68,2.2.3,3.3.42,7.39.82,14.78,1.63,22.15,2.51,2.29.27,4.51.67,6.68-.33.41-.19,1.12,0,1.69-.04,1.41-.11,3.23.22,6.12,1.15,3.47,1.11,7.14,1.79,10.89,1.84,4.63.07,9.13.84,13.73,1.03.85.04,1.75.04,2.52.25,3.77,1.04,7.51,2.13,11.22,3.26.38.12.68.71.66,1.06-.02.3-.57.83-.9.83-2.59.04-5.24.21-7.77-.09-4.47-.54-8.53.19-12.53,1.47-.97.31-1.05.85-.61,1.48.13.19.34.35.42.54.69,1.59.1,2.56-1.77,2.89-.56.1-1.15.11-1.71.2-2.97.48-3.47.89-3.17,2.87.12.8.57,1.58.79,2.38.22.79-.82,1.8-1.84,1.75-3.73-.17-7.47-.32-11.19-.59-1.11-.08-2.14-.51-2.79-1.31-.73-.89-1.65-1.7-2.39-2.58-.87-1.03-1.65-2.11-2.37-3.04-1.83-.26-3.15.21-4.46.59-1.65.48-3.2.42-5,.26-4.25-.37-8.57-.54-12.86-.21-.84.06-1.66.31-2.47.52-.21.05-.45.25-.49.4-.15.5.22.72.9.9.77.2,1.49.53,2.18.86.19.09.37.4.29.54-.21.35-.48.89-.87.95-1.38.24-2.82.38-4.24.45-1.88.1-3.38-.47-4.36-1.64-.59-.7-.92-1.51-1.56-2.18-.23-.24-1.06-.34-1.54-.26-.44.07-.95.41-1.13.72-.22.36-.03.83-.17,1.23-.42,1.19-1.85,1.84-3.15,1.45-1.85-.55-3.66-1.2-5.55-1.67-1.59-.4-2.16-1.15-2.41-2.29-.2-.91-1.36-1.29-2.54-1.41-.84-.08-1.72-.04-2.58.02-1.71.12-2.33.73-2.15,2.12.16,1.27-.56,2.04-1.95,1.97-2.58-.12-5.2-.18-7.72-.55-1.76-.26-3.33-.33-5.08-.01-1.36.25-2.84.19-4.27.22-2.3.05-4.61.04-6.91.08-.83.01-1.22.81-.7,1.47.28.36.76.64,1,1.01.21.33.28.73.26,1.09-.01.34-1.78.63-2.35.38-1.5-.67-2.93-1.43-2.82-2.89.12-1.6-1.14-2.27-3.07-2.43-4.29-.36-8.58-.72-12.88-.99-9.18-.59-18.41-.68-27.56-1.6-3.12-.31-6.19-.77-9.42-.25-1.62.26-3.43-.06-5.15-.19-5.73-.43-11.44-1.19-17.17-1.28-6.07-.09-12.04-.59-18.06-1.05-3.18-.24-6.13-1.24-9.22-1.3-3.78-.07-7.45-.55-11.17-.87-2.29-.19-4.58-.4-6.88-.44-.76-.01-1.71.35-2.26.76-.79.58-1.32,1.36-1.91,2.07-.8.97-2.02,1.48-3.52,1.59-1.14.08-2.31.03-3.46,0-1.64-.04-2.65.52-3.31,1.59-.18.3-.94.64-1.36.59-3.97-.46-8.07.32-11.99-.72-5-1.32-10.25-.8-15.41-.9-.54-.01-1.29.09-1.6.35-2.22,1.84-5.18,1.56-8.03,1.51-8.65-.17-17.33.13-25.95-.69-1.41-.14-2.88.08-4.32.06-14.43-.13-28.85.91-43.29.2-1.44-.07-2.89-.02-4.33.06-5.78.35-11.53-.2-17.29-.25-5.77-.05-11.48-.39-17.04-1.64-.75-.17-1.69.02-2.51.12-.56.07-1.05.36-1.61.45-6.9,1.16-13.77.09-20.65-.18-.28-.01-.55-.12-.82-.19-2.16-.56-4.28-1.4-6.51-1.61-2.21-.21-4.55.19-6.82.35-2.58.18-5.18.32-7.73.63-2.08.25-4.11.25-5.9-.5-2.64-1.1-5.44-1.32-8.35-1.14-5.46.33-10.88.98-16.4.67-1.4-.08-2.88.21-4.27.47-5.63,1.06-11.36,1.36-17.14,1.48-2.37.05-4.49-.13-6.66-.91-1.17-.42-2.83-.4-4.19-.25-5.71.63-11.45,1.07-17.2,1.49-5.43.4-10.87,1.05-16.14,2.2-.82.18-1.6.5-1.8,1.18-.36,1.2-1.37,1.67-3.04,1.71-5.78.13-11.49.83-17.03,1.88-5.95,1.13-11.99,1.15-18.01,1.58-.55.04-1.13-.12-1.68-.22-.7-.13-1-.43-.88-.85.05-.2.07-.51.23-.56,5.25-1.65,9.18-5.02,15.08-5.85,1.64-.23,3.19-.98,4.61-1.67.54-.27.59-1.05.87-1.6.16.09.31.18.49.25.06.03.18,0,.27-.02-.17-.05-.34-.11-.55-.19-5.97,1.67-12.19,2.33-18.51,2.26-7.77-.09-15.35.82-22.93,1.8-1.74.22-3.3.25-5.02-.11-1.61-.34-3.38-.29-5.08-.41l.26.12c2.2-2.07,5.02-3.23,8.68-3.59,10.83-1.08,21.63-2.31,32.44-3.48,2.51-.27,5.06-.17,6.84-2.05.98-1.03,3.19-.69,4.89-.79,1.8-.11,3.37-.57,4.57-1.54.24-.19.2-.87-.04-1-.67-.37-1.51-.79-2.29-.79-6.02-.03-12.03-.8-18.07.1-2.79.42-5.71.42-8.57.52-.4.01-.83-.45-1.24-.7.32-.27.64-.77.97-.78,2.58-.03,5.17.11,7.75.06,1.71-.03,3.65.04,5.07-.51,3.15-1.21,6.35-1.71,9.88-1.7,1.66,0,3.3-.77,4.97-.85,5.45-.25,10.91-.35,16.55-.51.42-.39.86-.93,1.48-1.31.38-.23,1.31-.44,1.53-.3,1.91,1.29,4.16,1.14,6.42.9,8.56-.87,17.11-1.76,25.66-2.66.8-.08,1-.4.65-.76-.49-.16-.98-.44-1.48-.45-8.06-.31-16.11-.54-24.1.62-.82.12-1.59.13-2.49-.13-4.26-1.26-8.54-.75-12.55.5-2.74.85-5.4,1.24-8.35,1.18-4.34-.08-8.63.13-12.59,1.71-1.77.7-3.79.92-5.86.88-5.47-.11-10.95-.06-16.41-.27-4.88-.19-9.76-.38-14.65-.35-1.42.08-2.84.16-4.26.25-.28.02-.78-.01-.82.06-.24.52.08.58.93.4,1.37-.29,2.78-.48,4.18-.71.25.92,1.03,1.35,2.3,1.53.78.11,1.58.39,2.19.76.29.18.22.73.17,1.1-.02.14-.41.35-.65.36-1.13.06-2.27.13-3.4.08-8.29-.35-16.55-.9-24.89-.89-7.15.01-14.32-.46-20.59-3.46-.45-.21-1.1-.2-1.66-.3-1.55-.28-1.71-2.03-3.98-1.73-1.64.21-3.43-.28-5.12-.19-5.13.26-10.24.83-15.37.91-3.83.06-7.49.65-10.87,1.65-3.08.92-6.03,1.1-9.19.87-3.7-.27-7.4-.51-11.11-.76l-.04.11c-.68-.91-1.31-1.84-2.05-2.72-.63-.76-1.63-1.15-2.89-1.06-.86.06-1.71.2-2.57.23-1.47.05-2.25-.35-2.55-1.19-.63-1.8-1.13-3.64-1.94-5.4-.82-1.77-1.86-3.58-4.45-4.39-2.2-.69-1.87-3.09-4.6-3.32-.64-.92-1.51-1.8-1.85-2.77-.33-.98-.14-2.05-.14-3.08,0-.48,1.13-1.09,1.87-1.01,1.99.22,3.99.41,5.95.72,4.55.72,9.15.7,13.75.5,1.24-.05,2.07-.72,1.88-1.68-.51-2.64-1.12-5.27-1.71-8.02-1.05-.26-2.11-.56-3.21-.79-1.94-.4-3.92-.69-5.83-1.15-.76-.18-1.39-.69-2.01-1.1-.59-.38-.54-1.42.05-1.67,1.72-.74,3.25-1.69,5.37-1.92,2.22-.24,2.37-2.3,4.39-2.83.68-.18.74-.64.23-.98-.17-.11-.62-.14-.81-.05-1.87.81-3.93.63-5.9.48-.63-.05-1.42-.68-1.71-1.17-1-1.75-.55-2.75,1.45-3.73.95-.47,1.95-.88,2.93-1.32.12.15.25.29.37.44.4-.26.22-.35-.54-.26-.56-.93-1.75-1.1-2.87-.97-2.03.22-3.92.29-5.74-.6-.69-.34-1.62-.42-2.43-.65-.75-.22-1.75-.23-1.79-1.08-.02-.51,1.34-1,2.84-.87,2.86.25,5.71.54,8.55.89,1.7.21,3.36.59,5.05.86,2.16.35,3.97-.23,5.62-1.16.21-.12.48-.39.42-.5-.18-.31-.44-.7-.81-.83-1.03-.36-2.11-.74-3.22-.86-6.57-.69-13.13-1.55-19.74-1.87-5.79-.28-11.45-1.05-17.16-1.65-2.51-.26-4.93-1.13-7.29-1.89-.55-.18-.95-1.02-.96-1.56-.03-1.22,1.1-2.12,2.52-2.12,4.64,0,9.22,0,12.66,2.92.83.71,2.5,1.05,3.88,1.25,6.26.92,12.51,1.29,18.69-.39,1.04-.28,2.35-.47,3.38-.28,6.12,1.14,12.72-.23,18.65,1.9.45.16,1.13-.04,1.7-.03,7.19.09,14.35-.34,21.52-.71,9.5-.49,19.01-.81,28.42-2.01,9.37-1.19,18.69-2.63,28.24-3.06,3.43-.15,6.82-.85,10.23-1.31,1.7-.23,3.39-.58,5.11-.69,4.04-.25,7.96-.61,11.38-2.47,1.08-.59,2.69-.75,4.1-.93,6.26-.79,12.51-1.61,18.81-2.21,3.71-.36,7.39-.69,11.06-1.26,7.04-1.1,14.2-1.83,21.31-2.68,3.97-.47,7.98-.74,11.94-1.35,6.18-.96,12.49-1.45,18.73-2.2,2.31-.28,4.52-.32,6.82.19,1.3.28,2.85.11,4.25-.04,3.42-.37,6.8-.91,10.22-1.26,5.71-.58,11.43-1.03,17.08.32.27.06.58.1.85.08,1.7-.15,3.44-.58,5.07-.42,1.66.17,3.21.74,5.03.65,2.85-.15,5.73-.06,8.59-.12.96-.02,1.56-.54,1.88-1.13.19-.35.07-.8.12-1.2.26-1.92,1.07-2.6,3.47-2.93.8-.11,1.84.35,1.86.96.03.85-.06,1.8.93,2.31,1.71.89,2.46-.56,3.57-1.02,2.19-.89,4.33-1.03,6.6-.28,1.04.34,2.1.68,3.18.95,1.13.29,2.15-.23,3.16-1.5.14-.18.29-.36.6-.74,1.25.11,2.62.26,4,.36,1.43.1,2.87.15,4.31.22l-.18-.06c2.18.9,4.47-.05,6.75.19,2.21.24,4.22,1.35,6.59.82.72-1.46,1.16-2.83-1.73-3.36-.28-.05-.55-.66-.51-1,.06-.48,1.51-.98,2.08-.74.71.3,1.65.6,1.92,1.07.77,1.33,2.08,1.89,3.96,1.95.86.03,1.71.09,2.57.13.28.01.58,0,.86-.04.28-.04.76-.15.76-.22-.02-.38-.04-.8-.29-1.12-.39-.48-1.64-.75-1.22-1.37.27-.41,1.34-.54,2.07-.77.25-.08.57-.04.85-.09,2.56-.45,4.43-.04,5.37,1.96.52,1.1,2.02,1.37,3.5,1.44,3.14.14,6.27.06,9.41,0,3.4-.08,6.62,1.28,10.15,1.07.81-.05,1.67.23,2.5.37.7.12,1.28-.04,1.28-.51,0-.37-.38-.75-.59-1.12l-.08.16c3.41-1.24,6.88-2.11,10.73-1.07.26.07.64.14.84.06.73-.3,1.5-.59,2.07-1.02.74-.55.38-1.12-.32-1.6-.41-.29-.81-.59-1.15-.92-.16-.15-.26-.4-.21-.58.12-.51.53-.58,1.17-.51,2.43.24,5-.61,7.32.79.7.42,2.22.27,3.33.17,3.69-.35,7.4-.66,11.01-1.27,2.54-.43,4.56.19,6.53,1.01.9.37,1.73,1.16,2.03,1.89.4.96.27,2.03.36,3.06l.16-.13c-1.5-1.24-3.22-1.69-5.36-.83-.7.28-1.46.5-2.26.76-.73-.77-1.28-1.51-2.03-2.1-1.8-1.42-4.56-1.16-5.71.48-.13.18-.2.39-.25.6-.51,1.91-2.43,2.77-4.77,3.18-1.96.34-3.99.7-5.97.67-3.73-.06-7.37.97-11.14.31-1.17-.2-2.09.43-3.09.85-2.18.9-2.14,2.89-3.82,3.84-4.44,0-8.74-.09-13.02.03-2.88.08-5.74.46-8.56-.25-5.74.14-11.48.1-17.18.84-3.83.49-7.8,1.77-11.62-.16-4.83-.16-9.68-.95-14.45.41-1.07.31-2.15.53-3.05,1.06-1.43.84-3.11.99-4.89.95-4.32-.09-8.64-.12-12.95-.25-1.73-.05-3.35.03-5.07.36-5.57,1.06-11.23,1.83-17.06,1.55-2.89-.14-5.63.68-8.57.6-2.22-.06-4.53.53-6.69,1.06-1.21.3-2.74.56-3.29,1.97,1.48.12,2.84-.17,4.18-.12,1.7.06,3.37.44,5.07.56.81.06,1.72-.06,2.47-.29,4.58-1.43,9.38-1.88,14.33-1.92,8.07-.06,16.13-.25,24.2-.38,2.02-.03,4.04-.11,6.05-.05,1.66.05,3.39-.26,4.85.28-9.85,2.46-20.23,2.77-30.61,3.11-8.63.28-17.3.05-25.88,1.16-2.23.29-4.6.21-6.88.07-3.48-.21-6.91-.08-10.34.31-1.4.16-2.84.11-4.26.16-.54.33-1.52-.2-1.84.51,0,0,.5.21.63.16.45-.2.84-.48,1.28-.75.95.75,1.89,1.53,2.79,2.33.5.45.26,1.41-.39,1.65-1.26.47-2.56.88-3.75,1.44-.26.12-.08.73-.1,1.14,2.83.26,5.67.75,8.5.72,3.46-.04,6.88-.74,9.99-1.8,1.97-.67,3.82-.89,5.83-.7,4.6.42,9.11.51,13.76-.11,3.94-.52,8.09-.39,11.75,1.26,1.07.48,2.14.49,3.2-.05,1.22-.62,2.55-.86,4.06-.86,2,0,4.07,0,5.99-.33,1.99-.35,3.89-.52,5.95-.48,5.46.12,10.92.09,16.38,0,4.03-.06,8.07-.49,12.09-.39,4.21.11,7.94-.58,11.39-2.24,6.56-.9,13.11-1.78,19.51.53.5.18,1.1.25,1.66.33,1.17.17,2.58.22,3.29-.39,2.18-1.9,5.07-1.87,7.94-1.68,3.45.23,6.86.73,10.29,1.03,2.32.2,4.47.55,6.43,1.61,1.89,1.02,4.2,1.39,6.58,1.13.43-.05.81-.46,1.14-.75.08-.07-.11-.37-.28-.49-.39-.3-.97-.51-1.23-.85-.23-.3-.18-.73-.12-1.1.02-.12.45-.29.71-.3,3.8-.22,7.47.41,11.16.89,1.65.21,2.34,1.06,2.41,2.23.06.96,1,1.55,2.15,1.69,5.96.7,11.91,1.66,18,1.02,3.43-.36,6.95.26,10.31-.58.25-.06.65-.29.62-.38-.14-.38-.28-.94-.64-1.05-2.09-.66-4.27-1.2-6.38-1.82-.62-.19-.73-.64-.43-1.09.11-.16.27-.39.46-.43,1.11-.19,2.24-.49,3.36-.46,5.19.11,10.37.23,15.54-.25,2.38-.22,4.8.1,6.73.89,2.99,1.22,6.51,1.51,9.29,3.16,2.23,1.32,5.17,1.67,8.18,1.59,2.01-.05,4.01.05,6.02-.28,7.68-1.26,15.52-.78,23.3-.99,1.16-.03,2.16.5,2.38,1.48.15.65.67,1.07,1.55,1.34.76.24,1.53.58,2.09,1.01.28.22.17.75.11,1.13-.02.14-.45.34-.68.34-2.57-.06-5.14-.15-7.63-.23-4.24,2.5-4.24,2.48-9.19,2.98-2.57.26-5.11.63-7.67.9-1.49.16-2.77-.08-3.81-1.02-1.23-1.11-2.86-1.23-4.67-.67-1.56.48-3.18.87-4.78,1.3.54.93,1.7,1.14,2.71,1.28,3.38.5,6.8.86,10.26,1.03,1.47.07,3.06.65,3.33,1.72.57,2.22,2.89,2.96,5.25,3.74.48.16,1.37.3,1.62.12,2.44-1.75,4.93-.09,7.32,0,2.29.09,4.6.65,6.82.06,1.74-.47,3.19-.55,4.92.06,1.53.54,3.29.74,4.97,1.05,1.14.21,2.33.24,3.29-.32,2.67-1.56,5.78-1.77,9.02-1.6,7.28.39,14.36-.72,21.47-1.54.42-.05.77-.53,1.06-.85.06-.07-.21-.35-.4-.47-.44-.27-.97-.46-1.37-.75-.36-.26-.88-.63-.82-.9.06-.29.69-.68,1.12-.72,2.28-.19,4.55-.49,6.88-.03,1.36.27,2.85.36,4.26.31,3.49-.13,6.92.08,10.27.76,3.11.63,6.13.99,9.19-.21.61-.24,1.68.21,2.51.15.42-.03.78-.47,1.16-.73-.2-.15-.36-.4-.59-.44-1.4-.21-2.82-.34-4.21-.56-.89-.14-1.55-.55-1.7-1.25-.09-.41-.07-.83-.14-1.24-.29-1.65-.43-1.81-2.39-2.09-1.97-.29-3.96-.56-5.96-.71-2.87-.21-5.77-.2-8.63-.47-1.66-.16-3.25-.68-4.83-1.03-.47-1.42-.9-2.62-1.26-3.84-.23-.78.86-1.65,2.03-1.66,3.71-.02,7.54-.44,10.69,1.57.2.13.53.21.8.22,2.51.06,5.01.1,7.7.15-.38-.95-.68-1.7-1.15-2.87,3.85.37,7.54.36,11,.47,1.84,1.08,3.39,2.01,4.99,2.9,1.38.78,3.1.54,4.56-.57.65-.5.48-1.23-.4-1.5-.53-.16-1.11-.22-1.65-.37-.54-.15-1.07-.32-1.55-.54-.21-.1-.46-.46-.39-.52.33-.28.77-.73,1.14-.72q6.29.24,11.41-1.01c.26-.06.58-.03.86.01.28.04.54.15.81.22.02,1.01-.98,1.37-2.03,1.75-.45.16-.83.49-1.1.81-.25.29.81.88,1.68,1.14,1.71.51,3.39.27,5.05-.03.47-.08,1.08-.42,1.18-.73.11-.32-.2-.8-.53-1.08-.34-.3-.91-.46-1.4-.66-.99-.41-1.99-.81-3.03-1.23.82-.03,1.83.16,2.52-.1,2.52-.94,5-.77,7.54-.16,1.07.26,2.1.63,3.19.79.36.05.92-.37,1.29-.64.15-.11.15-.46.01-.6-.65-.67-1.25-1.4-2.1-1.91-.62-.37-1.61-.4-2.41-.64-1.18-.35-1.71-1.01-1.17-1.38.39-.27.81-.66,1.27-.7,2.29-.19,4.59-.29,6.89-.38.55-.02,1.29.02,1.66.26,2.35,1.51,5.25,1.3,8.04,1.49.56.04,1.14.17,1.63.36,2.26.9,4.53,1.8,6.72,2.78.53.24.25.73-.15,1.12-.28.27-.31.68-.48,1.08,1.4.27,2.77.62,4.19.78,1.99.21,4.01.28,6.02.38.2,0,.56-.21.6-.35.09-.38.26-.88.02-1.15-.45-.49-1.12-.89-1.79-1.23-.62-.31-1.36-.49-2.12-.75,3.26-2.88,7.03-3.56,11.63-2.49,3.01.7,6.14,1.11,9.2,1.68,1.2.22,1.91.84,2.39,1.66.2.34.68.61,1.11.84.17.09.58.04.81-.05.24-.09.57-.33.54-.46-.26-.98-2.01-1.93-1.07-2.83,1.41-1.36,1.1-3.27,3.02-4.39l-.29-.08c1.18,1.09,3.22.79,4.61,1.49,2.86,1.45,5.98,2.38,9.45,2.79,1.06.12,2.11.59,3.01,1.05,1.22.64,2.49.97,3.99.91,5.23-.23,10.24.81,15.3,1.49,1.06.14,1.99.76,2.98,1.17l.45.22s-.29-.39-.3-.39c3.27,1.86,7.11,2.44,11.16,2.45.37,0,.9-.5,1.06-.84.16-.34-.02-.78-.13-1.16-.12-.4-.41-.77-.52-1.17-.14-.53.88-1.25,1.59-1.15,1.47.19,2.75.62,3.37,1.67.39.66-.33,1.14-.71,1.68-.81,1.17-.13,2.24,1.33,2.32,1.42.08,2.84.12,4.26.17,1.94.06,2.37-.21,2.71-1.72.39-1.7.53-1.89,2.35-1.34,1.72.52,3.18.53,4.93.06,3.07-.84,6.45-.84,9.08.46,2.43,1.2,5.07,1.84,7.65,2.67,3.37,1.08,7.15,1.49,10.11,3.25.4.24,1.16.43,1.6.32,3.33-.82,6.06.86,9.12,1.14,1.34.12,2.65.79,3.42,1.75,0,0,.19-.17.18-.16-3.14-.26-6.35-.3-9.37-.85-3.27-.6-6.23-.35-9.21.56-1.32.4-2.64.8-4.1,1.24-3.78-.61-7.88-.33-11.41-1.97-.62-.29-1.64.14-2.03.8-.33.56-.54,1.16-.87,1.9-.83-.35-1.72-.54-2.18-.96-1.24-1.14-2.21-2.45-4.02-3.18-.44-.18-1.15-.3-1.58-.17-.97.3-.84.96-.58,1.57.08.19.27.36.42.54l.18-.16c-1.11-.15-2.22-.3-3.53-.48-1.37.9-2.78,1.9-4.29,2.82-1.53.93-3.7.99-5.25,2.06-.93.64-2.65.65-3.87,1.13-1.36.54-1.86,1.58-1.84,2.66.02.92.91,1.48,2.03,1.8,1.6.45,3.21.86,4.82,1.29.44,1.45,2.06,2.02,3.75,2.15,2.62.2,4.89,1.01,7.32,1.6,3.52.85,6.84,2.19,10.65,2.44,2.1.14,3.74,1.08,5.11,2.17.95.76,1.73,1.64,2.57,2.46-.19.21-.32.5-.52.53-2.8.43-5.43,1.33-8.33,1.48-.39.02-.99.5-1.06.82-.26,1.14-1.46,1.18-2.58,1.23-.44.02-1.33-.38-1.3-.47.5-1.56-.63-2.16-2.46-2.76-5.29-1.74-10.9-2.66-16.45-3.78-.53-.11-1.21-.18-1.68-.03-.74.22-1.63.54-1.97,1.01-.52.71-.59,1.58-.91,2.37-.07.18-.32.37-.56.46-.6.24-1.01.05-1.46-.32-.76-.64-1.24-1.34-1.68-2.13-.87-1.55-1.4-1.58-4.02-.75-1.79-.59-3.5-.36-5.23.26-.26-.3-.45-.64-.69-.95-.12-.15-.3-.32-.51-.37-.2-.05-.58-.02-.68.08-.27.28.05.44.7.61.44.11.78.42,1.16.64,1.79-.13,3.59-.25,5.4-.39.06.79.1,1.59.15,2.47-.79.13-1.62.4-2.43.36-7.37-.34-14.73-.7-22.06-1.49-7.61-.82-15.29-1.12-22.89.28-2.22-.33-4.44-.67-6.61-1-.54.4-.56.85.07,1.02,2.23.61,4.46.41,6.68-.15.16.36.14.88.48,1.08,3.03,1.76,6.32,3.21,10.16,4.02.24,1.13.55,2.12.62,3.11.02.29-.64.6-.99.89-.4-.75-.73-1.53-1.24-2.25ZM697.07,32.15c-.22-.06-.56-.01-.77.08-.17.07-.24.29-.35.44.41.12.83.37,1.21.34.52-.04,1-.29,1.5-.45.29.25.56.52.82.8.12-.09.24-.17.35-.26-.44-.13-.87-.26-1.31-.39-.48-.19-.95-.41-1.45-.55ZM752.19,113.16l-.23.36c.25.01.53.02.8,0,.85-.05.89-.11.13-.08-.26,0-.51.14-.77.21l.08-.5ZM749.06,107.18l-.35.28c.46.07.95.16,1.44.22.24.03.65.05.73-.04.4-.48.14-.71-.63-.53-.47.11-.9.33-1.34.5l.15-.42ZM431.65,76.45c-.11.39.14.42.75.1.32.98,1.3,1.16,2.5,1.02.23-.03.5-.17.61-.32.25-.33-.04-.63-.77-.65-.82-.02-1.64.07-2.47.12-.21-.09-.42-.18-.63-.27ZM570.24,89.28l-.11-.27c-.5-.15-1.01-.33-1.55-.45-.25-.05-.65-.06-.82.05-.61.39-.4.59.52.5.56-.05,1.11-.15,1.67-.22l.28.38ZM527.84,36.27c.49.76,1.16-.03,1.72.1.37.3.64.66,1.01.95.15.12.6.16.8.08.73-.29.6-.51-.32-.64-.55-.08-1.09-.24-1.63-.37-.53-.04-1.05-.08-1.58-.13ZM485.82,34.11l-.21.32c1.19.39,2.48.55,3.78.17.15-.04.29-.29.25-.41-.04-.13-.29-.28-.48-.31-1.4-.21-2.6.13-3.69.73l.35-.5ZM516.63,46.87c.17-.09.32-.21.5-.25.23-.04.48,0,.72,0,.64.7,1.46,1.08,2.69.9.69-.1,1.01-.32.8-.78-.07-.16-.33-.41-.5-.4-1.04.03-2.07.12-3.11.19-.37.11-.73.22-1.1.33ZM407.25,41.37l.36-.31c-.85.77-1.73,1.56-2.64,2.38,1.83,1.32,3.64,1.04,5.49.43.62-.2.9-.69.4-1.01-1.03-.67-2.23-1.21-3.36-1.81l-.24.32ZM610.32,84.13c-.03.49-.06.97-.09,1.46,2.77-.16,5.64-.16,7.32-2.24-3.47-.83-5.39.67-7.25,2.27,0-.5,0-.99.01-1.49ZM658.52,42.84c1.5.44,3.11.68,4.69.97.18.03.59-.15.65-.29.15-.34.4-.85.18-1.06-.64-.62-1.37-1.38-2.3-1.63-1.55-.41-3.31-.37-4.75-1.09.81.05,1.63.17,2.43.12.49-.03,1.14-.27,1.33-.55.16-.23-.12-.77-.45-.99-.62-.42-1.55-.52-2.11-.03-.49.43-.61,1.07-.9,1.62-.79,1.32-.36,2.47,1.22,2.93ZM700.87,42.58c.2-.01.52-.18.56-.31.14-.47-.24-.66-1-.64-1.22.04-2.1.52-2.93,1.09-1.21-.41-1.57-1.52-3.26-1.66-1.92-.16-3.77-.74-5.68-1.06-1.08-.18-2.21-.22-3.33-.3-.79-.06-2.09.55-1.85.84.27.33.65.74,1.1.85,3.21.79,6.47,1.36,9.9.74,1.14-.21,2.22-.02,3.14.53,1.12-.03,2.24-.04,3.35-.1ZM96.26,73.3c-1.27-.42-2.1.2-3.05.48-.51-.5-.82-1.2-1.48-1.47-1.49-.61-3.12-1.09-4.76-1.48-1.69-.4-3.45-.37-5.04.26-1.46.58-2.84,1.28-4.95,2.23,4.23.05,7.68.07,11.12.15,1.71.04,3.42.2,5.13.31.98-.16,1.95-.32,3.02-.49ZM682.89,84.03l.32-.15c2.56,2.13,5.65,3.2,9.7,2.73,2.8-.33,5.65-.39,8.47-.64.46-.04.91-.4,1.28-.67.31-.22-.94-1.06-1.74-1.17-.28-.04-.55-.17-.82-.16-5.66.12-11.34-.91-16.99.1l-.21-.03ZM463.28,43c-.05-1.25.35-2.37,1.31-3.47.65-.74-.47-1.71-1.73-1.59-2.26.22-4.51.5-6.8.75-.26.3-.75.62-.79.97-.1.92-.57,1.55-1.83,1.82-1.69.36-3.36.3-5.11.16-3.43-.26-6.89-.32-10.08.93l.13-.48-.28.36c3.66.18,7.3.18,11.01.76,4.68.73,9.66,1.23,14.35-.42l-.19.19ZM363.89,41.14c.97,1.18,1.79,2.42,2.67,3.65-1.43-.07-2.97-.44-4.27-.18-4.8.93-9.7.97-14.56.91-7.8-.09-15.5.8-23.27.96-1.15.02-2.29.26-3.43.25-9.53-.06-18.94,1.11-28.43,1.46-2.58.09-5.13.49-7.68.81-.4.05-.71.44-1.09.68,1.34.76,2.8.36,4.18.27,4.03-.25,8.06-.34,12.08.03,1.12.1,2.5.05,3.29.49,2.86,1.6,6.09.8,9.16,1.02,5.02-1.07,10.32-.28,15.35-1.21,2.12.39,3.86-.11,5.65-.97.82-.39,2.21-.33,3.28-.22,1.11.12,2.14.61,3.24.83,1.36.27,2.76.54,4.16.63,1.4.1,3.01.17,2.48-1.53-.04-.14.84-.65,1.21-.61,2.72.27,4.51-2.02,7.36-1.34.54.13,1.13.15,1.7.21,1.23.14,2.04.62,2.56,1.44.34.54.91,1.02,1.32,1.46,3.57.21,6.17-.88,8.36-2.65.19-.15.46-.26.65-.41.92-.72.52-1.53.26-2.33,2.09,1.9,4.84,2.61,8.16,2.88,4.03.33,7.83-.74,11.81-.59,1.79.07,3-1.07,3.96-2.11.23-.25.16-.9-.13-1.11-2.64-1.95-5.82-3.18-9.63-3.45-.9-.07-2.36.6-2.38,1.39-.02.97-.41,1.63-1.69,1.77-1.68.19-3.43.11-5.09.35-1.65.24-3.24.72-4.86,1.09-1.27-.12-2.49-.17-3.7-.23.06-1.44.11-2.87.17-4.23.61-.29,1.06-.57,1.57-.74,5.39-1.76,10.86-2.72,16.68-.98.63.19,1.66-.15,2.4-.41.4-.14.8-.64.76-.95-.04-.31-.59-.81-.97-.84-4.01-.27-7.99-.6-12.05-.22-4,.37-8.05.42-12.09.53-3.75.1-7.31,1.07-11.11,1.02-2.29-.03-4.53.11-6.85-.22-2.5-.36-5.15-.24-7.73-.24-.27,0-.59.51-.78.81-.05.09.28.43.47.44,3.15.22,6.32.66,9.45.55,4.66-.17,9.15.63,13.74.81.79.03,1.55.52,2.32.8-1.11.05-2.23.09-3.34.17-.24.02-.61.17-.66.31-.19.52.19.7.91.4.95-.39,1.75-1.04,3.01-.84.52.06,1.28,0,1.45.21ZM70.33,50.36c-.49.54-1.04.87-1.04,1.19,0,1.76-1.34,2.63-3.5,3.08-.53.11-1.02.35-1.47.6-.15.08-.16.37-.1.54.06.18.23.36.42.49.2.13.51.28.73.25,5.63-.77,10.72,1.08,16.06,1.71,1.83.21,3.1.9,3.62,2.29.32.85,1.42,1.38,2.57,1.48,4.27.4,8.52.87,12.88.74,3.4-.1,6.89-.38,10.16.84.96.36,2.08-.69,1.75-1.55-.39-1.01-.79-2.11-2.6-2.13-6.72-.07-12.93-1.79-19.28-3.04-1.65-.33-3.19-.93-4.8-1.38-3.43-.96-5.49-2.92-7.31-5.66-3.2.22-5.75.39-8.08.55ZM585.67,86.03c3.31-.3,5.25-1.35,5.92-3.8-.67-.26-1.37-.78-2.09-.79-3.99-.08-7.98-.06-11.98-.05-1.44,0-2.87.17-4.01.88-1.75,1.08-3.72,1.83-7.59,2.24,7.61,1.2,13.53,2.09,19.75,1.53ZM265.43,68.62c.47.18,1,.37,1.51.38.85,0,1.71-.26,2.54-.2,3.41.23,6.85.93,10.19.7,3.44-.23,6.82-.34,10.22-.09,2.52.18,4.32-.75,5.98-1.88.25-.17.13-.76-.05-1.09-.44-.8-1.29-1.46-2.51-1.44-2.85.06-5.71.18-8.54.43-5.95.52-11.88,1.11-17.81,1.74-.73.08-1.37.56-2.06.85.23.28.31.54.53.62ZM644.29,86.59c1.95-.03,3.27-2.03,2.09-3.26-.44-.45-1.3-.89-2.03-.95-1.39-.12-2.82,0-4.23.09-1.47.08-2.78-.03-3.9-.84-.25-.18-1.31-.15-1.51.05-1.86,1.76-4.78.67-6.98,1.44-.26.09-.5.2-.75.3.26.34.53.68.52.67,5.41,2.5,11.09,2.59,16.8,2.5ZM744.46,49.04c1.91.13,3.75,1.18,5.79.27.34-.15,1.25-.02,1.53.22,1.53,1.28,2.99.81,4.48.02.9-.48,1.87-.93,2.63-1.5.28-.21.24-.81.06-1.15-.18-.33-.83-.85-1.1-.8-3.71.68-7.39.24-11.04-.19-2.64-.32-5.1-.07-7.56.61,2.87,2.24,2.85,2.36,5.21,2.52ZM556.14,84.67c.69-.07.92-.5.66-.98-.09-.16-.31-.3-.52-.4-.23-.12-.49-.22-.76-.27-4.12-.69-13.13-1.29-16.92-1.09-.53.03-1.09.27-1.52.52-.42.24-.9.6-.95.94-.04.28.41.76.8.88,4.59,1.35,9.3,1.88,14.92.71.92-.06,2.61-.14,4.28-.3ZM656.89,82.5c2.05.88,3.48,1.83,4.51,3.12.12.15.41.24.8.46,2.03-.29,4.24-.5,6.35-.96.95-.21,1.68-.93,2.61-1.47-.54-.21-.82-.27-1.03-.4-2.19-1.3-4.85.44-7.3-.73-1.72-.83-4.22-.82-6.53-1.22.26.57.27,1.08.59,1.21ZM249.65,31.13c-.36.21-.63.7-.57,1.02.06.34.48.76.91.92,2.35.91,4.93.56,7.39.43,1.1-.06,1.52-1.1,1.76-1.89.1-.35-.07-.76-.22-1.12-.07-.16-.37-.36-.59-.38-1.93-.14-3.87-.25-5.81-.37-1.05.49-2.03.88-2.88,1.39ZM273.73,50.31c.24-.03.65-.32.62-.38-.19-.33-.41-.72-.79-.92-.44-.23-1.05-.4-1.59-.41-4.01-.08-7.96.22-11.82,1.03-.25.05-.64.31-.61.38.2.36.4.78.79,1.02.41.24,1.05.45,1.55.41,2.26-.19,4.5-.48,6.74-.73.01.06.03.13.04.19,1.69-.19,3.38-.37,5.06-.58ZM372.31,63.25c.7-.16.92-.49.66-.86-.12-.17-.26-.37-.47-.47-.47-.22-.98-.54-1.49-.56-2.52-.1-5.04-.15-7.56-.13-.36,0-.83.48-1.02.81-.27.45.09.79.77.93,1.07.23,2.13.61,3.21.66,1.4.07,2.82-.11,4.11-.17.68-.08,1.25-.09,1.79-.21ZM334.52,70.83c-.2.01-.52.28-.52.42.02.35.09.93.34,1,3.13.79,3.14.77,9.17.01-3.02-1.1-5.88-1.66-8.99-1.43ZM471.63,39.44c-.59.24-.55.72-.1.97,1.86,1.05,3.8,1.75,6.24.92,1.11-.38,1.61-1.11,1.12-1.99-.55-.97-1.42-1.39-2.55-1.22-.28.04-.55.09-1.37.22-.79.25-2.12.6-3.34,1.09ZM640.04,69.01c.1.02.45-.28.48-.45.03-.17-.16-.51-.31-.53-2.74-.33-5.44-1.33-8.28-.34,2.39,1.43,5.45.74,8.11,1.32ZM706.04,92.4c1.2,0,2.69-.8,2.28-1.28-.37-.44-1.04-.91-1.7-1.02-1.03-.18-2.16-.14-3.23-.06-.24.02-.41.57-.61.89.72.92,1.74,1.47,3.26,1.48ZM137.15,53.49c.21-.05.42-.31.45-.48.03-.17-.13-.51-.28-.53-2.8-.4-5.53-.27-8.14.62-.12.04-.17.37-.09.51.1.17.38.38.6.39,1.39.07,2.78.08,4.45.12.86-.18,1.95-.38,3.01-.64ZM716.21,43.44c.1-.1-.09-.51-.19-.52-2.16-.22-4.15-1.26-6.46-.73-.22.05-.45.28-.51.46-.05.16.06.41.23.52.39.26.84.63,1.3.66,1.1.08,2.22-.02,3.82-.05.31.02,1.19.27,1.8-.34ZM99.69,67.56c-.07.18-.02.38-.03.56.51,0,1.09.12,1.53-.01,1.46-.44,1.65-.89.8-1.87-.28-.33-.8-.54-1.35-.91-.33.78-.66,1.5-.95,2.23ZM596.34,89.33c.04-.07-.18-.3-.35-.36-.72-.24-1.45-.51-2.22-.62-.39-.05-.86.22-1.3.35.34.26.62.63,1.03.75.71.2,1.51.23,2.17.32.31-.2.57-.3.66-.45ZM254.41,50.42c-.83-.31-1.99.07-1.97.62.01.33.39.78.79.95.78.33,1.8-.06,1.98-.65-.26-.32-.42-.78-.81-.93ZM78.08,67.41c-.19.06-.37.35-.33.5.04.15.35.33.59.37,1.4.21,2.69.14,3.59-.85-1.29-.59-2.58-.44-3.85-.02ZM443.34,77.25c-.12-.14-.47-.2-.74-.24-.81-.11-1.66-.26-2.22.37-.05.06.25.41.41.42.55.05,1.11,0,1.67-.01.77-.05,1.12-.26.87-.55ZM373.89,42.38c-.35-.26-.65-.62-1.08-.75-.46-.14-1.1-.17-1.57-.06-.45.11-.99.41-1.14.72-.21.43.25.75.92.77.53.02,1.07,0,1.6-.02.42-.22.85-.44,1.27-.66ZM146.77,52.48c-.23-.05-.45-.13-.68-.14-.25-.01-.51.01-.74.07-.05.01,0,.23,0,.36.47-.09.95-.19,1.42-.29ZM655.08,38.66c.13-.27-.02-.77-.3-.94-.31-.19-1.09-.26-1.36-.11-.29.17-.24.66-.33,1.01.56.47,1.77.52,2,.04ZM328.3,71.81c.12.47.59.66,1.22.47.18-.05.35-.35.31-.51-.11-.47-.57-.63-1.23-.47-.11.17-.34.36-.31.51ZM669.04,28.38c.38-.52-.53-1.07-1.66-.94-.48.06-.89.41-1.33.63.3.31.56.65.93.92.16.12.54.07.82.1.43-.23,1.02-.4,1.24-.71ZM425.2,43.29c.73-.06,1.47-.17,2.18-.32.17-.04.38-.35.33-.48-.19-.46-1.9-.51-2.82-.06-.17.08-.19.34-.28.52.2.12.41.36.59.35ZM721.3,35.67c.61.24,1.16,0,1.3-.49.14-.49-.25-.87-.93-.84-.48.02-.94.31-1.41.48.34.29.61.68,1.04.85ZM634.99,89.95c-.48.02-.96.07-1.43.11.04.15.08.42.11.42.48-.02.96-.07,1.42-.11-.03-.15-.08-.43-.1-.43ZM482.44,53.03c.22-.03.4-.19.6-.29-.42-.08-.83-.15-1.25-.23-.02.14-.04.29-.05.43.23.03.49.12.7.09ZM627.59,31.36c-.45-.11-.94-.35-1.35-.3-.4.05-.73.4-1.1.63.46.11.92.22,1.38.34.36-.22.71-.44,1.06-.67ZM307.69,67.25c.63-.05.86-.38.59-.86-.08-.14-.45-.29-.66-.27-.67.07-.87.39-.63.86.23.09.48.28.7.26ZM469.26,43.81c-.15.08-.15.31-.22.47.52.04,1.04.09,1.57.09.07,0,.26-.38.17-.45-.15-.14-.47-.18-.72-.26-.27.05-.59.05-.8.16ZM677.29,83.89l.19.33.47-.3-.66-.03ZM727.26,87.16l-.66.26.72.16-.06-.42ZM746.07,91.77l-.15-.34-.53.29.68.05ZM699.99,113.05c-.19.02-.53.13-.53.19.04.38.33.41.8.09-.09-.1-.2-.29-.27-.28ZM66.01,66.58l.2.27.36-.27h-.56ZM433.62,41.61c-.19.02-.37.12-.56.19.09.09.2.26.28.26.19-.02.37-.12.55-.18-.09-.09-.21-.28-.28-.27ZM308.38,71.09l-.56-.04.11.27.45-.23ZM678.08,39.52l.21.43.56-.36-.77-.07ZM785.3,32.7c.19.07.44.06.67.08.02-.14.12-.38.05-.41-.18-.07-.44-.06-.66-.07-.02.14-.12.38-.06.4ZM645.58,69.47l.17-.54-.63.1.47.44ZM528.97,83.25c.03-.15.15-.4.08-.42-.2-.08-.46-.08-.7-.11-.03.15-.06.3-.09.45.24.03.48.06.72.08Z"/>
  <path class="c" d="M947.84,105.12c-1.73.05-3.37.29-4.86,1.03-.33-.79-.82-1.43-2.17-1.56-5-.48-9.99-.97-15.04-1.05-.84-.01-1.68-.06-2.52-.1-1.48.05-2.97.09-5.11.16,2.3.72,3.72.13,5.22-.19.54.44.93,1.12,1.59,1.32,2.3.69,4.68,1.18,7.25,1.17,3.6-.01,7.2.14,10.8.22,1.14,0,2.29.02,3.43.02,2.05.01,3.98-.29,5.66-1.25.31.78.48,1.66,1.87,1.86,2.82.41,5.63.89,8.48,1.14,8.59.75,16.97,2.25,25.4,3.6,1.06.17,2.07.65,2.96,1.12.35.19.52.79.4,1.13-.1.29-.77.71-1.13.68-1.98-.15-3.93-.56-5.9-.61-2.29-.06-4.6.28-6.89.24-9.21-.15-18.41-.44-27.61-.49-1.74,0-3.35-.36-4.91-1.25.58-.43,1.18-.81,1.67-1.25.56-.51.35-1.44-.3-1.6-3.56-.86-7.17-1.48-10.92-1.78-5.43-.43-10.84-.99-16.25-1.55-2.26-.24-4.73-.21-6.63-1.24-1.57-.85-2.83-2.01-4.23-3.03-.2-.15-.43-.28-.64-.42l.2.13c-2.98-.76-5.94-1.56-9.12-1.72-4.38-.22-8.17-1.63-12.02-2.95-.2-.07-.26-.36-.38-.55l-.13.16c2.26-.22,4.5-.5,6.77-.65,1.41-.09,2.87-.15,4.25.03,3.92.52,7.79,1.23,11.71,1.75,8.98,1.2,17.86,2.73,26.91,3.68,5.33.56,10.69,1.29,15.78,2.7.68.19.87.52.64.91-1.41.05-2.82.12-4.23.16ZM951.59,110.26l.75.1-.13-.39-.63.3Z"/>
  <path class="c" d="M150.06,105.66c.84-2.91,5.09-2.2,7.21-3.69-.15-.1-.31-.3-.46-.29-2.86.09-5.73.21-8.59.33-.28.01-.61.07-.8.2-.58.41-1.38.8-1.57,1.31-.3.77-.16,1.63-.22,2.69-1.56.27-3.19.67-4.85.81-4.28.36-8.57.59-12.85.9-.21.02-.57.4-.53.44.29.3.67.77,1.02.78,9.49.12,18.96-.07,28.39-.85,4.27-.35,8.5-1.04,12.74-1.58.85-.11,1.77-.44,2.53-.31,6.71,1.15,13.02-.97,19.55-1.21,1.08-.04,2.15-.4,3.42-.66-.69-.38-1.09-.77-1.55-.81-6.64-.56-13.14.19-19.65,1.04-7.06.92-14.2,1.46-21.39,1.49-.8,0-1.6-.38-2.4-.58Z"/>
  <path class="c" d="M559.45,29.19c.05.71.64,1.1,1.52,1.28,1.08.23,2.05.36,2.48,1.39.65,1.56,1.72,3.03,2.46,4.27,1.7.96,3.13.12,4.48.3,1.4.18,2.71.72,4.11.88,1.67.19,3.39.21,5.09.18,1.59-.02,2.24-1.18,1.29-2.26-.3-.34-.97-.55-1.14-.9-.11-.24.32-.88.57-.9,2.27-.15,4.55-.22,6.83-.26.51,0,1.16.1,1.52.33.7.47.52,1.09.2,1.68-.1.18-.05.41-.08.61,1.1.5,2.2.17,3.28-.02,1.4-.25,2.29-.88,2.32-1.55.06-1.06-1.52-2.71-2.82-2.82-4.53-.38-9.08-1.04-13.61-.98-5.17.06-10.15-.81-15.25-.98-1.14-.04-2.28-.1-3.43-.15,0,0,.17-.11.17-.11Z"/>
  <path class="c" d="M511.57,9.97c-.68-1.21-1.98-1.77-3.72-1.88l.12-.15c-.76.35-1.51.58-2.17-.1-.16-.16-.26-.37-.32-.56-.53-1.93-2.26-2.88-4.88-2.72-1.77.11-3.15.09-4.59-.91-1.73-1.2-4.24-.86-6.46-.95-.43-.02-.9.45-1.36.7-.01,0,.19-.14.19-.14-1.37.39-2.7.58-4.01-.16-.67-.37-1.42-.67-2.17-.95-.55-.21-1.64.37-1.75,1-.1.57.06,1.15.1,1.74,1.8.32,3.46.6,5.1.92,1.7.33,3.11.97,3.99,2.14.42.56,1.1,1.1,1.96.93,3.01-.59,5.34,1.19,8.26,1.08,3.96-.14,7.95.04,11.93.08l-.2-.07Z"/>
  <path class="c" d="M833.81,74.2c-.43-.51-.78-1.4-1.32-1.46-2.06-.24-3.8-.88-5.46-1.71-1.25-.63-2.53-.83-4.03-.49-3.41.76-6.79.08-10.15-.3-.51-.06-.96-.43-1.43-.66,0,0,.28.09.28.09-2.55-.16-5.03.35-7.7-.15-4.76-.9-9.72-.51-14.61-.31l.13.06c.19.15.35.34.58.45.47.22.95.48,1.47.56,3.58.55,7.15,1.26,10.78,1.51,4.21.29,8.52-.09,12.25,1.87.56.29,1.67.22,2.45.1,5.66-.88,11.23-.39,16.78.45h-.04Z"/>
  <path class="c" d="M497.05,25.9c-.34-.33-.59-.79-1.05-.98-3.8-1.57-7.74-2.59-12.28-1.97-1.94.26-4,.23-5.99.15-8.59-.37-17.18-.85-25.77-1.2-1.69-.07-3.41.27-5.12.42-1.45.13-2.86.09-4.15-.49h.02c1.04.32,2.08.9,3.13.91,8.92.12,17.71,1.11,26.55,1.82,6.85.55,13.73.77,20.62.67,1.46-.02,2.87-.02,4.09.66h-.06Z"/>
  <path class="c" d="M833.84,74.2c1.85-.69,3.14.78,4.86.66,1.43-.1,2.87-.23,4.3-.21.83,0,1.81.12,2.47.46,2.28,1.17,4.78,1.32,7.43,1.11,2.61-.2,5.2-.3,7.47.92,3.41.25,6.82.52,10.24.71.44.02,1.15-.34,1.33-.64.15-.28-.13-.81-.46-1.06-.36-.28-.98-.47-1.52-.54-3.68-.45-7.37-.87-11.06-1.26-2.27-.24-4.66-.18-6.8-.69-2.29-.55-4.33-.9-6.63-.15-.7.23-1.79.16-2.53-.07-3.27-1.01-6.2-.26-9.13.75-.02,0,.02,0,.02,0Z"/>
  <path class="c" d="M970.68,124.49c-.1-.19-.12-.5-.31-.56-.76-.26-1.54-.58-2.35-.63-6.25-.39-12.51-.76-18.78-1.06-2.23-.11-4.52-.17-6.72.06-2.32.24-4.49.11-6.7-.36-.31-.07-1.19.4-1.19.62,0,.32.46.75.89.95,1.75.85,3.83.77,5.8.88,3.42.2,6.85.23,10.28.38,5.14.22,10.28.53,15.43.71,1.07.04,2.17-.31,3.25-.53.18-.04.27-.3.4-.45Z"/>
  <path class="c" d="M602.75,25.13c6.1.32,12.06.92,18.05.69,2.87-.11,5.83.08,8.6-.36,3.46-.56,6.76-.74,10.18,0,1.43.31,2.84-.1,4.13-.59.24-.09.62-.37.58-.42-.24-.33-.51-.8-.91-.89-1.07-.25-2.23-.49-3.34-.46-1.71.06-3.4.36-5.11.54-1.41.14-2.91.51-4.23.31-2.86-.43-5.67-.42-8.56-.25-2.83.17-5.69-.2-8.5.52-1,.25-2.27-.11-3.41-.09-2.55.06-5.13.07-7.48,1.01Z"/>
  <path class="c" d="M517.74,8.67c.88-.9,2.15-1.42,3.58-1.6.78-.1,2.01-.11,2.4.23,3.15,2.73,7.39,2.97,11.8,2.83.31-.01.81-.61.82-.95.04-1.37-.95-2.47-2.56-3.02-1.8-.62-3.81-.92-5.72-1.38-1.52-.37-2.67.03-3.97.64-2.53,1.19-2.72,1.18-5.08-.47-1.52-1.06-2.93-1.12-4.59-.39-.21.09-.34.29-.51.44.52,1.42,1.53,2.61,3.16,3.5.18.1.56,0,.85,0l-.17.16Z"/>
  <path class="c" d="M459.15,9.51c3.65.27,7.27.88,10.97.1,1.03-.22,2.26.13,3.39.09,2.55-.09,5.11-.23,7.65-.43.35-.03.67-.5.9-.8.08-.11-.12-.46-.3-.5-4.28-1.12-8.57-2.2-12.85-3.31-1.69-.44-3.34-.37-5.03-.03-1.46.29-1.99.96-1.72,2.31q.32,1.61-1.55,2.2c-.52.16-1.05.32-1.6.49-.02.01.14-.11.14-.11Z"/>
  <path class="c" d="M791.04,74.29c-1.61-.42-3.39-.67-4.8-1.32-1.78-.82-3.66-1.09-5.64-1.34-4.82-.62-9.67-.67-14.54-.51-.37.01-.75.4-1.03.67-.07.06.18.38.38.5,2.7,1.7,5.97,2.52,9.41,2.69,4.55.22,9.14.14,13.71.09.76,0,1.51-.49,2.26-.76l.24-.02Z"/>
  <path class="c" d="M857.76,54.24c.07-.6.32-1.23.15-1.79-.16-.53-.64-1.33-1.19-1.43-3.14-.57-5.92-2.17-9.49-1.63-1.34.2-2.7-.32-4-.78-2.04-.72-4.25-1.04-6.55-.79l.15-.19c-1.07.61-2.12,1.24-3.21,1.84-.8.44-.85,1.03-.05,1.3,1.72.59,3.47,1.13,5.21,1.69l-.29-.08c5.59-.22,11.13.44,16.7.59,1.16.03,2.13.39,2.57,1.25v.02Z"/>
  <path class="c" d="M830.3,117.46c.17.34.23.55.38.73.78.94,1.94,1.75,3.43,1.62,4.76-.41,9.07.58,13.4,1.79,3.24.9,6.7,1.03,10.16.95.21,0,.49-.25.6-.42.07-.12-.05-.4-.2-.46-.72-.31-1.45-.73-2.23-.81-2.57-.26-5.09-.5-7.46-1.4-2.03-.77-4.31-1.09-6.63-1.33-3.12-.32-6.17-.98-9.29-1.35-.65-.08-1.44.44-2.16.68Z"/>
  <path class="c" d="M793.65,117.13c.2.36.27.94.63,1.06,3.62,1.2,7.28,2.35,10.97,3.44.73.21,1.66.09,2.5.06.24,0,.62-.17.67-.31.12-.35.33-.9.09-1.06-1.47-.99-2.9-1.97-3.94-3.23-.92-1.1-2.37-1.8-3.95-2.3-.73-.23-1.79-.37-2.44-.15-1.52.51-2.9,1.24-4.3,1.92-.17.08-.15.37-.22.57Z"/>
  <path class="c" d="M825.43,58.79c.49.46.89,1.25,1.49,1.34,3.67.52,7.38.89,11.08,1.28,1.13.12,2.52-.08,3.38.32,3.93,1.81,8.43,1.01,12.61,1.58.29.04.76-.44,1.05-.73.07-.08-.18-.42-.39-.52-2.2-1.03-4.38-1.86-7.26-1.37-1.6.27-3.42-.03-5.11-.23-3.4-.4-6.85-.73-10.14-1.43-2.37-.51-4.55-.26-6.82-.06,0,0,.12-.17.12-.17Z"/>
  <path class="c" d="M539.45,8.12c1.58.47,3.19,1.39,4.74,1.34,4.96-.13,9.78.35,14.63.91,1.46.17,2.87-.05,3.99-.85.19-.13.47-.38.41-.48-.2-.33-.46-.73-.86-.9-.47-.19-1.11-.21-1.68-.21-1.15,0-2.31.05-3.46.14-4.66.37-9.16.29-13.18-1.85-.88-.47-2.15-.59-3.26-.8-.85-.16-1.91-.19-2.21.48-.23.49.16,1.14.32,1.71.06.19.28.36.43.54,0,0,.13-.04.13-.04Z"/>
  <path class="c" d="M780.49,113.7c-1.57-1.96-4.24-2.58-7.07-3.01-1.23-.19-2.87.71-3.02,1.75-.12.8-.03,1.61-.09,2.42-.05.71.44,1.21,1.25,1.43,2.41.64,4.86,1.19,7.32,1.78,1.82-.69,1.7-2,1.87-3.22l.3.12c-.56-.03-1.13-.04-1.69-.08-.27-.02-.61-.03-.79-.15-.37-.25-.1-.46.63-.65.52-.13,1-.36,1.49-.55l-.19.17Z"/>
  <path class="c" d="M872.55,53.04c.35.79.65,1.61,2.08,1.73.57.05,1.14.16,1.71.2,4.88.33,9.67.88,14.36,2.02,2.14.53,4.54.73,6.83.21.34-.08.55-.58.68-.91.05-.13-.22-.36-.4-.51-.19-.15-.42-.33-.67-.39-2.47-.5-5.07-.01-7.61-.84-1.98-.64-4.46-.51-6.73-.65-2.58-.16-5.17-.19-7.75-.35-.84-.05-1.65-.33-2.51-.49-.03.02.02-.02.02-.02Z"/>
  <path class="c" d="M405.19,23.57c-.6-.43-1.21-1.23-1.81-1.23-9.17,0-18.35.09-27.52.19-.51,0-1.02.3-1.6.48.4.17.81.5,1.1.45,4.59-.8,9.14.44,13.71.1,3.73.76,7.4.31,11.07-.27,1.71-.27,3.42-.28,5.09.27.04-.01-.04,0-.04,0Z"/>
  <path class="c" d="M532.15,28.54c.74-.18,1.3-.26,1.79-.45.16-.06.2-.39.18-.58-.03-.18-.16-.42-.35-.5-1.61-.69-3.28.26-4.92-.08-1.62-.34-3.24-.77-4.89-.92-3.66-.32-7.35-.49-11.04-.71-.69-.04-1.12.18-1.07.6.02.16.34.33.57.44.47.22.98.57,1.47.57,3.44.03,6.77.44,10.02,1.26,2.76.7,5.62.44,8.24.38Z"/>
  <path class="c" d="M816.15,48.36c.39.26.74.58,1.19.77,1,.44,1.85.87,1.89,1.86.04,1.01,1.27,1.22,2.32,1.49,1.37.34,2.78.57,4.1-.03.37-.17.67-.69.62-1.03-.29-2.02-2-3.39-4.34-4.28-1.97-.75-3.85.07-5.64.66-.13.04-.1.36-.14.55Z"/>
  <path class="c" d="M819.28,84.58c-.17-.38-.2-.85-.54-1.13-1.56-1.28-3.7-2.24-5.92-1.99-2.89.32-5.54-.12-8.28-.39-.25-.03-.67.5-.89.82-.08.12.12.49.3.54,2.61.74,5.19,1.56,7.87,2.12,1.3.27,2.79.05,4.2.02,1.13-.02,2.26-.09,3.39-.14l-.12.16Z"/>
  <path class="c" d="M819.4,84.42c3.43,1.29,6.92,1.94,10.75.83,1.03-.3,2.27-.19,3.36-.39.36-.07.62-.52.82-.84.04-.06-.35-.38-.58-.41-3.09-.38-6.19-.73-9.45-1.1-1.94.16-3.49,1.06-5.01,2.05-.02.02.11-.14.11-.14Z"/>
  <path class="c" d="M747.69,19.93c.66-.2,1.44-.42,2.2-.68.23-.08.55-.33.51-.44-.13-.38-.3-.81-.66-1.08-.37-.27-.99-.53-1.49-.52-3.13.06-6.25.16-9.37.34-.44.02-.88.47-1.22.78-.47.42.23,1.04,1.35,1.21,1.12.17,2.24.43,3.37.47,1.72.06,3.44-.05,5.32-.08Z"/>
  <path class="c" d="M771.18,89.71c-3.64-.66-6.07-1.11-8.5-1.53-.54-.09-1.12-.07-1.68-.11-.72-.05-1.87.64-1.66,1.06.18.35.49.8.91.94,3.22,1.1,6.48,1.34,10.93-.37Z"/>
  <path class="c" d="M906.01,123.1c.47.23.93.49,1.42.68,2.62,1.03,5.48,1.13,8.37,1.05.51-.01,1.09-.3,1.48-.57.38-.26.82-.69.78-1.01-.04-.31-.63-.61-1.04-.86-.2-.13-.55-.23-.79-.2-3.09.38-6.21-.21-9.3.13-.25.03-.51.16-.68.3-.14.12-.16.32-.23.48Z"/>
  <path class="c" d="M879.72,96.69c-.02-1.19-1.04-1.82-2.42-2.24-.26-.08-.57-.18-.82-.14-4.23.63-7.75-.53-11.06-2.24-.1-.05-.49.09-.61.21-.12.13-.19.39-.09.52,1.27,1.67,2.78,3.03,5.79,3.14,3.11.11,6.21.44,9.34.65.02-.02-.13.11-.13.11Z"/>
  <path class="c" d="M816.18,115.87c.29,2.25,2.39,3.32,5.11,2.58.77-.21,1.52-.51,2.17-.87.34-.19.67-.67.56-.91-.15-.34-.66-.76-1.12-.83-1.87-.3-3.77-.51-5.68-.66-.31-.02-.7.45-1.05.7Z"/>
  <path class="c" d="M857.77,54.23c.79-.18,1.59-.53,2.37-.52,1.7.04,3.44.12,5.07.44,2.74.54,5.04-.06,7.3-1.09.03-.02-.03.02,0,0-1.39.39-2.9.39-4.04-.28-1.34-.78-2.4-1.67-4.43-1.47-2.14.2-3.74.92-5.08,2.07-.37.31-.8.59-1.21.88,0,0,0-.01,0-.01Z"/>
  <path class="c" d="M789.88,46.71c0-.19.09-.47-.04-.55-1.88-1.18-3.77-2.37-5.74-3.48-.29-.16-1.15-.06-1.48.14-.34.21-.63.79-.46,1.03,1.49,2.08,3.44,3.72,7.16,3.3.21-.02.37-.29.56-.44Z"/>
  <path class="c" d="M921.29,120.4c.52-.29.79-.39.93-.54.1-.12.14-.37.03-.46-1.51-1.31-3.44-2.05-5.81-2.15-.61-.03-1.86.66-1.73,1.11.15.53.56,1.36,1.06,1.45,1.88.34,3.85.43,5.52.59Z"/>
  <path class="c" d="M717.21,20.86c.99-.39,2.04-.72,2.94-1.2.24-.13.25-.89,0-1.03-1.62-.95-3.55-1.23-5.61-1.18-.91.02-1.79.53-1.64,1.11.1.36.34.84.73,1.01,1.22.52,2.54.92,3.85,1.37.02,0-.27-.08-.27-.08Z"/>
  <path class="c" d="M851.25,115.12c.83,2.16,2.47,2.94,4.08,3.64.52.23,1.54-.11,2.32-.26.22-.04.54-.31.51-.45-.07-.38-.15-.87-.5-1.1-1.74-1.12-4.09-.68-6.41-1.83Z"/>
  <path class="c" d="M780.74,114.85c1.4-.37,3.06-.65,4.09.11,1.66,1.22,3.05.69,4.55.07.42-.17.7-.51,1.04-.77-3.21-1.15-6.56-.94-9.94-.55,0,0,.19-.17.19-.17.12.48.24.95.36,1.43l-.3-.12Z"/>
  <path class="c" d="M813.57,77.13c.26.34.41.79.81.99,1.51.76,3.21.78,4.92.39.25-.06.65-.27.63-.37-.09-.36-.18-.85-.52-1.04-1.43-.76-3.14-.97-4.87-.79-.37.04-.65.54-.97.83Z"/>
  <path class="c" d="M867.68,123.8c.38-.24.88-.41,1.04-.68.21-.37-.95-1.15-1.57-1.08-.8.1-1.58.27-2.37.39-.67.11-1.06.42-.76.76.25.28.8.53,1.26.58.79.09,1.62.02,2.4.02Z"/>
  <path class="c" d="M559.29,29.3c-3.38-.46-6.76-.92-10.14-1.36-.63-.08-1.06.2-1.09.68-.01.18.2.49.4.53,3.64.73,7.3,1.24,10.98.05.02-.01-.15.1-.15.1Z"/>
  <path class="c" d="M840.66,84.68c2.18.57,3.66,1.01,5.19,1.32.25.05.97-.44,1.03-.73.07-.31-.27-.78-.65-.99-.38-.21-1.02-.3-1.52-.25-1.08.1-2.14.33-4.06.64Z"/>
  <path class="c" d="M658.65,9c-1.82-.79-3.67-1.22-5.72-.69-.19.05-.47.31-.42.4.09.17.34.33.59.43,1.88.76,3.72.7,5.56-.15Z"/>
  <path class="c" d="M617.8,8.5c2.22,1.34,4.49,1.32,6.87.69.15-.04.34-.3.29-.39-.1-.17-.33-.35-.57-.42-2.11-.67-4.22-.91-6.59.12Z"/>
  <path class="c" d="M771.35,26.27c-1.96-1.53-4.65-1.32-7.15-1.51-.13-.01-.42.28-.45.45-.03.15.13.41.31.49,2.38,1.03,4.97.67,7.52.56h-.23Z"/>
  <path class="c" d="M906.08,115.38c2.93.27,4.82.46,6.72.61.17.01.38-.23.58-.36-1.91-1.54-4.01-1.43-7.29-.25Z"/>
  <path class="c" d="M402.65,6.48c.17,0-.42-.1-.91.02-.35.09-.61.45-.8.74-.05.08.25.41.42.42,1.61.09,3.22.16,4.83.18.16,0,.52-.35.46-.44-.21-.33-.49-.8-.86-.87-.77-.14-1.61-.04-3.14-.05Z"/>
  <path class="c" d="M838.8,52.47c-.36.29-.97.56-.99.87-.03.3.44.8.85.91,1.02.28,2.12.45,3.21.56.77.08,1.63.26,2.29-.28.37-.3-.39-.76-1.71-1.09-1.31-.33-2.6-.7-3.93-1.05-.02,0,.27.08.27.08Z"/>
  <path class="c" d="M419.71,21.88c2.47,1.28,5.12,1.31,7.97.62-.97-1.02-2.21-.37-3.24-.29-1.67.13-3.3.43-4.85-.28l.12-.04Z"/>
  <path class="c" d="M419.59,21.93c-3.15.18-6.31.28-9.43.58-1.67.16-3.28.68-4.94,1.05-.03.01.05,0,.01,0,4.79-.48,9.75-.4,14.45-1.66.03-.02-.09.03-.09.03Z"/>
  <path class="c" d="M365.93,22.5c-1.65.19-3.3.36-4.94.57-.16.02-.26.28-.39.42.24.1.5.3.72.28,1.65-.15,3.29-.35,4.93-.54-.11-.24-.22-.49-.34-.73Z"/>
  <path class="c" d="M997.58,117.34c.07.15.08.37.22.45,1,.57,2.97.26,3.63-.55.43-.52,0-1.28-.79-1.4-1.41-.21-2.79.47-3.07,1.5Z"/>
  <path class="c" d="M912.42,57.71c.23-.07.54-.11.67-.23.09-.09,0-.39-.15-.45-.93-.43-1.88-.83-2.84-1.23-.72-.3-1.12-.16-1.06.39.02.18.21.4.42.5.69.33,1.42.63,2.16.91.23.09.54.09.81.13Z"/>
  <path class="c" d="M923.47,110.9c-1.79-.62-3.54-1.09-5.5-.74-.1.02-.22.39-.16.43,1.75.98,3.62,1.08,5.66.31Z"/>
  <path class="c" d="M31.28,68.64c-.03-.19.04-.45-.1-.54-1.25-.84-2.75-1.17-4.43-.93-.19.03-.39.29-.45.46-.06.17-.03.41.1.54,1.12,1.12,2.74,1.07,4.38.91.19-.02.34-.29.5-.45Z"/>
  <path class="c" d="M875.04,78.6c.37.45.95.61,1.44.25.59-.43,1.03-.97,1.48-1.49.14-.16.09-.4.12-.6-.55-.04-1.18-.23-1.62-.1-1.47.44-1.83,1.03-1.42,1.94Z"/>
  <path class="c" d="M416.92,5.76c.07,1.07.91,1.58,2.79,1.54.45,0,.92-.32,1.32-.55.08-.05-.04-.41-.2-.52-.78-.51-1.57-1.03-2.43-1.46-.59-.3-1.52.35-1.48.99Z"/>
  <path class="c" d="M879.75,124.05c-.33-.26-.61-.66-1.01-.75-.86-.19-1.76.51-1.3.98.26.26.88.51,1.29.48.38-.03.69-.46,1.03-.71Z"/>
  <path class="c" d="M952.38,118.3c-1.34.06-2.24.65-1.94,1.03.64.81,2.63,1.28,3.55.73.28-.17.36-.9.12-1.07-.54-.37-1.33-.55-1.73-.69Z"/>
  <path class="c" d="M681.34,10.17c-.83-1.47-2.77-1.23-4.38-1.48-.69-.11-1.07.17-.96.63.03.14.37.33.56.33,1.14-.02,2.28-.17,3.41-.12.48.02.93.42,1.4.64h-.04Z"/>
  <path class="c" d="M572.72,8.15c.14.34.15.59.29.64.72.25,1.46.54,2.22.62.28.03.82-.47.95-.79.18-.43-.3-.76-1-.73-.82.03-1.62.17-2.47.26Z"/>
  <path class="c" d="M442.7,21.84c-2.35.56-4.92-.39-7.14.42-.38.62-.1.85.72.71,2.15-.36,4.29-.75,6.43-1.13,0,0-.02,0-.02,0Z"/>
  <path class="c" d="M146.11,115.26c.52-.1,1.1-.13,1.54-.32.3-.13.41-.49.61-.74-.24-.08-.49-.24-.72-.23-1.05.02-2.12.04-3.14.18-.25.03-.41.53-.52.83-.02.06.4.27.63.29.53.04,1.07,0,1.61,0Z"/>
  <path class="c" d="M415.29,9.65c-.05-1.05-.4-2.02-1.54-2.72-.3-.18-.92-.08-1.39-.11.03.18-.04.46.1.54,1.09.62,2.39,1.08,2.92,2.12-.02.02-.09.18-.09.18Z"/>
  <path class="c" d="M322.41,12.91c1.23-.02,1.97-.62,1.7-1.13-.33-.6-1.01-.93-1.86-.77-.4.08-1.03.61-.95.76.26.47.81.85,1.11,1.14Z"/>
  <path class="c" d="M731.5,19.08c.25-.42.63-.9.54-.96-.57-.34-1.24-.61-1.91-.84-.15-.05-.62.09-.65.19-.09.34-.26.9-.04,1.02.59.3,1.36.41,2.06.59Z"/>
  <path class="c" d="M942.79,119.77c-1.2-1.11-2.86-1.14-4.55-.95-.69.08-1.31.43-3.2,1.08,3.56-.13,5.74-.21,7.93-.29l-.18.15Z"/>
  <path class="c" d="M692.38,19.65c.45-.21.9-.42,1.36-.63-.4-.25-.75-.58-1.21-.73-.48-.16-1.13-.27-1.6-.16-.45.1-.95.45-1.11.78-.23.46.22.78.92.8.55.01,1.1-.03,1.65-.05Z"/>
  <path class="c" d="M804.02,95.26c1.01.7,2.1,1.16,3.6.92,1.57-.25,3.18-.41,4.77-.61v.15c-1.14,0-2.3-.08-3.43,0-1.75.13-3.44.04-5.09-.39l.15-.06Z"/>
  <path class="c" d="M681.38,10.17c2.16-.24,4.31-.49,6.47-.73-.02-.09-.05-.18-.07-.27-2.14.33-4.27.66-6.42.99-.01,0,.02,0,.02,0Z"/>
  <path class="c" d="M456.77,32.47c.66-.01,1.14-.27.97-.68-.13-.3-.64-.59-1.08-.72-.46-.13-1.08-.16-1.53-.04-.43.11-.73.47-1.09.72.38.23.72.56,1.16.67.47.12,1.05.05,1.58.06Z"/>
  <path class="c" d="M497.11,25.9c1.61-.12,3.23-.22,4.83-.37.11,0,.27-.3.24-.44-.03-.12-.31-.26-.5-.28-1.74-.12-3.16.5-4.61,1.08-.02,0,.04,0,.04,0Z"/>
  <path class="c" d="M830.8,97.8c.29-.27.87-.57.81-.79-.08-.29-.59-.64-1.02-.74-.65-.14-1.57.77-1.16,1.13.27.24.9.27,1.36.39Z"/>
  <path class="c" d="M632.09,8.76c-.24.03-.57,0-.75.11-.11.06-.1.44.02.49.57.26,1.08.17,1.38-.23.02-.03-.4-.23-.65-.37Z"/>
  <path class="c" d="M887.67,66.16c-.69-1.03-2.02-1.23-3.4-1.36-.65-.06-1,.2-.9.71.03.17.26.4.48.47,1.32.4,2.67.28,4,0l-.18.18Z"/>
  <path class="c" d="M165.1,100.91c-.23.09-.45.17-.68.26.24.06.47.15.71.16.25,0,.64,0,.74-.11.31-.33,0-.45-.77-.31Z"/>
  <path class="c" d="M633.29,116.29c-.14-.17-.22-.43-.43-.5-.78-.27-1.1-.07-.77.47.1.16.42.31.68.34.14.02.35-.2.52-.31Z"/>
  <path class="c" d="M362.88,8.3c.88.47,1.39.88,2.01,1.03.29.07,1-.29,1.17-.57.31-.5-.37-1.44-.93-1.37-.67.09-1.25.48-2.25.9Z"/>
  <path class="c" d="M853.3,85.87c.47.05.95.1,1.42.12.03,0,.08-.28.12-.43-.48-.06-.96-.11-1.43-.17-.03.16-.07.32-.1.48Z"/>
  <path class="c" d="M721.16,117.03c.66.28,1.11.62,1.58.64.8.03,1.33-.83.8-1.38-.29-.3-.82-.48-1.25-.72-.38.49-.76.98-1.14,1.46Z"/>
  <path class="c" d="M889.78,59.74c-1.05-.64-2.19-1.18-3.63-.83-.37.09-.59.52-.88.79.24.09.49.27.71.26,1.33-.11,2.65-.27,3.97-.41l-.17.19Z"/>
  <path class="c" d="M655.86,19.83c.4.18.83.53,1.21.5.61-.04.79-.47.45-.89-.11-.14-.44-.25-.68-.27-.65-.04-.98.2-.97.65Z"/>
  <path class="c" d="M555.47,33.58c.19-.12.39-.24.58-.36-.14-.11-.32-.34-.41-.33-.47.09-.92.25-1.38.38.14.12.25.3.42.33.24.05.52-.01.78-.03Z"/>
  <path class="c" d="M671.17,19.2c-.82-.13-1.64-.33-2.47-.35-.38,0-.79.32-1.16.53-.02,0,.19.32.36.39.22.08.56.14.78.07.77-.23,1.52-.51,2.27-.77l.21.13Z"/>
  <polygon class="c" points="695.42 9.72 695.59 9.92 696.03 9.75 695.42 9.72"/>
  <path class="c" d="M804.98,59.48c.37-.59.57-1.23-.13-1.72-.31-.22-.97-.18-1.47-.26-.02.19-.16.46-.04.56.55.46,1.18.86,1.78,1.29l-.14.13Z"/>
  <polygon class="c" points="607.6 8.39 608.18 8.37 608.02 8.16 607.6 8.39"/>
  <path class="c" d="M583.26,8.42c.3.27.52.65.91.79.56.21,1.04-.02,1.2-.48.17-.47-.12-.83-.77-.8-.46.02-.9.31-1.35.48Z"/>
  <path class="c" d="M922.63,124.39c.21-.02.53,0,.62-.08.4-.39.25-.66-.39-.68-.17,0-.45.18-.49.31-.04.13.16.29.26.45Z"/>
  <path class="c" d="M863.11,112.48c.12.11.21.3.36.32.65.09.99-.1.86-.46-.03-.09-.44-.18-.64-.16-.21.02-.38.19-.58.3Z"/>
  <path class="c" d="M907.66,101.59c-.27.31-.62.6-.79.93-.13.25-.02.56-.02.84.19-.09.43-.15.55-.28.14-.14.22-.34.22-.52,0-.36-.08-.73-.14-1.1-.01,0,.19.12.19.12Z"/>
  <path class="c" d="M718.84,92.31c-2.38-.38-4.72-.46-6.93.55-.03.02.1-.08.06-.05,2.25.13,4.56.32,6.65-.64l.22.14Z"/>
  <path class="c" d="M732.7,117.6c.16.16.3.42.49.45.67.09,1-.19.83-.69-.06-.17-.29-.41-.49-.44-.69-.1-.97.16-.83.68Z"/>
  <polygon class="c" points="873.22 101.36 873.99 101.36 873.81 101.06 873.22 101.36"/>
  <path class="c" d="M886,96.53c-2.13-1.34-4.19-.66-6.27.14-.02.02.13-.11.11-.09,2.1.31,4.24.9,6.29-.19,0,0-.13.15-.13.15Z"/>
  <path class="c" d="M359.09,10.83c-.13-.56-.23-1.12-.4-1.66-.05-.16-.29-.32-.5-.4-.2-.08-.48-.05-.72-.07.05.3-.03.67.18.9.43.46,1.02.85,1.58,1.29.04.01-.14-.05-.14-.05Z"/>
  <path class="c" d="M616.76,42.16c.22.01.5.09.65.02.18-.08.4-.31.36-.43-.15-.47-.55-.51-.99-.09-.11.11-.02.33-.02.5Z"/>
  <path class="c" d="M344.92,9.06c.41.17.81.34,1.22.51.09-.16.3-.43.25-.46-.36-.19-.77-.33-1.16-.49-.1.15-.21.29-.31.44Z"/>
  <path class="c" d="M803.87,95.33c-.78-.02-1.57-.06-2.35-.06-.26,0-.72.02-.75.09-.17.46.18.63.92.47.76-.17,1.52-.35,2.31-.54.03-.02-.12.04-.12.04Z"/>
  <path class="c" d="M812.7,89.41c.04.55-.04,1.13.17,1.65.09.23.76.36,1.21.47.1.03.44-.2.47-.34.03-.17-.07-.41-.24-.53-.57-.38-1.2-.72-1.8-1.08.01,0,.19-.18.19-.18Z"/>
  <path class="c" d="M612.04,42c.2-.08.4-.16.61-.25-.17-.14-.35-.4-.5-.39-.77.05-.8.29-.11.63Z"/>
  <path class="c" d="M828.25,67.69c.56-.24.74-.61.28-.92-.32-.21-.89-.22-1.35-.32-.1.33-.41.76-.24.96.19.21.85.2,1.31.28Z"/>
  <path class="c" d="M556.12,37.76c.15.14.27.37.45.39.69.08.97-.16.68-.59-.08-.11-.47-.19-.69-.16-.17.02-.29.23-.44.35Z"/>
  <path class="c" d="M805.12,59.35c.49.02.98.04,1.47.06-.54-.79-1.05-.15-1.59.04-.02.02.12-.1.12-.1Z"/>
  <path class="c" d="M825.31,58.96c-.49-.08-.98-.16-1.47-.23.43.91,1.01.41,1.58.08,0-.01-.11.16-.11.16Z"/>
  <path class="c" d="M789.39,69.21c-.38.12-.76.24-1.15.36.17-.09.32-.21.51-.25.23-.05.5-.03.76-.05,0,0-.12-.06-.12-.06Z"/>
  <path class="c" d="M860.27,63.73c.24.04.53.15.71.09.71-.23.72-.52.03-.71-.19-.05-.53.05-.7.16-.11.08-.03.3-.04.45Z"/>
  <path class="c" d="M875.3,64.93c.21-.24.41-.48.62-.72-.14.11-.35.2-.39.33-.06.16,0,.35.02.53l-.25-.14Z"/>
  <path class="c" d="M875.55,65.07c-.48.12-.96.23-1.42.38-.05.02,0,.37.13.43.18.09.53.12.72.05.58-.22.67-.58.32-1,0,0,.25.14.25.14Z"/>
  <path class="c" d="M887.85,65.97c.32.25.64.5.96.74.1-.11.2-.22.3-.33-.48-.08-.95-.16-1.43-.24,0,0,.17-.18.17-.18Z"/>
  <polygon class="c" points="896.66 66.7 896.1 67.04 896.84 67.12 896.66 66.7"/>
  <path class="c" d="M893.23,78.71c-.12-.37-.22-.75-.39-1.11-.02-.04-.46.03-.71.04.28.24.55.47.83.71.18.15.36.31.54.47l-.27-.1Z"/>
  <path class="c" d="M643.18,117.13c-.11-.12-.23-.34-.32-.33-.23.02-.65.14-.65.21.03.44.4.48.97.12Z"/>
  <path class="c" d="M942.97,119.62c.24.07.47.14.71.21.23.06.66.17.67.15.24-.38-.04-.51-.78-.38-.25.04-.5.1-.76.16-.02.01.17-.14.17-.14Z"/>
  <path class="c" d="M.64,28.63c.14-.11.29-.22.43-.33-.21-.03-.45-.12-.63-.08-.18.04-.3.2-.44.31.21.03.43.06.64.09Z"/>
  <path class="c" d="M430.67.59c.23.03.51.14.69.08.68-.22.69-.49.03-.66-.18-.05-.5.06-.67.16-.1.07-.04.27-.05.41Z"/>
  <path class="c" d="M507.84,8.09c.15-.48.47-.98-.22-1.39-.11.1-.34.24-.31.29.2.31.45.61.67.93-.02.02-.14.17-.14.17Z"/>
  <path class="c" d="M517.91,8.52c-.23.55-.42,1.11.55,1.4.03,0,.36-.33.31-.37-.32-.3-.7-.57-1.05-.86.01-.01.19-.17.19-.17Z"/>
  <path class="c" d="M539.32,8.16c.15.34.31.69.46,1.03,0,0-.05.02-.07.03-.08-.37-.16-.73-.25-1.1,0,0-.14.04-.14.04Z"/>
  <path class="c" d="M18.85,83.16c.5.07,1.01.14,1.51.21-.02-.15-.04-.3-.06-.45-.47.13-.94.25-1.4.38l-.04-.14Z"/>
  <path class="c" d="M541.9,28.32c.5.1.99.24,1.49.28.14,0,.5-.37.45-.44-.31-.42-.85-.53-1.42-.29-.22.09-.35.3-.51.46Z"/>
  <polygon class="c" points="737.44 10.01 736.81 10.31 737.57 10.4 737.44 10.01"/>
  <path class="c" d="M771.59,26.26c.22-.07.49-.23.66-.18.68.17.65.25-.06.18-.25-.03-.51,0-.8,0-.03,0,.21,0,.21,0Z"/>
  <path class="c" d="M832.14,41.22q-.88-1.46-3.06-1.11s.18-.16.16-.15c.98.45,1.97.89,2.97,1.34l-.07-.08Z"/>
  <path class="c" d="M832.21,41.3c.36-.11.73-.21,1.09-.32-.17.09-.32.22-.5.25-.2.04-.43,0-.65-.01,0,0,.07.08.07.08Z"/>
  <path class="c" d="M176.98,120.2c-.11-.13-.24-.37-.34-.36-.25.02-.49.15-.73.23.11.13.24.36.34.36.25-.02.49-.14.73-.23Z"/>
  <polygon class="c" points="814.6 50.75 814.67 51.12 815.24 50.89 814.6 50.75"/>
  <path class="c" d="M897.83,43.87s.08.09.12.13l-.12-.13Z"/>
  <path class="c" d="M897.95,44c.24-.47.61-.63,1.12-.45-.15.13-.27.33-.46.36-.23.05-.52-.04-.78-.06,0,.01.12.15.12.15Z"/>
  <path class="c" d="M511.77,10.04l.35-.3s-.53.22-.54.23c0,0,.19.07.19.07Z"/>
  <path class="c" d="M18.9,83.3l.17-.48s-.2.3-.21.32c0,.02.04.16.04.16Z"/>
  <path class="c" d="M670.96,19.07l.04.44s.15-.31.16-.31c.01,0-.2-.13-.2-.13Z"/>
  <path class="c" d="M61.37,95.1l.43.26s-.37-.34-.38-.35c0-.01-.05.1-.05.1Z"/>
  <path class="c" d="M784.47,39.26c0,.33.02.67.02,1,.08-.1.27-.24.23-.31-.11-.18-.31-.33-.45-.51.02-.02.2-.18.2-.18Z"/>
  <path class="c" d="M153.86,113.08c-.17.13-.33.26-.5.39.45.18.53.02.24-.5,0,0,.26.12.26.12Z"/>
  <path class="c" d="M836.69,47.82l-.48-.15s.62-.03.63-.03c0,0-.14.18-.14.18Z"/>
  <polygon class="c" points="777.86 64.13 777.93 63.75 777.5 63.85 777.86 64.13"/>
  <path class="c" d="M889.95,59.55c.25.53.6.66,1.01.37.02-.01-.23-.31-.38-.32-.25-.02-.53.08-.8.14,0,0,.17-.18.17-.18Z"/>
  <path class="c" d="M811.42,69.58s.26.1.27.09-.27-.09-.27-.09Z"/>
  <path class="c" d="M790.79,74.31l.57.05s-.28-.05-.3-.06-.26,0-.26,0Z"/>
  <path class="c" d="M718.62,92.17l-.16.43s.35-.29.37-.29-.2-.14-.2-.14Z"/>
  <path class="c" d="M893.51,78.81l.04-.3s-.32.18-.32.19c0,.01.28.11.28.11Z"/>
  <path class="c" d="M812.39,95.57l-.22.51s.16-.31.19-.34c.03-.03.02-.18.02-.18Z"/>
</svg>